<svg width="52" height="52" viewBox="0 0 52 52" fill="none" xmlns="http://www.w3.org/2000/svg">
<g clip-path="url(#clip0_322_133)" filter="url(#filter0_d_322_133)">
<path d="M37.9937 0.100906H13.8062C8.61131 0.100906 4.39999 4.31222 4.39999 9.50716V33.6947C4.39999 38.8896 8.61131 43.1009 13.8062 43.1009H37.9937C43.1887 43.1009 47.4 38.8896 47.4 33.6947V9.50716C47.4 4.31222 43.1887 0.100906 37.9937 0.100906ZM44.7125 33.6947C44.7125 37.4053 41.7044 40.4134 37.9937 40.4134H13.8062C10.0956 40.4134 7.08749 37.4053 7.08749 33.6947V9.50716C7.08749 5.79647 10.0956 2.78841 13.8062 2.78841H37.9937C41.7044 2.78841 44.7125 5.79647 44.7125 9.50716V33.6947Z" fill="#2B7722"/>
<path d="M17.8375 12.1947H16.4937V8.16341H13.8062V12.1947H12.4625C11.7203 12.1947 11.1187 12.7962 11.1187 13.5384V18.9134C11.1187 19.6556 11.7203 20.2572 12.4625 20.2572H13.8062V35.0384H16.4937V20.2572H17.8375C18.5797 20.2572 19.1812 19.6556 19.1812 18.9134V13.5384C19.1812 12.7962 18.5797 12.1947 17.8375 12.1947Z" fill="#2B7722"/>
<path d="M28.5875 22.9447H27.2437V8.16341H24.5562V22.9447H23.2125C22.4703 22.9447 21.8687 23.5462 21.8687 24.2884V29.6634C21.8687 30.4056 22.4703 31.0072 23.2125 31.0072H24.5562V35.0384H27.2437V31.0072H28.5875C29.3297 31.0072 29.9312 30.4056 29.9312 29.6634V24.2884C29.9312 23.5462 29.3297 22.9447 28.5875 22.9447Z" fill="#2B7722"/>
<path d="M39.3375 13.5384H37.9937V8.16341H35.3062V13.5384H33.9625C33.2203 13.5384 32.6187 14.14 32.6187 14.8822V20.2572C32.6187 20.9993 33.2203 21.6009 33.9625 21.6009H35.3062V35.0384H37.9937V21.6009H39.3375C40.0797 21.6009 40.6812 20.9993 40.6812 20.2572V14.8822C40.6812 14.14 40.0797 13.5384 39.3375 13.5384Z" fill="#2B7722"/>
</g>
<defs>
<filter id="filter0_d_322_133" x="0.399994" y="0.100906" width="51" height="51" filterUnits="userSpaceOnUse" color-interpolation-filters="sRGB">
<feFlood flood-opacity="0" result="BackgroundImageFix"/>
<feColorMatrix in="SourceAlpha" type="matrix" values="0 0 0 0 0 0 0 0 0 0 0 0 0 0 0 0 0 0 127 0" result="hardAlpha"/>
<feOffset dy="4"/>
<feGaussianBlur stdDeviation="2"/>
<feComposite in2="hardAlpha" operator="out"/>
<feColorMatrix type="matrix" values="0 0 0 0 0 0 0 0 0 0 0 0 0 0 0 0 0 0 0.25 0"/>
<feBlend mode="normal" in2="BackgroundImageFix" result="effect1_dropShadow_322_133"/>
<feBlend mode="normal" in="SourceGraphic" in2="effect1_dropShadow_322_133" result="shape"/>
</filter>
<clipPath id="clip0_322_133">
<rect width="43" height="43" fill="white" transform="translate(4.39999 0.100906)"/>
</clipPath>
</defs>
</svg>
