<svg width="130.000000" height="130.000000" viewBox="0 0 130 130" fill="none" xmlns="http://www.w3.org/2000/svg" xmlns:xlink="http://www.w3.org/1999/xlink">
	<desc>
			Created with Pixso.
	</desc>
	<defs>
		<clipPath id="clip393_61">
			<rect id="delivery_insurance_k24q800o7f1d 1" width="130.000000" height="130.000000" fill="white" fill-opacity="0"/>
		</clipPath>
	</defs>
	<rect id="delivery_insurance_k24q800o7f1d 1" width="130.000000" height="130.000000" fill="#FFFFFF" fill-opacity="0"/>
	<g clip-path="url(#clip393_61)">
		<path id="Vector" d="M116.05 80.12C115.3 79.38 114.1 79.4 113.36 80.15L99.47 94.31L94.67 89.29C93.95 88.53 92.74 88.5 91.98 89.23C91.22 89.95 91.19 91.16 91.92 91.92L98.08 98.36C98.82 99.14 100.06 99.15 100.82 98.38L116.08 82.81C116.81 82.06 116.8 80.86 116.05 80.12Z" fill="#FFFFFF" fill-opacity="1.000000" fill-rule="nonzero"/>
		<path id="Vector" d="M124.66 64.01C119.92 66.69 115.44 66.78 111.36 64.28C108.11 62.28 106.28 59.36 106.21 59.24C105.92 58.77 105.53 58.38 105.07 58.09L105.07 51.03C105.07 49.98 104.21 49.12 103.16 49.12C102.11 49.12 101.26 49.98 101.26 51.03L101.26 58.09C100.39 58.63 100.25 59.13 99.48 60.13C96.48 64 92.13 66.71 87.17 66C85.4 65.74 83.57 65.08 81.66 64C79.28 62.66 76.33 64.39 76.33 67.12L76.33 86.83L76.33 86.83C76.33 93.35 78.12 99.96 81.82 105.8L54.43 117.88L54.43 54.51L101.26 33.86L101.26 42.14C101.26 43.19 102.11 44.05 103.16 44.05C104.21 44.05 105.07 43.19 105.07 42.14L105.07 30.93C105.07 30.93 105.07 30.93 105.07 30.93C105.07 30.16 104.59 29.48 103.92 29.19C101.33 28.06 57.01 8.79 54.48 7.69C53.24 7.15 51.82 7.15 50.58 7.69L1.14 29.19C0.45 29.49 0 30.18 0 30.93C0 30.93 0 30.93 0 30.93C0 30.93 0 30.93 0 30.93L0 96.9C0 98.61 1 100.15 2.56 100.84L51.76 122.55C52.26 122.77 52.83 122.75 53.3 122.55L84.07 108.97C87.77 113.59 92.53 117.19 98 119.43C98.97 119.83 100.08 119.36 100.48 118.39C100.88 117.42 100.42 116.31 99.44 115.91C87.41 110.97 80.14 99.25 80.14 86.83C80.14 86.83 80.14 86.83 80.14 86.83L80.14 67.52C81.19 68.09 82.23 68.55 83.28 68.92C88.38 70.71 93.32 70.04 97.75 66.98C99.89 65.51 101.84 63.5 103.16 61.54C103.82 62.52 105.94 65.42 109.37 67.52C112.99 69.74 118.82 71.52 126.19 67.52L126.19 86.83C126.19 99.68 118.61 111.09 106.88 115.91C105.91 116.31 105.44 117.42 105.85 118.39C106.24 119.37 107.36 119.83 108.33 119.43C114.68 116.82 120.09 112.4 123.97 106.63C127.91 100.78 130 93.93 130 86.83L130 67.12C130 64.38 127.04 62.66 124.66 64.01ZM73.36 20.05L77.47 21.84L34.96 43.44C27.32 40.07 28.42 40.56 25 39.05L67.44 17.48L73.36 20.05ZM33.12 46.79L33.12 66.34L22.47 61.64L22.47 42.09L33.12 46.79ZM52.1 11.18C52.37 11.06 52.69 11.06 52.96 11.18L62.91 15.51L20.5 37.06C16.83 35.44 7.27 31.22 6.65 30.95L52.1 11.18ZM50.63 117.88L4.1 97.35C3.92 97.27 3.8 97.1 3.8 96.9L3.8 33.86L18.66 40.41L18.66 61.73C18.66 63.18 19.52 64.51 20.85 65.1L32.75 70.35C34.72 71.21 36.93 69.77 36.93 67.63L36.93 48.47L50.63 54.51L50.63 117.88ZM52.53 51.19L39.46 45.43L82 23.81L98.41 30.95L52.53 51.19Z" fill="#FFFFFF" fill-opacity="1.000000" fill-rule="nonzero"/>
	</g>
</svg>
