<svg width="79.677734" height="130.000000" viewBox="0 0 79.6777 130" fill="none" xmlns="http://www.w3.org/2000/svg" xmlns:xlink="http://www.w3.org/1999/xlink">
	<desc>
			Created with Pixso.
	</desc>
	<defs/>
	<path id="Vector" d="M63.59 0L16.08 0C7.21 0 0 7.46 0 16.63L0 113.36C0 122.53 7.21 130 16.08 130L63.59 130C72.34 130 79.56 122.59 79.67 113.47L79.67 16.63C79.67 7.46 72.46 0 63.59 0ZM4.19 26.25L75.48 26.25L75.48 103.63L4.19 103.63L4.19 26.25ZM16.08 4.19L63.59 4.19C70.14 4.19 75.48 9.77 75.48 16.63L75.48 22.06L4.19 22.06L4.19 16.63C4.19 9.77 9.52 4.19 16.08 4.19ZM63.59 125.8L16.08 125.8C9.52 125.8 4.19 120.22 4.19 113.36L4.19 107.83L75.48 107.83L75.48 113.44C75.39 120.26 70.06 125.8 63.59 125.8Z" fill="#FFFFFF" fill-opacity="1.000000" fill-rule="nonzero"/>
	<path id="Vector" d="M44.06 116.92C44.06 119.31 42.17 121.26 39.83 121.26C37.5 121.26 35.61 119.31 35.61 116.92C35.61 114.52 37.5 112.58 39.83 112.58C42.17 112.58 44.06 114.52 44.06 116.92Z" fill="#FFFFFF" fill-opacity="1.000000" fill-rule="evenodd"/>
	<path id="Vector" d="M49.8 14.96L29.87 14.96C28.71 14.96 27.77 14.02 27.77 12.86C27.77 11.71 28.71 10.77 29.87 10.77L49.8 10.77C50.95 10.77 51.89 11.71 51.89 12.86C51.89 14.02 50.95 14.96 49.8 14.96Z" fill="#FFFFFF" fill-opacity="1.000000" fill-rule="nonzero"/>
	<path id="Vector" d="M34.1 93.73C30.63 93.73 27.81 90.91 27.81 87.44C27.81 83.97 30.63 81.15 34.1 81.15C37.57 81.15 40.39 83.97 40.39 87.44C40.39 90.91 37.57 93.73 34.1 93.73ZM34.1 85.34C32.94 85.34 32 86.29 32 87.44C32 88.6 32.94 89.54 34.1 89.54C35.25 89.54 36.19 88.6 36.19 87.44C36.19 86.29 35.25 85.34 34.1 85.34Z" fill="#FFFFFF" fill-opacity="1.000000" fill-rule="nonzero"/>
	<path id="Vector" d="M58.65 93.73C55.18 93.73 52.36 90.91 52.36 87.44C52.36 83.97 55.18 81.15 58.65 81.15C62.12 81.15 64.94 83.97 64.94 87.44C64.94 90.91 62.12 93.73 58.65 93.73ZM58.65 85.34C57.49 85.34 56.55 86.29 56.55 87.44C56.55 88.6 57.49 89.54 58.65 89.54C59.81 89.54 60.75 88.6 60.75 87.44C60.75 86.29 59.81 85.34 58.65 85.34Z" fill="#FFFFFF" fill-opacity="1.000000" fill-rule="nonzero"/>
	<path id="Vector" d="M69.63 50.13L24.97 50.13L23.1 41.49C23.1 41.47 23.09 41.45 23.09 41.43C23.09 41.43 23.09 41.43 23.09 41.43C23.09 41.43 23.09 41.43 23.09 41.43C23.09 41.43 23.09 41.42 23.09 41.42C23.09 41.42 23.09 41.42 23.09 41.42C23.09 41.42 23.09 41.42 23.09 41.42C23.09 41.42 23.09 41.42 23.09 41.41C23.09 41.41 23.08 41.41 23.08 41.41C23.08 41.41 23.08 41.41 23.08 41.41C23.08 41.41 23.08 41.41 23.08 41.41C23.08 41.41 23.08 41.41 23.08 41.41C23.08 41.41 23.08 41.41 23.08 41.41C23.08 41.4 23.08 41.4 23.08 41.4L23.08 41.4C23.08 41.4 23.08 41.4 23.08 41.4C23.08 41.4 23.08 41.4 23.08 41.4C23.08 41.39 23.08 41.39 23.08 41.39C23.08 41.39 23.08 41.39 23.08 41.39L23.08 41.39C23.08 41.39 23.08 41.39 23.08 41.39L23.08 41.38C23.08 41.38 23.08 41.38 23.08 41.38L23.08 41.38C23.08 41.38 23.08 41.38 23.08 41.38C23.08 41.38 23.08 41.38 23.08 41.37C23.08 41.37 23.08 41.37 23.08 41.37C23.08 41.37 23.08 41.37 23.08 41.37C23.07 41.37 23.07 41.37 23.07 41.37C23.07 41.37 23.07 41.36 23.07 41.36C23.07 41.36 23.07 41.36 23.07 41.36C23.07 41.36 23.07 41.36 23.07 41.36C23.07 41.36 23.07 41.36 23.07 41.36C23.07 41.35 23.07 41.35 23.07 41.35C23.07 41.35 23.07 41.35 23.07 41.35L23.07 41.35C23.07 41.35 23.07 41.35 23.07 41.35C23.07 41.35 23.07 41.35 23.07 41.35C23.07 41.34 23.07 41.34 23.07 41.34C23.07 41.34 23.07 41.34 23.07 41.34C23.07 41.34 23.07 41.34 23.07 41.34C23.06 41.34 23.06 41.34 23.06 41.33C23.06 41.33 23.06 41.33 23.06 41.33C22.81 40.47 22.02 39.86 21.12 39.83C21.12 39.83 21.11 39.83 21.11 39.83C21.11 39.83 21.11 39.83 21.1 39.83C21.1 39.83 21.1 39.83 21.1 39.83C21.1 39.83 21.09 39.83 21.09 39.83C21.09 39.83 21.08 39.83 21.08 39.83C21.08 39.83 21.07 39.83 21.07 39.83C21.06 39.83 21.06 39.83 21.05 39.83L10.03 39.83C8.87 39.83 7.93 40.77 7.93 41.93C7.93 43.09 8.87 44.03 10.03 44.03L19.36 44.03L26.29 76.23C26.52 77.31 27.57 78.01 28.64 77.86L62.02 77.86C62.93 77.86 63.73 77.27 64.01 76.41L71.63 52.87C72.16 50.97 70.3 50.13 69.63 50.13ZM60.49 73.67L30.05 73.67L25.88 54.33L66.75 54.33L60.49 73.67Z" fill="#FFFFFF" fill-opacity="1.000000" fill-rule="nonzero"/>
	<path id="Vector" d="M46.46 70.82C45.3 70.82 44.36 69.88 44.36 68.73L44.36 59.27C44.36 58.11 45.3 57.17 46.46 57.17C47.61 57.17 48.55 58.11 48.55 59.27L48.55 68.73C48.55 69.88 47.62 70.82 46.46 70.82Z" fill="#FFFFFF" fill-opacity="1.000000" fill-rule="nonzero"/>
	<path id="Vector" d="M56.23 70.82C55.08 70.82 54.14 69.88 54.14 68.73L54.14 59.27C54.14 58.11 55.08 57.17 56.23 57.17C57.39 57.17 58.33 58.11 58.33 59.27L58.33 68.73C58.33 69.88 57.39 70.82 56.23 70.82Z" fill="#FFFFFF" fill-opacity="1.000000" fill-rule="nonzero"/>
	<path id="Vector" d="M36.68 70.82C35.53 70.82 34.59 69.88 34.59 68.73L34.59 59.27C34.59 58.11 35.53 57.17 36.68 57.17C37.84 57.17 38.78 58.11 38.78 59.27L38.78 68.73C38.78 69.88 37.84 70.82 36.68 70.82Z" fill="#FFFFFF" fill-opacity="1.000000" fill-rule="nonzero"/>
</svg>
