<svg width="145.296875" height="130.000000" viewBox="0 0 145.297 130" fill="none" xmlns="http://www.w3.org/2000/svg" xmlns:xlink="http://www.w3.org/1999/xlink">
	<desc>
			Created with Pixso.
	</desc>
	<defs/>
	<path id="XMLID_1277_" d="M144.92 87.08L129.59 60.34C129.08 59.46 128.14 58.92 127.13 58.92L103.09 58.92L103.09 38.74C103.09 37.17 101.82 35.9 100.26 35.9L90 35.9C88.44 35.9 87.17 37.17 87.17 38.74C87.17 40.3 88.44 41.58 90 41.58L97.41 41.58L97.41 110.69L49.24 110.69C47.06 107.91 43.66 106.13 39.86 106.13C36.06 106.13 32.67 107.91 30.48 110.69L20.97 110.69L20.97 100.2L77.55 100.2C79.11 100.2 80.39 98.93 80.39 97.36C80.39 95.79 79.11 94.52 77.55 94.52L20.97 94.52L20.97 69.25C25.64 71.43 30.84 72.66 36.33 72.66C56.36 72.66 72.66 56.36 72.66 36.33C72.66 16.29 56.36 0 36.33 0C16.29 0 0 16.29 0 36.33C0 48.53 6.04 59.34 15.29 65.93L15.29 113.53C15.29 115.1 16.56 116.37 18.13 116.37L28.05 116.37C27.97 116.92 27.93 117.49 27.93 118.06C27.93 124.64 33.28 130 39.86 130C46.44 130 51.8 124.64 51.8 118.06C51.8 117.49 51.75 116.92 51.67 116.37L100.26 116.37L111.43 116.37C111.36 116.92 111.31 117.49 111.31 118.06C111.31 124.64 116.67 130 123.25 130C129.83 130 135.18 124.64 135.18 118.06C135.18 117.49 135.14 116.92 135.06 116.37L142.45 116.37C144.02 116.37 145.29 115.1 145.29 113.53L145.29 88.49C145.29 88 145.16 87.51 144.92 87.08ZM5.67 36.33C5.67 19.42 19.42 5.67 36.33 5.67C53.23 5.67 66.98 19.42 66.98 36.33C66.98 53.23 53.23 66.98 36.33 66.98C30.24 66.98 24.57 65.2 19.79 62.13C19.73 62.08 19.66 62.04 19.58 61.99C11.21 56.52 5.67 47.06 5.67 36.33ZM39.86 124.32C36.41 124.32 33.6 121.51 33.6 118.06C33.6 114.61 36.41 111.8 39.86 111.8C43.31 111.8 46.12 114.61 46.12 118.06C46.12 121.51 43.31 124.32 39.86 124.32ZM137.55 85.65L115.77 85.65L115.77 64.59L125.48 64.59L137.55 85.65ZM123.25 124.32C119.8 124.32 116.99 121.51 116.99 118.06C116.99 114.61 119.8 111.8 123.25 111.8C126.7 111.8 129.51 114.61 129.51 118.06C129.51 121.51 126.7 124.32 123.25 124.32ZM132.63 110.69C130.44 107.91 127.05 106.12 123.25 106.12C119.39 106.12 115.96 107.97 113.77 110.81C113.52 110.74 113.25 110.69 112.97 110.69L103.09 110.69L103.09 64.59L110.1 64.59L110.1 88.49C110.1 90.06 111.37 91.33 112.93 91.33L139.61 91.33L139.61 93.74L137.6 93.74C136.03 93.74 134.76 95.01 134.76 96.58C134.76 98.15 136.03 99.42 137.6 99.42L139.61 99.42L139.61 110.69L132.63 110.69Z" fill="#FFFFFF" fill-opacity="1.000000" fill-rule="nonzero"/>
	<path id="XMLID_1276_" d="M79.9 41.58C80.64 41.58 81.37 41.27 81.9 40.74C82.43 40.22 82.74 39.48 82.74 38.74C82.74 37.99 82.43 37.26 81.9 36.73C81.37 36.2 80.64 35.9 79.9 35.9C79.15 35.9 78.42 36.2 77.89 36.73C77.36 37.26 77.06 37.99 77.06 38.74C77.06 39.48 77.36 40.22 77.89 40.74C78.42 41.27 79.15 41.58 79.9 41.58Z" fill="#FFFFFF" fill-opacity="1.000000" fill-rule="nonzero"/>
	<path id="XMLID_1275_" d="M88.9 100.2C89.65 100.2 90.38 99.9 90.91 99.37C91.43 98.84 91.74 98.11 91.74 97.36C91.74 96.61 91.43 95.88 90.91 95.35C90.38 94.82 89.65 94.52 88.9 94.52C88.15 94.52 87.42 94.82 86.89 95.35C86.36 95.88 86.06 96.61 86.06 97.36C86.06 98.11 86.36 98.84 86.89 99.37C87.42 99.9 88.15 100.2 88.9 100.2Z" fill="#FFFFFF" fill-opacity="1.000000" fill-rule="nonzero"/>
	<path id="XMLID_1274_" d="M36.3 62.96C37.87 62.96 39.14 61.69 39.14 60.12L39.14 58.06C39.14 56.49 37.87 55.22 36.3 55.22C34.73 55.22 33.46 56.49 33.46 58.06L33.46 60.12C33.46 61.69 34.73 62.96 36.3 62.96Z" fill="#FFFFFF" fill-opacity="1.000000" fill-rule="nonzero"/>
	<path id="XMLID_1273_" d="M36.35 17.43C37.92 17.43 39.19 16.16 39.19 14.6L39.19 12.53C39.19 10.97 37.92 9.7 36.35 9.7C34.79 9.7 33.51 10.97 33.51 12.53L33.51 14.6C33.51 16.16 34.79 17.43 36.35 17.43Z" fill="#FFFFFF" fill-opacity="1.000000" fill-rule="nonzero"/>
	<path id="XMLID_1272_" d="M14.6 33.46L12.53 33.46C10.97 33.46 9.7 34.73 9.7 36.3C9.7 37.87 10.97 39.14 12.53 39.14L14.6 39.14C16.16 39.14 17.43 37.87 17.43 36.3C17.43 34.73 16.16 33.46 14.6 33.46Z" fill="#FFFFFF" fill-opacity="1.000000" fill-rule="nonzero"/>
	<path id="XMLID_1271_" d="M36.33 39.16L57.96 39.16C59.53 39.16 60.8 37.89 60.8 36.33C60.8 34.76 59.53 33.49 57.96 33.49L39.16 33.49L39.16 27.24C39.16 25.67 37.89 24.4 36.33 24.4C34.76 24.4 33.49 25.67 33.49 27.24L33.49 36.33C33.49 37.89 34.76 39.16 36.33 39.16Z" fill="#FFFFFF" fill-opacity="1.000000" fill-rule="nonzero"/>
</svg>
