<svg width="130.000000" height="130.000000" viewBox="0 0 130 130" fill="none" xmlns="http://www.w3.org/2000/svg" xmlns:xlink="http://www.w3.org/1999/xlink">
	<desc>
			Created with Pixso.
	</desc>
	<defs/>
	<path id="Vector" d="M92.16 51.03C92.16 36.05 79.98 23.86 65 23.86C50.01 23.86 37.83 36.05 37.83 51.03C37.83 58.01 41.2 63.94 44.5 68.83L59.88 91.62C55.58 91.83 51.62 92.28 48.4 92.96C44.66 93.74 39.7 95.2 39.7 98.82C39.7 102.43 44.66 103.89 48.4 104.67C52.87 105.61 58.76 106.13 65 106.13C71.23 106.13 77.12 105.61 81.59 104.67C85.33 103.89 90.29 102.43 90.29 98.82C90.29 95.2 85.33 93.74 81.59 92.96C78.37 92.28 74.41 91.83 70.11 91.62L85.49 68.84C88.79 63.95 92.16 58.01 92.16 51.03ZM83.84 98.82C80.93 99.84 74.45 101.05 65 101.05C55.54 101.05 49.06 99.84 46.15 98.82C49.06 97.79 55.54 96.58 65 96.58C74.45 96.58 80.93 97.79 83.84 98.82ZM65 90.13L48.71 65.99C45.7 61.53 42.91 56.62 42.91 51.03C42.91 38.85 52.82 28.94 65 28.94C77.17 28.94 87.08 38.85 87.08 51.03C87.08 56.62 84.29 61.53 81.28 66L65 90.13ZM72.36 38.28C65.33 34.22 56.3 36.63 52.24 43.67C48.18 50.7 50.6 59.72 57.63 63.78C59.95 65.12 62.47 65.75 64.97 65.75C70.06 65.75 75.02 63.11 77.75 58.39C79.72 54.99 80.24 51.02 79.22 47.22C78.2 43.42 75.76 40.24 72.36 38.28ZM73.35 55.85C70.69 60.46 64.78 62.05 60.17 59.39C55.56 56.73 53.98 50.81 56.64 46.21C59.3 41.6 65.21 40.01 69.82 42.67C72.05 43.96 73.65 46.04 74.32 48.53C74.98 51.02 74.64 53.62 73.35 55.85ZM65 0C29.15 0 0 29.15 0 65C0 100.84 29.15 130 65 130C100.84 130 130 100.84 130 65C130 29.15 100.84 0 65 0ZM65 124.92C31.95 124.92 5.07 98.04 5.07 65C5.07 31.95 31.95 5.07 65 5.07C98.04 5.07 124.92 31.95 124.92 65C124.92 98.04 98.04 124.92 65 124.92Z" fill="#FFFFFF" fill-opacity="1.000000" fill-rule="nonzero"/>
</svg>
