<svg width="34.634766" height="60.000000" viewBox="0 0 34.6348 60" fill="none" xmlns="http://www.w3.org/2000/svg" xmlns:xlink="http://www.w3.org/1999/xlink">
	<desc>
			Created with Pixso.
	</desc>
	<defs/>
	<path id="Vector" d="M2.01 0L12.63 0C12.95 0 13.26 0.07 13.55 0.22C13.83 0.36 14.07 0.58 14.26 0.83L34.26 28.83C34.5 29.17 34.63 29.58 34.63 30C34.63 30.41 34.5 30.82 34.26 31.16L14.26 59.16C14.07 59.41 13.83 59.63 13.55 59.77C13.26 59.92 12.95 60 12.63 60L2.01 60C1.65 60 1.29 59.9 0.98 59.72C0.67 59.54 0.41 59.27 0.24 58.95C0.07 58.64 -0.02 58.28 0 57.92C0.01 57.56 0.12 57.21 0.32 56.91L17.87 30L0.32 3.08C0.12 2.78 0.01 2.43 0 2.07C-0.02 1.71 0.07 1.35 0.24 1.04C0.41 0.72 0.67 0.45 0.98 0.27C1.29 0.09 1.65 -0.01 2.01 0ZM11.61 4L5.71 4L21.93 28.91C22.14 29.23 22.25 29.61 22.25 30C22.25 30.38 22.14 30.76 21.93 31.08L5.7 56L11.6 56L30.17 30L11.61 4Z" fill="#E3E3E3" fill-opacity="1.000000" fill-rule="nonzero"/>
</svg>
