<svg width="34.634766" height="60.000000" viewBox="0 0 34.6348 60" fill="none" xmlns="http://www.w3.org/2000/svg" xmlns:xlink="http://www.w3.org/1999/xlink">
	<desc>
			Created with Pixso.
	</desc>
	<defs/>
	<path id="Vector" d="M32.62 0L22 0C21.68 0 21.36 0.07 21.08 0.22C20.8 0.36 20.55 0.58 20.37 0.83L0.37 28.83C0.12 29.17 0 29.58 0 30C0 30.41 0.12 30.82 0.37 31.16L20.37 59.16C20.55 59.41 20.8 59.63 21.08 59.77C21.36 59.92 21.68 60 22 60L32.62 60C32.98 60 33.33 59.9 33.64 59.72C33.95 59.54 34.21 59.27 34.38 58.95C34.56 58.64 34.64 58.28 34.63 57.92C34.61 57.56 34.5 57.21 34.31 56.91L16.76 30L34.31 3.08C34.5 2.78 34.61 2.43 34.63 2.07C34.64 1.71 34.56 1.35 34.38 1.04C34.21 0.72 33.95 0.45 33.64 0.27C33.33 0.09 32.98 -0.01 32.62 0ZM23.02 4L28.91 4L12.7 28.91C12.49 29.23 12.37 29.61 12.37 30C12.37 30.38 12.49 30.76 12.7 31.08L28.93 56L23.03 56L4.46 30L23.02 4Z" fill="#E3E3E3" fill-opacity="1.000000" fill-rule="nonzero"/>
</svg>
