<svg width="100.000000" height="100.000000" viewBox="0 0 100 100" fill="none" xmlns="http://www.w3.org/2000/svg" xmlns:xlink="http://www.w3.org/1999/xlink">
	<desc>
			Created with Pixso.
	</desc>
	<defs/>
	<path id="Vector" d="M69.39 32.89L32.71 55.64C32.06 56.04 31.77 56.82 31.99 57.55L36.91 73.4C37.02 73.74 37.5 73.69 37.54 73.35L38.74 62.71C38.78 62.3 38.98 61.92 39.29 61.65L70.35 34.18C71.09 33.53 70.23 32.36 69.39 32.89Z" fill="#FFFFFF" fill-opacity="1.000000" fill-rule="nonzero"/>
	<path id="Vector" d="M0 0L0 100L100 100L100 0L0 0ZM83.35 25.98L71.93 80.56C71.4 83.13 68.4 84.28 66.28 82.73L49.05 70.07L40.26 79.04C38.72 80.62 36.06 79.98 35.39 77.88L29.05 57.76L12.06 52.74C9.83 52.08 9.7 48.97 11.86 48.13L78.74 22.07C81.28 21.08 83.91 23.31 83.35 25.98Z" fill="#FFFFFF" fill-opacity="1.000000" fill-rule="nonzero"/>
</svg>
