<svg width="100.000000" height="100.000000" viewBox="0 0 100 100" fill="none" xmlns="http://www.w3.org/2000/svg" xmlns:xlink="http://www.w3.org/1999/xlink">
	<desc>
			Created with Pixso.
	</desc>
	<defs/>
	<path id="Vector" d="M0 0L0 100L100 100L100 0L0 0ZM80.16 55.48C82.57 57.97 85.16 60.3 87.49 62.86C89.19 64.72 90.76 66.73 92.11 68.86C93.81 71.55 92.76 74.08 89.58 74.53C87.58 74.81 77.81 74.53 77.3 74.53C74.68 74.52 72.38 73.6 70.52 71.82C68.46 69.83 66.58 67.66 64.6 65.58C64.01 64.96 63.37 64.36 62.68 63.84C61.07 62.6 59.48 62.88 58.72 64.78C58.07 66.41 57.51 70.7 57.49 71.07C57.35 72.99 56.13 74.21 53.99 74.32C47.79 74.66 41.78 73.97 36.19 70.97C31.45 68.43 27.66 64.84 24.38 60.66C19.17 54.01 15.06 46.7 11.3 39.18C11.11 38.79 7.3 30.69 7.2 30.31C6.86 29.03 7.18 27.81 8.26 27.39C8.94 27.12 21.48 27.39 21.69 27.4C23.69 27.5 25.06 28.35 25.9 30.43C28.3 36.35 31.33 41.93 35.33 46.94C35.86 47.6 36.53 48.19 37.24 48.68C38.27 49.38 39.24 49.14 39.66 47.96C40.1 46.72 40.51 44.22 40.53 42.92C40.6 39.53 40.52 37.31 40.34 33.93C40.22 31.76 39.45 29.85 36.26 29.28C35.27 29.1 35.18 28.29 35.82 27.48C37.13 25.8 38.97 25.53 40.96 25.42C44.18 25.25 47.42 25.39 50.65 25.42C51.97 25.43 53.29 25.54 54.58 25.82C56.28 26.19 57.18 27.38 57.46 29.03C57.6 29.88 57.68 30.75 57.66 31.61C57.57 35.31 57.4 39.01 57.35 42.71C57.33 44.16 57.44 45.65 57.75 47.06C58.19 49.03 59.53 49.53 60.9 48.1C62.64 46.29 64.18 44.26 65.62 42.19C68.24 38.44 70.19 34.31 71.88 30.06C72.75 27.87 73.41 27.39 75.77 27.38C80.21 27.37 84.65 27.37 89.08 27.38C89.87 27.39 90.69 27.46 91.44 27.7C92.64 28.08 93.12 29.06 92.84 30.31C92.18 33.23 90.6 35.72 88.91 38.11C86.19 41.94 83.35 45.68 80.57 49.47C80.22 49.95 79.9 50.47 79.61 50.99C78.57 52.87 78.65 53.92 80.16 55.48Z" fill="#FFFFFF" fill-opacity="1.000000" fill-rule="nonzero"/>
</svg>
