<svg width="50" height="50" fill="none" xmlns="http://www.w3.org/2000/svg"><g clip-path="url(#clip0_49_142)" fill="#EB2227"><path d="M30.86 25.39a.977.977 0 100 1.955.977.977 0 000-1.954z"/><path d="M9.977 36.112L.212 48.416A.976.976 0 00.977 50h48.046a.976.976 0 00.765-1.584l-9.765-12.304a.976.976 0 00-.765-.37h-8.555l7.304-11.455a15.558 15.558 0 002.618-8.662C40.625 7.01 33.615 0 25 0 16.384 0 9.375 7.01 9.375 15.625c0 3.099.905 6.094 2.618 8.662l7.304 11.455h-8.555a.977.977 0 00-.765.37zm-3.646 7.736h5.905l-3.333 4.199H2.998l3.333-4.2zm14.211-6.153l2.677 4.2h-6.94l3.334-4.2h.93zm8.916 0h.93l3.332 4.2h-6.939l2.677-4.2zm5.813 6.153l3.332 4.199H11.397l3.333-4.2h20.54zm5.826 4.199l-3.333-4.2h5.905l3.333 4.2h-5.905zm1.022-6.152h-5.905l-3.333-4.2h5.905l3.333 4.2zM13.624 23.212a13.613 13.613 0 01-2.296-7.587c0-7.539 6.133-13.672 13.672-13.672 7.539 0 13.672 6.133 13.672 13.672a13.62 13.62 0 01-2.295 7.587c-.005.005-.008.011-.012.017A336777.4 336777.4 0 0125 41.054L13.635 23.23l-.011-.017zm3.495 14.483l-3.333 4.2H7.881l3.333-4.2h5.905z"/><path d="M25 25.39c5.361 0 9.766-4.34 9.766-9.765 0-5.385-4.381-9.766-9.766-9.766s-9.766 4.381-9.766 9.766c0 5.426 4.406 9.766 9.766 9.766zm0-17.578c4.308 0 7.813 3.505 7.813 7.813 0 4.348-3.533 7.813-7.813 7.813-4.28 0-7.813-3.465-7.813-7.813 0-4.308 3.505-7.813 7.813-7.813zm4.113 20.911a.977.977 0 00-1.34.333l-3.61 5.988a.977.977 0 101.673 1.008l3.61-5.988a.976.976 0 00-.333-1.34z"/></g><defs><clipPath id="clip0_49_142"><path fill="#fff" d="M0 0h50v50H0z"/></clipPath></defs></svg>