<svg width="81" height="80" fill="none" xmlns="http://www.w3.org/2000/svg"><path d="M80.148 42.67l-4.747-7.488 2.816-8.404a2.54 2.54 0 00-1.14-3.006l-7.683-4.429-1.412-8.75a2.55 2.55 0 00-2.41-2.135l-8.86-.347-5.316-7.094a2.535 2.535 0 00-3.122-.769l-8.003 3.807-8.007-3.81a2.548 2.548 0 00-3.122.772l-5.316 7.094-8.86.347a2.54 2.54 0 00-2.406 2.131l-1.413 8.751-7.682 4.428a2.542 2.542 0 00-1.143 3.007l2.815 8.404-4.744 7.49a2.543 2.543 0 00.39 3.195l6.398 6.134-.719 8.832a2.544 2.544 0 001.825 2.65l8.517 2.453 3.466 8.16c.474 1.11 1.665 1.754 2.846 1.497l8.689-1.781 6.856 5.616a2.558 2.558 0 001.61.575c.572 0 1.14-.197 1.61-.575l6.856-5.616 8.688 1.781a2.535 2.535 0 002.847-1.497l3.466-8.16 8.516-2.453a2.541 2.541 0 001.825-2.65l-.719-8.832 6.397-6.134a2.543 2.543 0 00.391-3.194zm-21.51-12.223L40.851 57.092c-.672.994-1.713 1.66-2.747 1.66-1.031 0-2.185-.578-2.919-1.316L22.129 44.17a2.349 2.349 0 010-3.282l3.222-3.281a2.271 2.271 0 013.222 0l8.498 8.632 14.013-20.995a2.261 2.261 0 013.169-.613l3.778 2.597a2.347 2.347 0 01.606 3.219z" fill="#030104"/></svg>