<svg viewBox="0 0 64 64" xmlns="http://www.w3.org/2000/svg"><path d="M25 54a4.47 4.47 0 01-3.18-1.32l-17.5-17.5A4.48 4.48 0 013 32a4.43 4.43 0 011.35-3.18l17.47-17.5a4.5 4.5 0 116.36 6.36l-9.82 9.82H56.5a4.5 4.5 0 010 9H18.36l9.82 9.82A4.5 4.5 0 0125 54zm0-42a2.49 2.49 0 00-1.77.73L5.75 30.21A2.51 2.51 0 005 32a2.45 2.45 0 00.72 1.77l17.51 17.5a2.57 2.57 0 003.54 0 2.51 2.51 0 000-3.54L15.24 36.21A1 1 0 0116 34.5h40.5a2.5 2.5 0 000-5H16a1 1 0 01-.71-1.71l11.48-11.52A2.5 2.5 0 0025 12z" data-name="Layer 10"/></svg>