<svg viewBox="0 0 32 32" xmlns="http://www.w3.org/2000/svg"><path d="M19 23h-5V13c.5 0 .93-.38.99-.88l.77-6.15c.1-.8-.14-1.59-.65-2.17-.46-.51-1.08-.8-1.75-.8H8.64c-.67 0-1.29.29-1.75.81-.51.58-.75 1.37-.65 2.17l.77 6.15c.06.49.49.87.99.87v10H3c-.55 0-1 .45-1 1v4c0 .55.45 1 1 1h16c.55 0 1-.45 1-1v-4c0-.55-.45-1-1-1zM8.39 5.13A.34.34 0 018.64 5h4.73c.11 0 .2.07.25.13.13.15.19.37.16.6L13.12 11H8.88l-.66-5.27a.81.81 0 01.17-.6zM10 13h2v10h-2zm8 14H4v-2h14zm5-23h2v13h-2zm7 0v3h-2V4zm-2 5h2v3h-2zm0 5h2v3h-2z"/></svg>