<svg xmlns="http://www.w3.org/2000/svg" viewBox="0 0 73.264 73.264"><path d="M14.799 68.143a8.496 8.496 0 01-.813 3.652.998.998 0 01-1.33.479 1 1 0 01-.479-1.331 6.593 6.593 0 00-5.964-9.386 6.553 6.553 0 00-3.447.974 1 1 0 01-1.049-1.703 8.564 8.564 0 014.496-1.271c4.734 0 8.586 3.852 8.586 8.586zm25.754-10.222a1 1 0 100-2H17.977c-3.055-2.942-7.198-4.762-11.764-4.762-1.428 0-2.847.178-4.218.528a1 1 0 00.496 1.937 15.034 15.034 0 013.722-.466c8.263 0 14.984 6.722 14.984 14.983 0 1.016-.103 2.032-.305 3.021a.999.999 0 101.959.402c.229-1.121.346-2.272.346-3.422 0-3.84-1.296-7.374-3.453-10.222h20.809zm32.711-17.38a1 1 0 01-1 1h-1.292V72.25a1 1 0 11-2 0V41.541h-1.055V72.25a1 1 0 11-2 0V41.541H26.463a1 1 0 110-2h4.947v-5.9H14.996l11.457 9.885h2.388c12.186 0 15.537 13.024 15.569 13.156.02.078.029.159.029.239v14.292a1 1 0 01-1 1H27.397a1 1 0 110-2h15.042v-.572c-1.703-.195-3.905-1.613-3.905-5.069s2.203-4.874 3.905-5.069V57.05c-.102-.379-.453-1.563-1.162-3.034-.027.007-.049.026-.077.031-.084.015-.905.159-2.079.159-1.831 0-4.52-.35-6.598-2.083-1.792-1.495-2.762-3.709-2.909-6.571-.254-.013-.51-.024-.773-.024H2.189a1 1 0 110-2h1.679v-6.956c0-1.193.392-2.182 1.163-2.94 1.547-1.518 4.079-1.485 4.185-1.489h1.745L8.072 29.65l-6.76 2.211a1 1 0 11-.622-1.902l29.579-9.675a1 1 0 11.621 1.901L9.737 29.103l3.52 3.037H31.41v-4.923a.75.75 0 01.75-.75h6.186a.75.75 0 01.75.75v4.923h4.49l.754-5.034a.75.75 0 01.742-.639H64.55a.75.75 0 01.742.639l1.401 9.352a.75.75 0 01-1.484.222l-1.305-8.713H45.729l-1.305 8.713a.752.752 0 01-1.485-.222l.422-2.818h-4.266v5.9h3.734a1 1 0 01.714-1.697h23.373a1 1 0 01.714 1.697h4.633a1.001 1.001 0 011.001 1.001zM42.439 67.612v-6.081c-.665.155-1.905.752-1.905 3.041-.001 2.288 1.239 2.885 1.905 3.04zM31.626 45.806c.173 2.106.899 3.71 2.17 4.773 2.092 1.753 5.174 1.687 6.451 1.571-1.643-2.623-4.353-5.462-8.621-6.344zM12.699 33.641H9.201c-.025.002-2.031-.015-3.124 1.063-.478.471-.71 1.081-.71 1.865v6.956h18.788l-11.456-9.884zm20.211 5.558h4.686V27.967H32.91v11.232zm14.082-9.987l-.934 7.357h17.516l-.934-7.357H46.992zm-11.734 2.376a1.188 1.188 0 100-2.376 1.188 1.188 0 000 2.376zm.386.849v5.687a.5.5 0 001 0v-5.687a.5.5 0 00-1 0zm-1.283 6.187a.5.5 0 00.5-.5v-5.687a.5.5 0 00-1 0v5.687a.5.5 0 00.5.5zM1.243 24.794V1.014a1 1 0 011-1h67.729a1 1 0 011 1V36.57a1 1 0 11-2 0V7.532H37.108v14.042a1 1 0 11-2 0V7.532H3.243v17.262a1 1 0 11-2 0zm2-22.78v3.518h65.729V2.014H3.243z" fill="#231f20"/></svg>