<svg viewBox="0 0 512 512" xmlns="http://www.w3.org/2000/svg"><path d="M321.828 182.672h-22.574a7.5 7.5 0 100 15h15.074v116.656H197.672V197.672h72.582c4.14 0 7.5-3.36 7.5-7.5s-3.36-7.5-7.5-7.5h-80.082c-4.14 0-7.5 3.36-7.5 7.5v131.656c0 4.14 3.36 7.5 7.5 7.5h131.656c4.14 0 7.5-3.36 7.5-7.5V190.172c0-4.14-3.36-7.5-7.5-7.5zm0 0"/><path d="M504.5 206.723a7.5 7.5 0 100-15h-64.91v-41.778h64.91a7.5 7.5 0 100-15h-64.91V79.91c0-4.14-3.36-7.5-7.5-7.5h-55.035V7.5a7.5 7.5 0 10-15 0v64.91h-41.778V7.5c0-4.14-3.359-7.5-7.5-7.5s-7.5 3.36-7.5 7.5v64.91H263.5V7.5c0-4.14-3.36-7.5-7.5-7.5s-7.5 3.36-7.5 7.5v64.91h-41.777V7.5a7.5 7.5 0 10-15 0v64.91h-41.774V7.5a7.5 7.5 0 10-15 0v64.91H79.91c-4.14 0-7.5 3.36-7.5 7.5v55.035H7.5a7.5 7.5 0 100 15h64.91v41.778H7.5a7.5 7.5 0 100 15h64.91V248.5H7.5c-4.14 0-7.5 3.36-7.5 7.5s3.36 7.5 7.5 7.5h64.91v41.777H7.5c-4.14 0-7.5 3.36-7.5 7.5s3.36 7.5 7.5 7.5h64.91v41.778H7.5a7.5 7.5 0 100 15h64.91v55.035c0 4.14 3.36 7.5 7.5 7.5h55.04v64.91a7.5 7.5 0 1015 0v-64.91h41.773v64.91a7.5 7.5 0 1015 0v-64.91H248.5v64.91c0 4.14 3.36 7.5 7.5 7.5s7.5-3.36 7.5-7.5v-64.91h41.777v64.91c0 4.14 3.36 7.5 7.5 7.5s7.5-3.36 7.5-7.5v-64.91h41.778v64.91a7.5 7.5 0 1015 0v-64.91h55.035c4.14 0 7.5-3.36 7.5-7.5v-55.035h64.91a7.5 7.5 0 100-15h-64.91v-41.778h64.91c4.14 0 7.5-3.359 7.5-7.5s-3.36-7.5-7.5-7.5h-64.91V263.5h64.91c4.14 0 7.5-3.36 7.5-7.5s-3.36-7.5-7.5-7.5h-64.91v-41.777zM424.59 248.5h-15.54a7.5 7.5 0 100 15h15.54v41.777h-15.54a7.5 7.5 0 100 15h15.54v41.778h-15.54a7.497 7.497 0 00-7.5 7.5 7.5 7.5 0 007.5 7.5h15.54v47.535h-47.535v-15.54a7.5 7.5 0 00-7.5-7.5 7.497 7.497 0 00-7.5 7.5v15.54h-41.778v-15.54c0-4.144-3.359-7.5-7.5-7.5s-7.5 3.356-7.5 7.5v15.54H263.5v-15.54a7.5 7.5 0 10-15 0v15.54h-41.777v-15.54c0-4.144-3.356-7.5-7.5-7.5a7.5 7.5 0 00-7.5 7.5v15.54h-41.774v-15.54a7.5 7.5 0 00-7.5-7.5 7.497 7.497 0 00-7.5 7.5v15.54H87.41v-47.535h15.54a7.5 7.5 0 007.5-7.5c0-4.145-3.356-7.5-7.5-7.5H87.41v-41.778h15.54c4.144 0 7.5-3.359 7.5-7.5s-3.356-7.5-7.5-7.5H87.41V263.5h15.54a7.5 7.5 0 100-15H87.41v-41.777h15.54c4.144 0 7.5-3.356 7.5-7.5a7.5 7.5 0 00-7.5-7.5H87.41v-41.778h15.54c4.144 0 7.5-3.355 7.5-7.5a7.5 7.5 0 00-7.5-7.5H87.41V87.41h47.54v15.54c0 4.144 3.355 7.5 7.5 7.5a7.5 7.5 0 007.5-7.5V87.41h41.773v15.54a7.5 7.5 0 007.5 7.5c4.144 0 7.5-3.356 7.5-7.5V87.41H248.5v15.54a7.5 7.5 0 1015 0V87.41h41.777v15.54a7.5 7.5 0 1015 0V87.41h41.778v15.54c0 4.144 3.355 7.5 7.5 7.5a7.5 7.5 0 007.5-7.5V87.41h47.535v47.535h-15.54a7.5 7.5 0 00-7.5 7.5c0 4.145 3.356 7.5 7.5 7.5h15.54v41.778h-15.54a7.5 7.5 0 00-7.5 7.5c0 4.144 3.356 7.5 7.5 7.5h15.54zm0 0"/></svg>