<svg xmlns="http://www.w3.org/2000/svg" viewBox="0 0 64 64"><path d="M58 26h-1.238a4.502 4.502 0 01-3.557-1.65l-3.624-4.66A7.229 7.229 0 0043.876 17H29.923a7.422 7.422 0 00-4.029 1.165l-10.52 6.763a10.56 10.56 0 01-3.859 1.503l-4.476.805A4.726 4.726 0 003 31.751V37a5.006 5.006 0 005 5h1.083a6.001 6.001 0 0011.834 0h20.168a6.02 6.02 0 002.925 4.202 5.929 5.929 0 002.982.803 6.777 6.777 0 003.4-.96 5.341 5.341 0 002.611-4.125C56.534 41.424 61 38.618 61 34.934V29a3.003 3.003 0 00-3-3zm-10.681 9.054l-6.833 2.864A1.09 1.09 0 0139 36.864V35H25a5 5 0 010-10h19a1 1 0 010 2H25a3 3 0 000 6h14v-1.864a1.09 1.09 0 011.486-1.054l6.833 2.864a1.156 1.156 0 010 2.108z" data-name="Air Circulation"/></svg>