<svg width="50" height="50" fill="none" xmlns="http://www.w3.org/2000/svg"><path d="M42.678 7.322C37.957 2.6 31.678 0 25 0 18.322 0 12.043 2.6 7.322 7.322 2.6 12.043 0 18.322 0 25c0 6.678 2.6 12.957 7.322 17.678C12.043 47.4 18.322 50 25 50c6.678 0 12.957-2.6 17.678-7.322C47.4 37.957 50 31.678 50 25c0-6.678-2.6-12.957-7.322-17.678zm-1.093 34.263A23.301 23.301 0 0125 48.454a23.301 23.301 0 01-16.585-6.87A23.3 23.3 0 011.546 25a23.3 23.3 0 016.87-16.585A23.301 23.301 0 0125 1.546c6.265 0 12.155 2.44 16.585 6.87A23.3 23.3 0 0148.454 25a23.3 23.3 0 01-6.87 16.585z" fill="#EB2227"/><path d="M25 4.64a20.292 20.292 0 00-14.916 6.514A20.241 20.241 0 004.639 25a20.24 20.24 0 005.444 13.846A20.297 20.297 0 0025 45.36a20.2 20.2 0 008.102-1.678 20.183 20.183 0 006.557-4.568A20.193 20.193 0 0045.36 25c0-11.227-9.133-20.36-20.36-20.36zm13.545 33.402c-3.567 3.722-8.378 5.773-13.545 5.773-2.662 0-5.234-.546-7.645-1.621a18.764 18.764 0 01-6.14-4.401A18.701 18.701 0 016.185 25c0-4.77 1.787-9.312 5.031-12.794a18.758 18.758 0 016.14-4.4A18.642 18.642 0 0125 6.187c10.374 0 18.815 8.44 18.815 18.814 0 4.9-1.871 9.53-5.27 13.042z" fill="#EB2227"/><path d="M25.773 7.474h-1.546v4.64h1.546v-4.64zm0 30.413h-1.546v4.639h1.546v-4.64zm16.753-13.66h-4.124v1.546h4.124v-1.546zm-30.928 0H7.474v1.546h4.124v-1.546zm1.062-11.63l-1.094 1.093 3.093 3.093 1.094-1.094-3.093-3.092zm24.166 0l-3.093 3.093 1.094 1.093 3.093-3.093-1.094-1.093zm-2.001 20.619l-1.094 1.093 3.093 3.093 1.094-1.093-3.093-3.093zm-20.164 0l-3.093 3.093 1.094 1.094 3.092-3.093-1.093-1.094zm11.112-9.051V14.69h-1.546v10.114l7.443 7.443 1.093-1.093-6.99-6.99z" fill="#EB2227"/></svg>