<svg width="80" height="80" fill="none" xmlns="http://www.w3.org/2000/svg"><path d="M68.285 11.715C60.731 4.16 50.685 0 40 0 29.315 0 19.27 4.16 11.715 11.715 4.16 19.269 0 29.315 0 40c0 10.685 4.16 20.73 11.715 28.285C19.269 75.84 29.315 80 40 80c10.685 0 20.73-4.16 28.285-11.715C75.84 60.731 80 50.685 80 40c0-10.685-4.16-20.73-11.715-28.285zm-1.75 54.82c-7.087 7.088-16.51 10.99-26.535 10.99-10.024 0-19.448-3.902-26.536-10.99C6.377 59.449 2.474 50.026 2.474 40c0-10.024 3.903-19.448 10.99-26.536C20.552 6.377 29.976 2.474 40 2.474c10.024 0 19.448 3.903 26.536 10.99 7.087 7.088 10.99 16.511 10.99 26.536 0 10.025-3.903 19.448-10.99 26.536z" fill="#000"/><path d="M40 7.423c-4.61 0-9.064.945-13.24 2.808a32.467 32.467 0 00-10.626 7.615A32.386 32.386 0 007.423 40c0 8.259 3.093 16.127 8.71 22.153a32.476 32.476 0 0010.627 7.616A32.283 32.283 0 0040 72.577a32.32 32.32 0 0012.963-2.683 32.297 32.297 0 0010.491-7.31c5.883-6.08 9.123-14.1 9.123-22.584C72.578 22.037 57.963 7.423 40 7.423zm21.672 53.445C55.964 66.823 48.268 70.103 40 70.103c-4.26 0-8.375-.872-12.232-2.593a30.018 30.018 0 01-9.824-7.042A29.922 29.922 0 019.897 40c0-7.63 2.858-14.9 8.05-20.47a30.015 30.015 0 019.821-7.04A29.827 29.827 0 0140 9.898c16.599 0 30.103 13.504 30.103 30.103 0 7.839-2.993 15.248-8.431 20.868z" fill="#000"/><path d="M41.237 11.959h-2.474v7.422h2.474V11.96zm0 48.66h-2.474v7.422h2.474V60.62zm26.804-21.856h-6.598v2.474h6.598v-2.474zm-49.484 0h-6.598v2.474h6.598v-2.474zm1.698-18.608l-1.75 1.75 4.95 4.948 1.75-1.75-4.95-4.948zm38.667.001l-4.95 4.949 1.75 1.749 4.95-4.949-1.75-1.75zM55.72 53.145l-1.75 1.75 4.949 4.949 1.75-1.75-4.95-4.949zm-32.262.001l-4.95 4.949 1.75 1.75 4.95-4.95-1.75-1.75zm17.779-14.483V23.505h-2.474v16.182l11.909 11.91 1.75-1.75-11.185-11.184z" fill="#000"/></svg>