<svg viewBox="-43 0 512 512" xmlns="http://www.w3.org/2000/svg"><path d="M410.594 0H53.469c-8.285 0-15 6.715-15 15v48.535H15c-8.285 0-15 6.719-15 15 0 8.285 6.715 15 15 15h23.469v40.985H15c-8.285 0-15 6.718-15 15 0 8.285 6.715 15 15 15h23.469v40.988H15c-8.285 0-15 6.715-15 15 0 8.281 6.715 15 15 15h23.469v40.984H15c-8.285 0-15 6.715-15 15s6.715 15 15 15h23.469v40.985H15c-8.285 0-15 6.714-15 15 0 8.285 6.715 15 15 15h23.469v40.984H15c-8.285 0-15 6.719-15 15 0 8.285 6.715 15 15 15h23.469V497c0 8.285 6.715 15 15 15h357.125c8.285 0 15-6.715 15-15V15c0-8.285-6.715-15-15-15zm-15 482H68.469v-33.535h18.207c8.281 0 15-6.719 15-15 0-8.285-6.719-15-15-15H68.469V377.48h18.207c8.281 0 15-6.718 15-15 0-8.285-6.719-15-15-15H68.469v-40.988h18.207c8.281 0 15-6.715 15-15 0-8.281-6.719-15-15-15H68.469v-40.984h18.207c8.281 0 15-6.715 15-15s-6.719-15-15-15H68.469v-40.985h18.207c8.281 0 15-6.714 15-15 0-8.285-6.719-15-15-15H68.469V93.535h18.207c8.281 0 15-6.715 15-15 0-8.281-6.719-15-15-15H68.469V30h327.125zm0 0"/><path d="M217.246 409.39c22.969 27.766 46.82 42.372 68.578 42.372 4.785 0 9.473-.707 14.024-2.137.289-.09.574-.191.855-.297l27.098-8.508c9-2.824 16.363-8.984 20.73-17.343 4.367-8.368 5.215-17.93 2.38-26.93l-18.325-58.238c-5.844-18.567-25.715-28.922-44.297-23.09l-27.809 8.73c-1.312-.066-7.23-2.394-15.64-13.355-8.707-11.352-16.563-27.32-22.117-44.973-5.551-17.644-8.258-35.223-7.625-49.5.617-13.797 4.132-19.086 5.168-19.89.027-.008.054-.02.082-.028l27.726-8.7c9-2.827 16.364-8.987 20.73-17.347 4.372-8.367 5.216-17.93 2.384-26.933l-18.34-58.262c-5.84-18.566-25.711-28.922-44.29-23.09l-27.96 8.777-.285.094c-25.086 8.055-40.86 36.496-44.426 80.133-3.207 39.2 3.453 87.55 18.746 136.145 15.293 48.597 37.527 92.054 62.613 122.37zm-51.46-256.074c2.448-29.93 11.343-50.132 23.8-54.043.078-.023.156-.05.234-.078l27.723-8.699c2.809-.887 5.809.676 6.691 3.473l18.336 58.265a5.25 5.25 0 01-.355 4.032 5.285 5.285 0 01-3.125 2.613l-27.957 8.777c-.117.035-.23.074-.348.11-8.562 2.812-22.879 12.132-25.398 42.937-1.516 18.535 1.582 41.238 8.718 63.926 7.141 22.683 17.606 43.07 29.465 57.406 19.97 24.137 37.235 23.258 45.746 20.582l27.961-8.773c2.809-.887 5.809.672 6.692 3.472l18.328 58.239a5.267 5.267 0 01-.36 4.03 5.286 5.286 0 01-3.125 2.614l-27.957 8.778a9.986 9.986 0 00-.605.203c-24.066 6.414-75.898-44.344-107-143.168-14.16-44.985-20.36-89.266-17.465-124.696zm0 0"/></svg>