<svg xmlns="http://www.w3.org/2000/svg" viewBox="0 0 512 512"><path d="M256 451c-5.521 0-10 4.49-10 10s4.479 10 10 10c5.51 0 10-4.49 10-10s-4.49-10-10-10z"/><path d="M502.115 285.775l-15.615-.18V50c0-27.57-22.43-50-50-50h-361c-27.57 0-50 22.43-50 50v235.648l-15.572.113C4.434 285.8 0 290.266 0 295.76v39.997a9.997 9.997 0 002.954 7.096c1.89 1.877 4.479 2.961 7.117 2.903l15.429-.11V380c0 27.57 22.43 50 50 50H99v72c0 5.523 4.478 10 10 10h294c5.522 0 10-4.477 10-10v-72h23.5c27.57 0 50-22.43 50-50v-34.413l15.399.155c2.683.042 5.239-1.015 7.136-2.893a10 10 0 002.965-7.106v-39.968c0-5.478-4.407-9.936-9.885-10zM45.5 50c0-16.542 13.458-30 30-30h361c16.542 0 30 13.458 30 30v234.915a369.33 369.33 0 01-28.624-3.117c7.138-19.101 10.874-39.028 10.874-58.298 0-53.438-5.792-96.013-17.215-126.543C412.995 47.399 382.83 40 366.5 40c-10.809 0-26.84 3.248-41.834 18.721-4.106 4.238-7.923 9.214-11.425 14.888C295.853 46.312 274.508 40 258.5 40c-15.137 0-35.485 5.754-52.823 30.556C190.597 45.77 170.724 40 155.5 40c-16.526 0-47.333 6.925-67.971 53.303C73.741 124.286 66.75 168.09 66.75 223.5c0 19.103 3.934 39.319 11.447 59.125-18.621 2.611-32.448 2.875-32.543 2.877l-.154.001V50zm348.571 60.974C386.6 91 376.808 80 366.5 80c-10.202 0-20.335 12.031-27.802 33.009-1.624 4.561-3.101 9.5-4.448 14.772-1.211-5.195-2.518-10.193-3.928-14.943-1.828-6.159-3.855-11.989-6.038-17.403 4.281-9.447 9.231-17.106 14.745-22.797C349.152 62.193 359.556 60 366.5 60c11.149 0 31.992 5.711 46.303 43.965 10.582 28.281 15.947 68.499 15.947 119.535 0 18.018-3.757 36.758-10.907 54.647-4.934-1.069-9.707-2.228-14.223-3.485a140.9 140.9 0 01-5.272-1.577c6.825-16.177 10.402-33.117 10.402-49.585 0-60.577-7.982-94.628-14.679-112.526zM388.75 223.5c0 14.13-3.174 28.76-9.234 42.776C356.271 256.11 344.5 243.09 344.5 227.5c0-42.472 3.803-77.582 10.997-101.533 4.296-14.303 8.696-21.189 11.26-24.262 2.12 2.553 5.333 7.589 8.582 16.276 6.118 16.352 13.411 47.933 13.411 105.519zm-188 122c7.764 0 15.874-1.702 24.107-5.058l.008-.004c12.227-4.986 24.84-13.735 36.475-25.304 25.815-25.667 43.16-60.884 43.16-87.635 0-38.821-4.564-76.465-12.523-103.279C287.074 107.706 276.207 80 258.5 80c-13.179 0-25.374 15.965-34.345 44.955-2.989-16.451-6.288-27.178-8.266-32.75C227.188 70.833 241.507 60 258.5 60c18.975 0 34.366 13.239 45.746 39.349l.002.005c2.516 5.772 4.837 12.224 6.9 19.175 8.61 29.005 13.352 67.706 13.352 108.971 0 16.521-4.929 35.143-14.253 53.854l-.003.006c-6.474 12.992-14.747 25.405-24.586 36.894a187.53 187.53 0 01-4.756 5.343c-9.885 10.678-20.49 19.57-31.52 26.43-16.276 10.123-33.093 15.473-48.632 15.473-23.456 0-47.738-11.927-68.292-33.158 7.47-2.196 14.537-4.644 21.203-7.328 15.109 13.244 31.631 20.486 47.089 20.486zm-26.936-29.976c5.936-3.283 11.433-6.815 16.456-10.575a163.72 163.72 0 0013.062 20.453c-.872.065-1.732.098-2.582.098-8.457 0-17.733-3.477-26.936-9.976zm66.341-8.049c-5.461 4.647-11.012 8.495-16.472 11.424-7.073-8.569-13.118-17.861-18.027-27.766 5.39-5.833 9.944-12.087 13.625-18.712 4.965 12.719 12.009 24.607 20.874 35.054zM230.75 227.5c0-35.659 4.548-70.841 12.477-96.525 6.596-21.359 12.925-28.379 15.337-30.405 2.989 2.626 8.962 11.561 14.239 29.342 7.434 25.043 11.697 60.613 11.697 97.588 0 19.028-12.074 44.967-30.133 65.811-15.109-18.362-23.617-41.826-23.617-65.811zm60.306 114.402c7.862 2.378 15.722 3.598 23.444 3.598 14.731 0 31.762-7.813 47.477-21.588 6.686 2.664 13.824 5.119 21.333 7.337-21.206 21.623-46.287 34.251-68.81 34.251-13.452 0-27.19-2.896-40.419-8.436a181.605 181.605 0 0016.975-15.162zM314.5 325.5c-2.762 0-5.562-.211-8.39-.63a202.184 202.184 0 0015.913-23.274c5.915 4.643 12.515 8.953 19.764 12.906-9.707 7.02-19.388 10.998-27.287 10.998zm-294.5.186v-19.998l25.88-.188c.217-.003 21.935-.388 48.212-5.179h.004c9.617-1.754 18.757-3.897 27.164-6.371a205.793 205.793 0 0013.744-4.553l.002-.001c36.989-13.786 55.744-34.611 55.744-61.896 0-52.373-3.712-91.578-11.033-116.528C173.687 90.42 165.538 80 155.5 80c-24.266 0-48.75 44.372-48.75 143.5 0 16.503 3.766 33.811 10.941 50.634-.69.211-1.376.423-2.076.629-5.442 1.601-11.243 3.052-17.311 4.34-7.571-18.693-11.555-37.77-11.555-55.603 0-52.59 6.41-93.659 19.051-122.066C121.845 65.383 143.825 60 155.5 60c17.546 0 31.023 11.905 40.058 35.385.206.535.466 1.037.753 1.519 2.438 6.222 14.44 40.431 14.44 110.596v20c0 22.374-9.585 42.313-27.719 57.664-13.913 11.778-33.045 21.262-56.863 28.188a268.46 268.46 0 01-14.086 3.672h-.003c-34.291 7.972-64.675 8.458-65.892 8.475L20 325.686zM126.75 223.5c0-89.249 20.06-117.87 27.092-122.721 1.59 2.338 4.17 7.258 6.684 15.825 6.784 23.12 10.225 60.431 10.225 110.896 0 16.173-11.519 29.503-34.269 39.7-6.312-14.572-9.732-29.81-9.732-43.7zM139 492h-20v-62h20v62zm214-41h-57c-5.521 0-10 4.49-10 10s4.479 10 10 10h57v21H159v-21h57c5.51 0 10-4.49 10-10s-4.49-10-10-10h-57v-21h194v21zm40 41h-20v-62h20v62zm73.501-112c-.001 16.542-13.459 30-30.001 30h-361c-16.542 0-30-13.458-30-30v-34.496l.891-.006c1.287-.017 30.278-.479 64.101-7.635 25.678 30.356 58.281 47.638 90.259 47.638 17.589 0 36.173-5.324 54.066-15.445 19.06 10.121 39.576 15.445 59.684 15.445 30.751 0 64.552-18.148 90.82-48.657 25.029 5.412 48.093 7.444 61.18 8.204V380zm11.377-54.5c-1.456-.018-36.098-.542-74.029-9.492l-.003-.001a285.936 285.936 0 01-10.25-2.615c-10.798-2.972-20.785-6.447-29.685-10.328h-.001c-12.862-5.61-23.768-12.205-32.531-19.65 3.053-6.822 5.578-13.641 7.582-20.386 9.442 10.068 23.483 18.562 42.088 25.4.837.307 11.622 3.95 17.211 5.504 7.417 2.063 15.397 3.903 23.72 5.47h.002c30.359 5.714 55.896 6.097 56.161 6.1l13.856.16v19.98l-14.121-.142z"/></svg>