<svg xmlns="http://www.w3.org/2000/svg" viewBox="0 0 512 512"><path d="M116.021 60.081c-17.683 0-32.068 14.387-32.068 32.069 0 17.682 14.386 32.069 32.068 32.069s32.069-14.387 32.069-32.069c0-17.682-14.387-32.069-32.069-32.069zm0 44.139c-6.654 0-12.068-5.414-12.068-12.069 0-6.655 5.414-12.069 12.068-12.069 6.655 0 12.069 5.414 12.069 12.069 0 6.655-5.414 12.069-12.069 12.069zM99.09 243.93c-1.861-1.86-4.44-2.93-7.07-2.93s-5.21 1.069-7.069 2.93c-1.86 1.86-2.931 4.44-2.931 7.07s1.07 5.21 2.931 7.069C86.81 259.93 89.39 261 92.02 261s5.209-1.07 7.07-2.931c1.86-1.859 2.93-4.439 2.93-7.069s-1.069-5.21-2.93-7.07zM396.233 60.081c-17.683 0-32.069 14.387-32.069 32.069 0 17.682 14.387 32.069 32.069 32.069s32.068-14.387 32.068-32.069c0-17.682-14.385-32.069-32.068-32.069zm0 44.139c-6.655 0-12.069-5.414-12.069-12.069 0-6.655 5.414-12.069 12.069-12.069 6.654 0 12.068 5.414 12.068 12.069 0 6.655-5.413 12.069-12.068 12.069z"/><path d="M502 305.962h-59.767v-15.151c0-5.522-4.478-10-10-10h-2V152.969h7.887l4.976 19.503a9.999 9.999 0 009.689 7.528h23.448c5.522 0 10-4.478 10-10V23.793C486.233 10.674 475.56 0 462.44 0H330.026c-13.119 0-23.793 10.674-23.793 23.793V170c0 5.522 4.478 10 10 10h23.448c4.57 0 8.56-3.099 9.689-7.528l4.976-19.503h7.887v52.616c0 5.522 4.478 10 10 10s10-4.478 10-10v-52.616h28v127.842h-50c-5.522 0-10 4.478-10 10v15.151h-59.096c-5.522 0-10 4.478-10 10V374h-50.021v-58.038c0-5.522-4.478-10-10-10H162.02v-15.151c0-5.522-4.478-10-10-10h-2V152.969h7.887l4.976 19.503a9.999 9.999 0 009.689 7.528h23.448c5.522 0 10-4.478 10-10V23.793C206.021 10.674 195.347 0 182.228 0H49.813C36.694 0 26.021 10.674 26.021 23.793V170c0 5.522 4.478 10 10 10h23.448c4.57 0 8.56-3.099 9.689-7.528l4.976-19.503h7.887V211c0 5.522 4.478 10 10 10s10-4.478 10-10v-58.031h28v127.842h-50c-5.522 0-10 4.478-10 10v15.151H10c-5.522 0-10 4.478-10 10V448c0 5.522 4.478 10 10 10h70.021c5.522 0 10-4.478 10-10v-39.189h52V502c0 5.522 4.478 10 10 10h69.096c5.522 0 10-4.478 10-10v-44h50.021v44c0 5.522 4.478 10 10 10h69.096c5.522 0 10-4.478 10-10v-93.189h52V448c0 5.522 4.478 10 10 10H502c5.522 0 10-4.478 10-10V315.962c0-5.523-4.478-10-10-10zM70.021 438H20V325.962h50.021V438zM46.02 23.793A3.798 3.798 0 0149.813 20h132.414a3.797 3.797 0 013.793 3.793V32h-140v-8.207zm96.001 292.169v72.849h-52v-88h52v15.151zm-2.001-182.993H66.365a9.999 9.999 0 00-9.689 7.528L51.7 160h-5.68V52h140v108h-5.68l-4.976-19.503a9.999 9.999 0 00-9.689-7.528H140.02zM211.116 492H162.02V325.962h49.096V492zm70.021-54h-50.021v-44h50.021v44zm69.096 54h-49.096V325.962h49.096V492zm-24-468.207A3.797 3.797 0 01330.026 20H462.44a3.797 3.797 0 013.793 3.793V32h-140v-8.207zm96 292.169v72.849h-52v-88h52v15.151zm-2-182.993h-73.655a9.999 9.999 0 00-9.689 7.528L331.913 160h-5.68V52h140v108h-5.68l-4.976-19.503a9.999 9.999 0 00-9.689-7.528h-25.655zM492 438h-49.767V325.962H492V438z"/><path d="M379.3 243.93c-1.86-1.86-4.44-2.93-7.07-2.93s-5.21 1.069-7.069 2.93c-1.86 1.86-2.931 4.44-2.931 7.07s1.07 5.21 2.931 7.069c1.859 1.86 4.439 2.931 7.069 2.931s5.209-1.07 7.07-2.931c1.87-1.859 2.93-4.439 2.93-7.069s-1.06-5.21-2.93-7.07z"/></svg>