<svg width="48" height="48" fill="none" xmlns="http://www.w3.org/2000/svg"><path d="M47.262 46.656V17.262c0-.303-.381-.684-.752-.967l-7.686-5.576V4.557A1.02 1.02 0 0037.81 3.54h-8.76L24.586.289c-.303-.205-.81-.205-1.123 0L19 3.541h-8.76a1.02 1.02 0 00-1.015 1.016v6.093L1.44 16.305c-.459.283-.752.654-.752.966v29.59c0 .577.46.977.938 1.016h44.609c.655-.01 1.026-.518 1.026-1.22zm-1.934-27.568V44.83L28.521 31.373l16.807-12.285zm-.752-1.787l-5.752 4.19v-8.419l5.752 4.229zM23.98 2.213l1.788 1.318h-3.584l1.796-1.318zm12.813 3.36v17.402L23.98 32.31l-12.812-9.335V5.572h25.625zM2.633 19.087l16.806 12.285L2.633 44.908v-25.82zm6.601 2.48L3.336 17.27l5.898-4.287v8.584zM4.46 45.934l16.611-13.37 2.295 1.68c.44.332.772.332 1.22 0l2.296-1.68 16.709 13.37H4.459z" fill="#EB2227"/><path d="M30.895 10.553H17.174v1.933h13.72v-1.933zm0 6.201H17.174v1.933h13.72v-1.933zm0 6.201H17.174v1.934h13.72v-1.934z" fill="#EB2227"/></svg>