<svg width="55" height="55" fill="none" xmlns="http://www.w3.org/2000/svg"><circle cx="27.5" cy="27.5" r="27.5" fill="#4D6424"/><path d="M41.465 17.51L27.643 27.79 13.822 17.51l-1.552 2.086 15.373 11.436 15.374-11.436-1.552-2.086z" fill="#fff"/><path d="M40.385 15.889H14.901a3.905 3.905 0 00-3.901 3.9v16.643a3.905 3.905 0 003.9 3.901h25.485a3.905 3.905 0 003.901-3.9V19.788c0-2.15-1.75-3.9-3.9-3.9zm1.3 20.543c0 .717-.583 1.3-1.3 1.3H14.901c-.717 0-1.3-.583-1.3-1.3V19.79c0-.717.583-1.3 1.3-1.3h25.484c.717 0 1.3.583 1.3 1.3v16.643z" fill="#fff"/></svg>