<svg xmlns="http://www.w3.org/2000/svg" viewBox="0 0 512 512"><path d="M504.767 117.652l-25.958-37.953a15.418 15.418 0 00-9.946-6.49 15.43 15.43 0 00-11.622 2.443l-10.752 7.353a15.414 15.414 0 00-6.491 9.946 15.42 15.42 0 002.443 11.623l.871 1.274-15.38 10.37-11.576-16.925c-6.346-9.275-19.054-11.662-28.331-5.316l-28.421 19.439-8.423-12.533a7.503 7.503 0 00-6.217-3.316l-17.464-.018V80.423c8.029-2.018 14-9.277 14-17.923 0-4.123-1.372-7.921-3.66-11 2.288-3.079 3.66-6.877 3.66-11 0-1.197-.124-2.365-.342-3.5H347c10.201 0 18.5-8.299 18.5-18.5S357.201 0 347 0H165c-10.201 0-18.5 8.299-18.5 18.5S154.799 37 165 37h5.842a18.526 18.526 0 00-.342 3.5c0 4.123 1.372 7.921 3.66 11-2.288 3.079-3.66 6.877-3.66 11 0 8.647 5.971 15.906 14 17.923v16.984l-16.642-.017h-.008a7.499 7.499 0 00-6.21 3.295l-8.817 13.022-28.849-19.731c-9.274-6.344-21.985-3.96-28.33 5.316l-11.576 16.925-15.38-10.37.871-1.274a15.416 15.416 0 002.443-11.623 15.416 15.416 0 00-6.492-9.946l-10.75-7.353a15.424 15.424 0 00-11.623-2.443 15.422 15.422 0 00-9.946 6.49L7.233 117.654c-4.828 7.062-3.012 16.736 4.05 21.567l10.75 7.353a15.435 15.435 0 008.738 2.704c4.954 0 9.828-2.362 12.831-6.751l.561-.82 15.256 10.553-14.972 21.891c-6.345 9.276-3.959 21.985 5.316 28.33l29.358 20.079-13.299 19.642a7.497 7.497 0 00-.355 7.83l101.587 183.976a7.499 7.499 0 006.559 3.875l8.889.008v34.291c0 10.377 8.441 18.818 18.818 18.818h26.965c2.929 12.036 13.793 21 26.717 21s23.788-8.964 26.717-21h26.965c10.377 0 18.818-8.441 18.818-18.818v-34.161l8.586.008h.007a7.502 7.502 0 006.563-3.868l20.685-37.375 88.723-.786c.017 0 .033-.003.049-.003 18.418-.063 33.384-15.064 33.384-33.497 0-13.988-8.621-25.995-20.827-31.003l-35.793-53.135 16.557-29.916a7.5 7.5 0 00-.338-7.815l-12.168-18.105 29.307-20.044c9.275-6.345 11.661-19.054 5.316-28.331l-14.971-21.89 15.256-10.553.561.82c3.003 4.39 7.876 6.751 12.831 6.751 3.018 0 6.064-.876 8.737-2.704l10.752-7.353c7.06-4.831 8.877-14.506 4.048-21.57zM165 22c-1.93 0-3.5-1.57-3.5-3.5s1.57-3.5 3.5-3.5h182c1.93 0 3.5 1.57 3.5 3.5S348.93 22 347 22H165zm24 44c-1.93 0-3.5-1.57-3.5-3.5s1.57-3.5 3.5-3.5h134c1.93 0 3.5 1.57 3.5 3.5S324.93 66 323 66H189zm123.5 15v16h-113V81h113zM323 44H189c-1.93 0-3.5-1.57-3.5-3.5s1.57-3.5 3.5-3.5h134c1.93 0 3.5 1.57 3.5 3.5S324.93 44 323 44zM36.062 126.981l-.002.002-.002.003-4.837 7.072a.524.524 0 01-.721.135l-10.75-7.353a.52.52 0 01-.136-.72l25.958-37.953a.49.49 0 01.332-.216.482.482 0 01.389.081l10.75 7.353a.519.519 0 01.136.72l-21.117 30.876zm16.568 2.346l7.59-11.097 15.381 10.37-7.715 11.28-15.256-10.553zm5.602 60.774a5.389 5.389 0 01-1.404-7.481l51.198-74.857a5.382 5.382 0 014.451-2.342 5.35 5.35 0 013.03.938l27.748 18.979-57.275 83.74-27.748-18.977zM255 497c-4.51 0-8.458-2.409-10.657-6h21.313c-2.198 3.591-6.146 6-10.656 6zm57.5-24.818a3.823 3.823 0 01-3.818 3.818H201.318a3.823 3.823 0 01-3.818-3.818v-12.607H262c4.143 0 7.5-3.357 7.5-7.5s-3.357-7.5-7.5-7.5h-64.5V438l115 .007v34.175zm41.954-90.319l-84.564.748c16.2-12.928 26.609-32.821 26.609-55.111 0-38.874-31.626-70.5-70.5-70.5a70.136 70.136 0 00-25.054 4.616l39.017-68.391C245.752 218.269 268.222 237 295 237c28.156 0 51.562-20.703 55.808-47.684l60.503 89.815-56.857 102.732zm-128.418 1.136h-.053c-30.595-.009-55.483-24.903-55.483-55.5 0-30.603 24.897-55.5 55.5-55.5s55.5 24.897 55.5 55.5c0 30.592-24.878 55.481-55.464 55.5zM253.5 180.5c0-22.883 18.617-41.5 41.5-41.5s41.5 18.617 41.5 41.5S317.883 222 295 222s-41.5-18.617-41.5-41.5zm217 182c0 10.201-8.299 18.5-18.5 18.5s-18.5-8.299-18.5-18.5S441.799 344 452 344s18.5 8.299 18.5 18.5zm-25.148-32.835c-15.298 3.093-26.852 16.639-26.852 32.835a33.305 33.305 0 005.749 18.745l-52.566.465 49.039-88.608 24.63 36.563zm9.821-147.047a5.39 5.39 0 01-1.404 7.482l-27.748 18.978-16.388-23.961c-2.856-4.176-8.788-4.777-12.419-1.253l-.15.145a8.162 8.162 0 00-1.092 10.413l34.121 50.771-10.625 19.197-75.704-112.382-.016-.021C333.927 135.261 315.759 124 295 124c-20.764 0-38.936 11.267-48.756 28.001a7.874 7.874 0 00-.308.481L171.733 282.55c-10.132 12.21-16.233 27.88-16.233 44.95 0 38.873 31.625 70.499 70.498 70.5h.068l120.045-1.062-14.438 26.087c-.094-.003.001-.003-.094-.003l-153.533-.134-97.228-176.082 91.009-134.411 169.13.168 29.548 43.966c2.837 4.221 8.821 4.802 12.417 1.206a8.078 8.078 0 00.956-10.273l-15.133-22.126 27.747-18.979a5.39 5.39 0 017.482 1.404l15.753 23.032 35.446 51.825zm-11.059-42.739l-7.715-11.28 15.38-10.37 7.59 11.097-15.255 10.553zm48.137-13.038l-10.752 7.353a.522.522 0 01-.72-.135l-4.837-7.072-.002-.003-.002-.002-21.117-30.875a.519.519 0 01.135-.72l10.752-7.353c.043-.031.171-.128.388-.081a.49.49 0 01.332.216l25.957 37.951a.52.52 0 01-.134.721z"/><path d="M295 153c-15.163 0-27.5 12.337-27.5 27.5S279.837 208 295 208s27.5-12.337 27.5-27.5S310.163 153 295 153zm0 40c-6.893 0-12.5-5.607-12.5-12.5S288.108 168 295 168s12.5 5.607 12.5 12.5S301.893 193 295 193zm-69 101c-18.472 0-33.5 15.028-33.5 33.5S207.528 361 226 361s33.5-15.028 33.5-33.5S244.472 294 226 294zm0 52c-10.201 0-18.5-8.299-18.5-18.5S215.799 309 226 309s18.5 8.299 18.5 18.5S236.201 346 226 346z"/><circle cx="452" cy="362.5" r="8.5"/></svg>