<svg xmlns="http://www.w3.org/2000/svg" viewBox="0 0 512.002 512.002"><path d="M413.472 98.527c-8.815-8.814-20.536-13.671-33.003-13.671-12.466 0-24.185 4.856-33.001 13.671-8.815 8.814-13.671 20.535-13.671 33.003 0 12.467 4.854 24.187 13.67 33.003 9.099 9.098 21.05 13.648 33.002 13.648 11.953 0 23.904-4.55 33.003-13.648 18.196-18.199 18.196-47.809 0-66.006zM399.33 150.39c-10.4 10.4-27.321 10.4-37.719 0-5.038-5.037-7.812-11.736-7.812-18.859 0-7.124 2.774-13.822 7.812-18.859 5.037-5.038 11.735-7.813 18.859-7.813s13.822 2.774 18.859 7.813c10.399 10.397 10.399 27.318.001 37.718zm-68.836 31.116c-18.198-18.196-47.806-18.196-66.005 0-8.814 8.814-13.67 20.536-13.67 33.003 0 12.467 4.854 24.188 13.67 33.003 9.098 9.098 21.05 13.648 33.002 13.648 11.952 0 23.903-4.55 33.002-13.648 8.816-8.815 13.672-20.536 13.672-33.003-.001-12.467-4.856-24.188-13.671-33.003zm-14.143 51.862c-10.398 10.398-27.319 10.398-37.719 0-5.038-5.037-7.812-11.735-7.812-18.859 0-7.124 2.774-13.822 7.811-18.859 10.399-10.4 27.32-10.4 37.72 0 5.037 5.037 7.812 11.735 7.812 18.859 0 7.124-2.775 13.822-7.812 18.859zm-68.836 31.116c-18.197-18.196-47.807-18.196-66.004 0-8.815 8.814-13.671 20.536-13.671 33.003 0 12.467 4.855 24.188 13.671 33.003 9.1 9.099 21.049 13.649 33.003 13.648 11.951-.002 23.904-4.551 33.003-13.648 8.813-8.814 13.669-20.536 13.669-33.003-.001-12.467-4.855-24.188-13.671-33.003zm-14.143 51.863c-10.4 10.4-27.321 10.4-37.719 0-5.037-5.037-7.812-11.735-7.812-18.859s2.774-13.822 7.812-18.859c5.199-5.199 12.03-7.799 18.859-7.799 6.829 0 13.66 2.6 18.859 7.799 5.038 5.037 7.812 11.735 7.812 18.859s-2.773 13.822-7.811 18.859zm-68.836 31.117c-18.199-18.196-47.807-18.196-66.005 0-18.197 18.198-18.197 47.808 0 66.005 8.815 8.814 20.536 13.671 33.003 13.671s24.187-4.855 33.002-13.671c8.815-8.814 13.671-20.535 13.671-33.003-.001-12.466-4.856-24.187-13.671-33.002zm-14.144 51.861c-5.037 5.038-11.735 7.813-18.859 7.813-7.124 0-13.822-2.774-18.859-7.813-10.4-10.398-10.4-27.319-.001-37.718 5.2-5.2 12.03-7.799 18.86-7.799 6.829 0 13.661 2.6 18.859 7.799 5.038 5.037 7.812 11.736 7.812 18.859.001 7.125-2.774 13.822-7.812 18.859z"/><path d="M503.715 131.722c-5.739-5.739-13.604-8.663-21.54-8.249l-19.447-19.447c-3.905-3.904-10.238-3.904-14.143 0-3.905 3.905-3.905 10.237 0 14.144l23.027 23.026a10 10 0 009.787 2.553c2.912-.819 6.044-.012 8.171 2.117 3.25 3.25 3.25 8.537 0 11.788-1.901 1.902-4.529 2.748-7.207 2.318a9.982 9.982 0 00-8.651 2.803l-61.999 61.998a10 10 0 00-2.803 8.651c.429 2.679-.417 5.306-2.318 7.208-1.902 1.9-4.529 2.746-7.209 2.317a9.997 9.997 0 00-8.649 2.804l-61.998 61.997a10 10 0 00-2.804 8.651c.429 2.679-.416 5.306-2.318 7.207-1.902 1.902-4.529 2.751-7.207 2.319a9.976 9.976 0 00-8.651 2.803l-61.998 61.998a10.001 10.001 0 00-2.804 8.651c.429 2.679-.416 5.306-2.318 7.207-1.901 1.902-4.527 2.749-7.208 2.318a9.98 9.98 0 00-8.651 2.803l-61.998 61.998a9.999 9.999 0 00-2.803 8.65c.428 2.68-.417 5.307-2.318 7.208-3.25 3.25-8.538 3.249-11.788.001a8.356 8.356 0 01-2.117-8.173 10 10 0 00-2.553-9.787L40.392 370.802a10.003 10.003 0 00-9.789-2.553 8.352 8.352 0 01-8.171-2.117c-3.25-3.25-3.25-8.537 0-11.788a8.363 8.363 0 018.113-2.129 10.014 10.014 0 009.718-2.572l60.445-60.445a10.002 10.002 0 002.572-9.718c-.795-2.897.021-6.007 2.13-8.115 2.107-2.107 5.218-2.923 8.113-2.129a9.993 9.993 0 009.716-2.572l60.446-60.445a10.002 10.002 0 002.572-9.719c-.795-2.896.021-6.005 2.129-8.113a8.356 8.356 0 018.114-2.129 9.997 9.997 0 009.716-2.572l60.446-60.445a10.003 10.003 0 002.572-9.719c-.795-2.896.021-6.006 2.128-8.113a8.364 8.364 0 018.113-2.129 10.014 10.014 0 009.719-2.572l60.445-60.445a9.999 9.999 0 002.573-9.717c-.795-2.897.021-6.007 2.129-8.114 3.25-3.25 8.538-3.249 11.788-.001a8.356 8.356 0 012.117 8.173 10 10 0 002.553 9.787l18.027 18.027c3.906 3.904 10.239 3.904 14.143 0 3.905-3.905 3.906-10.237 0-14.144l-14.447-14.447a28.366 28.366 0 00-8.25-21.54c-11.05-11.049-29.026-11.049-40.074 0-5.69 5.689-8.622 13.502-8.252 21.383l-53.344 53.344c-7.885-.364-15.693 2.563-21.383 8.253-5.689 5.69-8.62 13.501-8.251 21.382l-53.345 53.345c-7.875-.368-15.692 2.562-21.382 8.252-5.69 5.689-8.622 13.501-8.252 21.382l-53.344 53.345c-7.888-.364-15.693 2.562-21.382 8.252-5.69 5.689-8.622 13.501-8.252 21.383l-53.344 53.344c-7.872-.364-15.692 2.563-21.382 8.252-11.049 11.049-11.049 29.025 0 40.074a28.368 28.368 0 0021.54 8.249l93.647 93.648a28.366 28.366 0 008.25 21.54c5.524 5.523 12.781 8.286 20.037 8.286 7.256 0 14.513-2.763 20.037-8.286 5.082-5.082 7.996-11.913 8.259-18.998l55.721-55.722c7.084-.263 13.917-3.177 18.999-8.26 5.082-5.082 7.996-11.913 8.259-18.997l55.722-55.722c7.083-.264 13.915-3.178 18.997-8.259 5.083-5.082 7.997-11.914 8.26-18.999l55.722-55.721c7.084-.264 13.917-3.179 18.997-8.26 5.083-5.082 7.997-11.914 8.26-18.998l55.721-55.722c7.084-.263 13.916-3.177 18.998-8.259 11.053-11.051 11.053-29.029.004-40.076z"/><path d="M432.181 73.48a10.059 10.059 0 00-7.07-2.931c-2.63 0-5.21 1.07-7.07 2.931-1.86 1.859-2.93 4.439-2.93 7.069s1.07 5.21 2.93 7.07c1.86 1.87 4.44 2.93 7.07 2.93 2.64 0 5.21-1.06 7.07-2.93 1.87-1.86 2.93-4.44 2.93-7.07s-1.06-5.21-2.93-7.069zM134.22 285.905c-3.889-3.918-10.221-3.943-14.143-.055l-.127.126c-3.92 3.891-3.944 10.222-.054 14.144a9.969 9.969 0 007.099 2.956 9.972 9.972 0 007.043-2.901l.127-.126c3.922-3.891 3.946-10.222.055-14.144zm82.953-83.007c-3.905-3.904-10.237-3.904-14.144 0l-.127.127c-3.905 3.905-3.905 10.238 0 14.144 1.953 1.952 4.512 2.929 7.071 2.929s5.119-.977 7.072-2.929l.127-.127c3.906-3.905 3.906-10.237.001-14.144zm82.979-82.979c-3.905-3.904-10.238-3.904-14.144 0l-.127.127c-3.905 3.905-3.905 10.238 0 14.144 1.953 1.952 4.512 2.929 7.071 2.929s5.12-.977 7.072-2.929l.127-.127c3.906-3.905 3.906-10.238.001-14.144zm91.954 91.957c-3.889-3.919-10.221-3.943-14.143-.055l-.127.126c-3.92 3.891-3.944 10.222-.054 14.144a9.969 9.969 0 007.099 2.956 9.972 9.972 0 007.043-2.901l.127-.126c3.922-3.892 3.946-10.223.055-14.144zM309.1 294.827c-3.904-3.904-10.237-3.904-14.143 0l-.127.127c-3.905 3.905-3.905 10.237 0 14.144 1.953 1.952 4.512 2.929 7.071 2.929s5.119-.977 7.071-2.929l.127-.127c3.906-3.906 3.906-10.238.001-14.144zm-82.979 82.979c-3.905-3.904-10.238-3.904-14.143 0l-.127.127c-3.905 3.905-3.905 10.238 0 14.144 1.953 1.952 4.512 2.929 7.071 2.929s5.119-.977 7.071-2.929l.127-.127c3.906-3.905 3.906-10.238.001-14.144z"/></svg>