<svg xmlns="http://www.w3.org/2000/svg" viewBox="0 0 511.999 511.999"><path d="M504.5 213.923h-15.875l-4.35-12.869a7.5 7.5 0 00-7.105-5.098h-31.379a7.5 7.5 0 00-7.5 7.5v16.965h-23.377c-.387-9.578-7.845-17.359-17.295-18.224v-68.276c9.705-.889 17.334-9.065 17.334-18.998v-7.097c0-10.524-8.563-19.087-19.087-19.087h-54.425v-10.96a7.5 7.5 0 00-7.5-7.5h-52.636a7.5 7.5 0 00-7.5 7.5v10.96h-56.324c-10.524 0-19.087 8.563-19.087 19.087v7.097c0 10.524 8.562 19.087 19.087 19.087h.146v10.568a7.5 7.5 0 0015 0V134.01h149.992v68.098H232.627v-23.352a7.5 7.5 0 00-15 0v23.352h-.146c-10.263 0-18.637 8.149-19.048 18.313h-25.61c-1.319-11.201-7.568-21.479-17.374-27.724a7.5 7.5 0 00-8.058 12.652c7.689 4.897 11.798 13.87 10.467 22.86l-12.833 86.686c-.728 4.913-5.021 8.618-9.988 8.618s-9.26-3.705-9.988-8.618l-12.833-86.686c-1.27-8.577 2.333-17.06 9.401-22.138a7.5 7.5 0 00-8.751-12.182c-9.504 6.828-15.2 17.4-15.839 28.749h-28.38v-5.43c0-8.326-6.773-15.1-15.1-15.1H33.32c-8.326 0-15.1 6.774-15.1 15.1v5.43H7.5a7.5 7.5 0 00-7.5 7.5v65.214a7.5 7.5 0 007.5 7.5h10.72v5.43c0 8.326 6.774 15.1 15.1 15.1h20.228c8.326 0 15.1-6.774 15.1-15.1v-5.43h39.458l2.108 14.24c1.808 12.212 12.48 21.421 24.826 21.421 10.166 0 19.184-6.251 23.066-15.275h35.355v46.849a7.5 7.5 0 007.5 7.5h17.928c-6.665 5.486-15.103 8.644-23.977 8.644h-24.444c-15.298 0-27.744 12.446-27.744 27.744s12.446 27.745 27.744 27.745h24.444c4.403 0 8.748-.331 13.02-.937.192.063.385.124.584.172 2.116.508 4.299.765 6.489.765h24.444c4.391 0 8.724-.329 12.984-.931.068.02.133.045.202.063 2.249.576 4.573.869 6.909.869h24.443a92.64 92.64 0 0012.988-.932c.081.024.159.053.241.075a27.84 27.84 0 006.864.857h24.444c40.287 0 76.098-26.162 88.574-64.133h7.561a7.5 7.5 0 007.5-7.5v-46.849h6.131v16.969a7.5 7.5 0 007.5 7.5h7.395v23.054h-7.225a7.5 7.5 0 00-7.5 7.5 7.5 7.5 0 007.5 7.5h7.225v4.028h-7.225a7.5 7.5 0 00-7.5 7.5 7.5 7.5 0 007.5 7.5h7.225v5.947a7.5 7.5 0 007.5 7.5h6.96v5.03h-33.832a7.5 7.5 0 00-7.5 7.5 7.5 7.5 0 007.5 7.5h41.332a7.5 7.5 0 007.5-7.5v-12.53h8.527a7.5 7.5 0 007.5-7.5v-63.029h5.827a7.5 7.5 0 007.5-7.5V221.423a7.498 7.498 0 00-7.499-7.5zM18.22 287.851H15v-50.214h3.22v50.214zm35.428 20.43h-.001a.1.1 0 01-.1.1H33.32a.1.1 0 01-.1-.1v-91.074a.1.1 0 01.1-.1h20.228a.1.1 0 01.1.1v91.074zm14.999-20.43v-50.214h29.804l.916 6.185H84.091a7.5 7.5 0 000 15h17.497l.815 5.507H84.091a7.5 7.5 0 000 15h20.533l1.262 8.522H68.647zM288.806 85.279h37.636v3.46h-37.636v-3.46zm-71.324 33.731a4.092 4.092 0 01-4.087-4.087v-7.097a4.092 4.092 0 014.087-4.087h178.384a4.092 4.092 0 014.087 4.087v7.097a4.092 4.092 0 01-4.087 4.087H217.482zm-4.087 102.185a4.092 4.092 0 014.087-4.087h178.384a4.092 4.092 0 014.087 4.087v7.097a4.092 4.092 0 01-4.087 4.087H217.482a4.092 4.092 0 01-4.087-4.087v-7.097zm-40.305 87.043h-11.914l10.78-72.817h1.134v72.817zm21.822 118.481h-24.445c-7.027 0-12.744-5.717-12.744-12.745 0-7.027 5.717-12.744 12.744-12.744h24.444c17.73 0 34.236-8.969 43.979-23.644h28.632c-11.764 29.308-40.487 49.133-72.61 49.133zm50.988-.268c17.343-11.357 30.858-28.39 37.585-48.864h28.573c-10.97 27.33-36.686 46.414-66.158 48.864zm44.539 0c17.342-11.357 30.856-28.389 37.584-48.864h28.574c-10.971 27.33-36.687 46.414-66.158 48.864zm44.537 0c17.342-11.356 30.857-28.389 37.585-48.864h28.574c-10.971 27.33-36.687 46.414-66.159 48.864zm103.315-118.213h-6.131v-45.493a7.5 7.5 0 00-7.5-7.5h-25.321a7.5 7.5 0 00-7.5 7.5 7.5 7.5 0 007.5 7.5h17.821v92.342h-208.7v-67.57h6.468v2.365a7.5 7.5 0 007.5 7.5h25.643a7.5 7.5 0 007.5-7.5v-2.365h7.681v2.365a7.5 7.5 0 007.5 7.5h25.642a7.5 7.5 0 007.5-7.5v-2.365h15.369a7.5 7.5 0 005.571-2.479l20.092-22.293h20.332a7.5 7.5 0 007.5-7.5 7.5 7.5 0 00-7.5-7.5H341.59a7.5 7.5 0 00-5.571 2.479l-20.092 22.293h-12.032v-2.737c0-9.212-7.495-16.707-16.707-16.707h-7.227c-9.213 0-16.708 7.495-16.708 16.707v2.737h-7.681v-2.737c0-9.212-7.495-16.707-16.707-16.707h-7.228c-9.212 0-16.708 7.495-16.708 16.707v2.737H200.96a7.5 7.5 0 00-7.5 7.5v20.721h-5.37v-72.817h11.7c2.831 7.001 9.689 11.958 17.692 11.958h178.384c8.003 0 14.861-4.957 17.692-11.958h24.733v72.817zm-208.363-18.356v-12.603a1.71 1.71 0 011.708-1.707h7.228a1.71 1.71 0 011.707 1.707v12.603h-10.643zm48.324 0v-12.603a1.71 1.71 0 011.708-1.707h7.227a1.71 1.71 0 011.707 1.707v12.603h-10.642zm205.421 113.354h-15.487v-55.529h15.487v55.529zM497 332.706h-43.709v-27.824H497v27.824zm0-42.824h-43.709v-31.06H497v31.06zm0-46.06h-43.709v-32.867h18.497l4.35 12.869a7.5 7.5 0 007.105 5.098H497v14.9z"/><path d="M231.201 335.814h-.15a7.5 7.5 0 000 15h.15a7.5 7.5 0 000-15zm41.575 0h-.149a7.5 7.5 0 00-7.5 7.5 7.5 7.5 0 007.5 7.5h.149a7.5 7.5 0 007.5-7.5 7.5 7.5 0 00-7.5-7.5zm41.577 0h-.149a7.5 7.5 0 00-7.5 7.5 7.5 7.5 0 007.5 7.5h.149a7.5 7.5 0 000-15zm41.576 0h-.15a7.5 7.5 0 00-7.5 7.5 7.5 7.5 0 007.5 7.5h.15a7.5 7.5 0 000-15zm41.575 0h-.149a7.5 7.5 0 00-7.5 7.5 7.5 7.5 0 007.5 7.5h.149a7.5 7.5 0 007.5-7.5 7.5 7.5 0 00-7.5-7.5zM288.097 143.935h-.15a7.5 7.5 0 000 15h.15a7.5 7.5 0 000-15zm40.339 0h-.149a7.5 7.5 0 000 15h.149a7.5 7.5 0 007.5-7.5 7.5 7.5 0 00-7.5-7.5zm-40.339 31.896h-.15a7.5 7.5 0 000 15h.15a7.5 7.5 0 000-15zm40.339 0h-.149a7.5 7.5 0 000 15h.149a7.5 7.5 0 007.5-7.5 7.5 7.5 0 00-7.5-7.5zm75.517 111.059h-51.961a7.5 7.5 0 000 15h51.961a7.5 7.5 0 007.5-7.5c0-4.143-3.357-7.5-7.5-7.5z"/></svg>