<svg xmlns="http://www.w3.org/2000/svg" viewBox="0 0 511.999 511.999"><path d="M485.314 159.528c0-9.964-3.88-19.332-10.926-26.376L424.9 83.664c-7.046-7.046-16.413-10.926-26.377-10.926-9.964 0-19.332 3.88-26.378 10.926l-25.414 25.414-6.831-6.852V85c0-15.391-11.276-28.193-26-30.591V23.545C313.9 10.563 303.338 0 290.355 0h-68.908C208.464 0 197.9 10.563 197.9 23.545v30.928C183.354 57.02 172.26 69.735 172.26 85v17.218l-6.935 6.935-25.49-25.49c-7.046-7.045-16.414-10.926-26.378-10.926s-19.331 3.88-26.377 10.926L37.593 133.15c-14.544 14.544-14.544 38.209 0 52.754l25.489 25.489-6.253 6.253a10.002 10.002 0 00-1.802 11.684l11.228 21.597-27.144 47.993a9.998 9.998 0 00-.364 9.139l54 116.156a10.001 10.001 0 009.068 5.784h37.753v18c0 5.523 4.478 10 10 10H164.9v17c0 20.402 16.598 37 37 37h108c20.402 0 37-16.598 37-37v-17h15.333c5.522 0 10-4.477 10-10v-18h37.753a9.999 9.999 0 009.068-5.784l54-116.156a10.001 10.001 0 00-.364-9.139l-27.145-47.991 11.228-21.597a10.001 10.001 0 00-1.791-11.673l-6.165-6.183 25.57-25.57c7.047-7.046 10.927-16.414 10.927-26.378zM217.9 23.545A3.55 3.55 0 01221.446 20h68.908a3.55 3.55 0 013.546 3.545V54h-76V23.545zM192.26 85c0-6.065 4.934-11 11-11h105.641c6.065 0 11 4.935 11 11v11.36H192.26V85zM51.736 171.764c-6.746-6.747-6.746-17.724 0-24.47l49.487-49.488a17.189 17.189 0 0112.234-5.068c4.622 0 8.968 1.8 12.235 5.068l25.49 25.489-73.957 73.957-25.489-25.488zM139.567 410h-31.374L59.051 304.291l18.21-32.194 62.307 119.847V410zM326.9 475c0 9.374-7.626 17-17 17h-108c-9.374 0-17-7.626-17-17v-17h142v17zm26.461-90.113a10.01 10.01 0 00-1.127 4.613V438h-43.883c16.451-14.857 25.491-35.856 25.674-57.342.009-.178.027-.354.027-.535V305.25c0-5.523-4.478-10-10-10s-10 4.477-10 10v22.747c-14.651-16.243-35.782-25.885-58.065-25.885h-.1c-5.523.007-9.994 4.49-9.987 10.013.007 5.518 4.482 9.987 10 9.987h.088c20.454 0 39.608 10.918 50.001 28.507 16.268 27.535 7.101 63.171-20.434 79.439a57.612 57.612 0 01-26.118 7.941h-6.853c-18.583-1.141-36.304-11.174-46.467-28.374-9.585-16.224-10.678-36.183-2.923-53.39 2.269-5.035.026-10.957-5.009-13.226-5.031-2.269-10.957-.027-13.226 5.008a79.042 79.042 0 00-1.641 3.938l-28.165-73.696c2.504.467 5.081.723 7.719.723 23.159 0 42-18.841 42-42 0-13.325-6.244-25.211-15.952-32.911l77.097-28.101c-.044.71-.074 1.424-.074 2.145 0 18.778 15.277 34.055 34.055 34.055 5.01 0 9.767-1.096 14.055-3.048v18.543c0 5.523 4.478 10 10 10s10-4.477 10-10v-49.549c0-18.778-15.277-34.055-34.055-34.055a33.84 33.84 0 00-16.369 4.203L149.072 197.31c-.06.022-.114.05-.173.073-16.309 5.772-28.026 21.34-28.026 39.601a41.733 41.733 0 003.511 16.785l57.401 150.195c.019.049.042.095.062.144a77.68 77.68 0 007.052 15.692 77.727 77.727 0 0014.856 18.2h-44.187v-48.5a10.01 10.01 0 00-1.127-4.613L76.153 226.608l110.25-110.248H325.75l109.904 110.238-82.293 158.289zM140.874 236.984c0-12.131 9.869-22 22-22s22 9.869 22 22-9.869 22-22 22c-12.132 0-22-9.869-22-22zm145.07-58.866c0-7.75 6.305-14.055 14.055-14.055s14.055 6.305 14.055 14.055-6.305 14.055-14.055 14.055-14.055-6.305-14.055-14.055zm166.807 126.173L403.608 410h-31.374v-18.056l62.307-119.847 18.21 32.194zm7.495-132.528l-25.548 25.548-73.844-74.069 25.436-25.436a17.19 17.19 0 0112.235-5.068c4.621 0 8.967 1.8 12.234 5.068l49.488 49.488a17.188 17.188 0 015.067 12.234c0 4.621-1.8 8.967-5.068 12.235z"/><path d="M230.213 316.455c-2.789-4.766-8.914-6.367-13.682-3.579l-.12.071c-4.767 2.79-6.368 8.916-3.578 13.682a9.994 9.994 0 0013.802 3.508c4.768-2.79 6.369-8.916 3.578-13.682zm25.84 25.668c-20.953 0-38 17.047-38 38s17.047 38 38 38 38-17.047 38-38-17.046-38-38-38zm0 56c-9.925 0-18-8.075-18-18s8.075-18 18-18 18 8.075 18 18-8.075 18-18 18zm-93.08-170.433h-.155c-5.502 0-9.975 4.448-9.999 9.956-.024 5.522 4.433 10.02 9.956 10.044h.155c5.502 0 9.975-4.448 9.999-9.956.023-5.523-4.434-10.02-9.956-10.044zm168.148 32.24a10.074 10.074 0 00-7.07-2.93c-2.63 0-5.21 1.07-7.069 2.93-1.86 1.86-2.931 4.44-2.931 7.07s1.07 5.21 2.931 7.07a10.072 10.072 0 007.069 2.93c2.631 0 5.21-1.07 7.07-2.93 1.86-1.86 2.93-4.44 2.93-7.07s-1.07-5.21-2.93-7.07zm107.147-110.558l-.706-.707c-3.901-3.91-10.231-3.919-14.143-.02-3.91 3.9-3.919 10.232-.02 14.143l.706.708a9.974 9.974 0 007.081 2.938 9.973 9.973 0 007.062-2.919c3.91-3.9 3.92-10.232.02-14.143zm-28.946-29.035l-.706-.707c-3.901-3.91-10.231-3.919-14.143-.02-3.91 3.9-3.919 10.232-.02 14.143l.706.708a9.974 9.974 0 007.081 2.938 9.973 9.973 0 007.062-2.919c3.91-3.9 3.918-10.232.02-14.143zm-291.814-.726c-3.911-3.9-10.243-3.891-14.143.019l-.706.708c-3.899 3.911-3.891 10.243.02 14.143a9.972 9.972 0 007.062 2.919c2.563 0 5.128-.98 7.081-2.938l.706-.708c3.899-3.911 3.891-10.243-.02-14.143zm-28.946 29.035c-3.912-3.9-10.244-3.891-14.143.019l-.706.708c-3.899 3.911-3.891 10.243.02 14.143a9.972 9.972 0 007.062 2.919c2.563 0 5.128-.98 7.081-2.938l.706-.708c3.899-3.911 3.891-10.243-.02-14.143z"/></svg>