<svg width="97" height="80" fill="none" xmlns="http://www.w3.org/2000/svg"><path d="M69.23.002a27.154 27.154 0 00-20.916 9.663A26.786 26.786 0 0027.398.002C12.267.002 0 12.268 0 27.4c0 25.931 45.257 51.25 47.091 52.23.74.495 1.706.495 2.447 0 1.835-.979 47.091-25.93 47.091-52.229C96.63 12.27 84.362.002 69.23.002zM48.314 74.736C41.22 70.578 4.893 48.44 4.893 27.4c0-12.43 10.076-22.506 22.506-22.506a22.017 22.017 0 0118.836 10.152 2.569 2.569 0 004.159 0c6.802-10.403 20.75-13.322 31.153-6.52A22.506 22.506 0 0191.737 27.4c0 21.283-36.328 43.3-43.423 47.336z" fill="#000"/></svg>