<svg width="71" height="80" fill="none" xmlns="http://www.w3.org/2000/svg"><path d="M48.512 52.857c8.513-13.358 7.443-11.692 7.688-12.04a25.588 25.588 0 004.737-14.88C60.938 11.716 49.398 0 35.157 0 20.961 0 9.374 11.693 9.374 25.938a25.725 25.725 0 004.873 15.07l7.552 11.85C13.726 54.097 0 57.795 0 65.937c0 2.968 1.937 7.197 11.166 10.493C17.61 78.733 26.13 80 35.156 80c16.88 0 35.157-4.761 35.157-14.063 0-8.143-13.71-11.837-21.801-13.08zM18.164 38.429a2.445 2.445 0 00-.08-.119 21.03 21.03 0 01-4.021-12.373c0-11.721 9.438-21.25 21.093-21.25 11.631 0 21.094 9.533 21.094 21.25 0 4.373-1.331 8.569-3.85 12.137-.227.297.951-1.533-17.244 27.018L18.164 38.429zm16.992 36.883c-18.436 0-30.468-5.419-30.468-9.374 0-2.66 6.182-7.031 19.882-8.735l8.61 13.51a2.343 2.343 0 003.953 0l8.609-13.51c13.7 1.704 19.883 6.076 19.883 8.734 0 3.923-11.924 9.376-30.469 9.376z" fill="#000"/><path d="M35.156 14.219c-6.461 0-11.718 5.257-11.718 11.719 0 6.461 5.257 11.718 11.718 11.718 6.462 0 11.719-5.257 11.719-11.718 0-6.462-5.257-11.72-11.719-11.72zm0 18.75a7.04 7.04 0 01-7.031-7.032 7.04 7.04 0 017.031-7.03 7.04 7.04 0 017.032 7.03 7.04 7.04 0 01-7.032 7.032z" fill="#000"/></svg>