<svg viewBox="0 0 512 512" xmlns="http://www.w3.org/2000/svg"><path d="M62.3 424.215c-5.633 0-10.195 4.567-10.195 10.195v4.417c0 14.429 11.739 26.168 26.167 26.168h29.225c14.429 0 26.168-11.739 26.168-26.168v-4.417c0-5.628-4.563-10.195-10.195-10.195s-10.195 4.567-10.195 10.195v4.417a5.78 5.78 0 01-5.777 5.777H78.272a5.78 5.78 0 01-5.777-5.777v-4.417c0-5.628-4.562-10.195-10.195-10.195zm428.185 50.974H21.52c-5.633 0-10.195 4.567-10.195 10.195a10.192 10.192 0 0010.195 10.195h468.966c5.628 0 10.19-4.563 10.19-10.195 0-5.627-4.563-10.195-10.191-10.195zM124.032 284.842c-16.355-2.72-31.147 9.906-31.147 26.386v4.677c0 14.752 12.003 26.75 26.755 26.75h28.05c14.752 0 26.755-11.998 26.755-26.75a26.676 26.676 0 00-22.357-26.392zm30.023 31.062c0 3.507-2.858 6.365-6.365 6.365h-28.05a6.373 6.373 0 01-6.365-6.365v-4.677c0-3.646 3.003-6.364 6.315-6.364 1.026 0-.189-.09 29.146 4.766a6.344 6.344 0 015.319 6.275zm152.92-75.195c5.629 0 10.2-4.562 10.2-10.195s-4.571-10.195-10.2-10.195h-16.166l-27.602-27.597c-3.975-3.979-10.43-3.984-14.414 0-3.984 3.979-3.984 10.434 0 14.418l13.179 13.178H240.71l-27.527-36.701c-3.376-4.502-9.767-5.418-14.273-2.037-4.503 3.377-5.414 9.767-2.037 14.27l18.353 24.469H143.86c-5.633 0-10.195 4.563-10.195 10.195s4.562 10.195 10.195 10.195z"/><path d="M21.52 250.904h38.375l8.915 4.458c-.409.284-.812.577-1.245.841-9.682 5.927-15.459 15.888-15.459 26.646v120.976c0 5.633 4.563 10.194 10.195 10.194h193.705c5.628 0 10.19-4.562 10.19-10.194 0-5.628-4.563-10.195-10.19-10.195H72.495V282.85c0-3.606 2.137-7.063 5.717-9.259 9.976-6.106 16.974-15.47 19.708-26.362l32.338-128.86h207.308c5.628 0 10.189-4.562 10.189-10.195 0-5.628-4.562-10.195-10.189-10.195H122.31a10.207 10.207 0 00-9.892 7.714l-33.15 132.102-6.773-3.387v-44.675c0-7.257-7.396-12.207-14.115-9.408L17.6 197.314a10.195 10.195 0 00-6.275 9.413v33.982c-.001 5.633 4.562 10.195 10.195 10.195zm10.195-37.383l20.39-8.492v25.485h-20.39zM123.47 16.419h20.39v20.39h-20.39zm50.975 0h20.39v20.39h-20.39zm50.97 0h20.39v20.39h-20.39zm50.98 0h20.391v20.39h-20.391zm50.97 0h20.39v20.39h-20.39zm132.54 302.534V174.648c24.663-11.704 40.771-36.766 40.771-64.482 0-25.38-13.667-49.053-35.67-61.788a10.183 10.183 0 00-10.2-.01 10.197 10.197 0 00-5.101 8.831v45.621l-20.39 6.793-20.39-6.793V57.199c0-3.641-1.943-7.008-5.101-8.831a10.195 10.195 0 00-10.2.01c-22.004 12.735-35.67 36.407-35.67 61.788 0 27.716 16.117 52.778 40.78 64.482v144.305c-24.663 11.709-40.78 36.771-40.78 64.481 0 25.381 13.666 49.058 35.67 61.793a10.195 10.195 0 0015.301-8.825v-45.616l20.39-6.799 20.39 6.799v45.616c0 3.646 1.942 7.012 5.101 8.83a10.195 10.195 0 0010.2-.005c22.003-12.735 35.67-36.412 35.67-61.793 0-27.71-16.108-52.772-40.771-64.481zm10.191 95.012v-30.53a10.2 10.2 0 00-6.973-9.672l-30.58-10.195a10.225 10.225 0 00-6.455 0l-30.58 10.195a10.198 10.198 0 00-6.973 9.672v30.53c-6.504-8.695-10.189-19.384-10.189-30.53 0-21.561 13.656-40.874 33.977-48.062a10.196 10.196 0 006.803-9.612V167.84c0-4.318-2.729-8.168-6.803-9.612-20.32-7.187-33.977-26.501-33.977-48.062 0-11.146 3.686-21.834 10.189-30.525v30.525c0 4.388 2.809 8.283 6.973 9.672l30.58 10.195c2.102.697 4.363.697 6.455 0l30.58-10.195a10.199 10.199 0 006.973-9.672V79.641c6.504 8.691 10.199 19.379 10.199 30.525 0 21.56-13.666 40.875-33.986 48.062a10.197 10.197 0 00-6.793 9.612v157.92c0 4.323 2.719 8.173 6.793 9.612 20.32 7.188 33.986 26.501 33.986 48.062 0 11.147-3.695 21.836-10.199 30.531z"/></svg>