<svg viewBox="0 0 512 512" xmlns="http://www.w3.org/2000/svg"><path d="M413.67 417.649c4.143 0 7.5-3.357 7.5-7.5V280.583c0-17.976-14.624-32.6-32.6-32.6s-32.6 14.624-32.6 32.6v56.902c0 5.462-4.444 9.906-9.907 9.906h-47.557c-5.463 0-9.907-4.444-9.907-9.906V190.602a121.549 121.549 0 0025.821-10.474c17.806-9.748 30.174-26.933 33.933-47.147l8.71-46.829c5.216-28.04-6.556-56.165-29.988-71.65A87.253 87.253 0 00278.827 0h-45.655a87.262 87.262 0 00-48.248 14.501c-23.433 15.486-35.205 43.61-29.989 71.65a7.5 7.5 0 0014.747-2.742c-4.111-22.103 5.118-44.238 23.513-56.395a72.556 72.556 0 014.802-2.909 58.492 58.492 0 00-.131 5.942l2.231 73.746c.625 20.659 17.304 36.842 37.973 36.842h35.86c20.668 0 37.349-16.183 37.974-36.842l2.23-73.746c.06-1.992.01-3.973-.131-5.942a73.079 73.079 0 014.802 2.909c18.394 12.156 27.623 34.292 23.512 56.395l-8.71 46.829c-2.933 15.768-12.551 29.156-26.39 36.733-15.654 8.573-33.365 13.104-51.217 13.104s-35.562-4.531-51.218-13.104c-13.838-7.577-23.457-20.966-26.389-36.733l-2.224-11.955c-.758-4.073-4.67-6.768-8.745-6.002a7.5 7.5 0 00-6.002 8.744l2.224 11.955c3.76 20.215 16.128 37.399 33.932 47.147a121.662 121.662 0 0025.822 10.474v146.884c0 5.462-4.444 9.906-9.906 9.906h-47.558c-5.462 0-9.906-4.444-9.906-9.906v-56.902c0-17.976-14.625-32.6-32.6-32.6s-32.6 14.624-32.6 32.6V479.4c0 17.976 14.625 32.6 32.6 32.6s32.6-14.624 32.6-32.6v-56.902c0-5.462 4.444-9.906 9.906-9.906h47.558c5.462 0 9.906 4.444 9.906 9.906V479.4c0 17.976 14.625 32.6 32.6 32.6s32.6-14.624 32.6-32.6v-56.902c0-5.462 4.444-9.906 9.907-9.906h47.557c5.463 0 9.907 4.444 9.907 9.906V479.4c0 17.976 14.624 32.6 32.6 32.6s32.6-14.624 32.6-32.6v-34.251c0-4.143-3.357-7.5-7.5-7.5s-7.5 3.357-7.5 7.5V479.4c0 9.704-7.896 17.6-17.6 17.6s-17.6-7.896-17.6-17.6v-56.902c0-13.733-11.174-24.906-24.907-24.906h-47.557c-13.734 0-24.907 11.173-24.907 24.906V479.4c0 9.704-7.896 17.6-17.6 17.6-9.705 0-17.6-7.896-17.6-17.6v-56.902c0-13.733-11.173-24.906-24.906-24.906h-47.558c-13.733 0-24.906 11.173-24.906 24.906V479.4c0 9.704-7.896 17.6-17.6 17.6s-17.6-7.896-17.6-17.6V280.583c0-9.704 7.896-17.6 17.6-17.6s17.6 7.896 17.6 17.6v56.902c0 13.733 11.173 24.906 24.906 24.906h47.558a24.75 24.75 0 009.906-2.061v5.119c0 17.976 14.625 32.6 32.6 32.6s32.6-14.624 32.6-32.6v-5.119a24.771 24.771 0 009.907 2.061h47.557c13.734 0 24.907-11.173 24.907-24.906v-56.902c0-9.704 7.896-17.6 17.6-17.6s17.6 7.896 17.6 17.6v129.566a7.498 7.498 0 007.499 7.5zM299.142 29.595l-2.23 73.745c-.379 12.503-10.474 22.296-22.981 22.296h-35.86c-12.508 0-22.602-9.793-22.98-22.295l-2.231-73.746a43.01 43.01 0 011.344-12.07 72.533 72.533 0 0118.97-2.524h45.655c6.46 0 12.828.861 18.97 2.524a43.038 43.038 0 011.343 12.07zM273.6 365.45c0 9.704-7.896 17.6-17.6 17.6-9.705 0-17.6-7.896-17.6-17.6V193.775c11.813 1.734 23.382 1.735 35.2 0z"/></svg>