<svg xmlns="http://www.w3.org/2000/svg" viewBox="0 0 512 512"><path d="M486.4 256V153.6c0-14.14-11.46-25.6-25.6-25.6H243.2v-25.6H320c7.074 0 12.8-5.726 12.8-12.8 0-7.074-5.726-12.8-12.8-12.8H140.8c-7.074 0-12.8 5.726-12.8 12.8 0 7.074 5.726 12.8 12.8 12.8h76.8V128H76.8c-14.14 0-25.6 11.46-25.6 25.6v89.6H25.6v-76.8c0-7.074-5.726-12.8-12.8-12.8-7.074 0-12.8 5.726-12.8 12.8v179.2c0 7.074 5.726 12.8 12.8 12.8 7.074 0 12.8-5.726 12.8-12.8v-76.8h25.6v89.6c0 14.14 11.46 25.6 25.6 25.6h91.793l43.699 43.699A25.603 25.603 0 00230.4 435.2h256c14.14 0 25.6-11.46 25.6-25.6v-128c0-14.14-11.46-25.6-25.6-25.6zm0 153.6h-256l-51.2-51.2H76.8V153.6h384v128h25.6v128z"/><path d="M140.8 179.2c-21.171 0-38.4 17.229-38.4 38.4s17.229 38.4 38.4 38.4 38.4-17.229 38.4-38.4-17.229-38.4-38.4-38.4zm0 51.2c-7.066 0-12.8-5.734-12.8-12.8 0-7.074 5.734-12.8 12.8-12.8 7.066 0 12.8 5.726 12.8 12.8 0 7.066-5.734 12.8-12.8 12.8zm85.333-51.2c-21.171 0-38.4 17.229-38.4 38.4s17.229 38.4 38.4 38.4 38.4-17.229 38.4-38.4-17.228-38.4-38.4-38.4zm0 51.2c-7.066 0-12.8-5.734-12.8-12.8 0-7.074 5.734-12.8 12.8-12.8 7.074 0 12.8 5.726 12.8 12.8 0 7.066-5.726 12.8-12.8 12.8zm85.334-51.2c-21.171 0-38.4 17.229-38.4 38.4s17.229 38.4 38.4 38.4 38.4-17.229 38.4-38.4-17.229-38.4-38.4-38.4zm0 51.2c-7.074 0-12.8-5.734-12.8-12.8 0-7.074 5.734-12.8 12.8-12.8s12.8 5.726 12.8 12.8c0 7.066-5.735 12.8-12.8 12.8zm85.333-51.2c-21.171 0-38.4 17.229-38.4 38.4s17.229 38.4 38.4 38.4 38.4-17.229 38.4-38.4-17.229-38.4-38.4-38.4zm0 51.2c-7.066 0-12.8-5.734-12.8-12.8 0-7.074 5.734-12.8 12.8-12.8 7.066 0 12.8 5.726 12.8 12.8 0 7.066-5.734 12.8-12.8 12.8zm-294.4 76.8h358.4v25.6H102.4z"/><circle cx="448" cy="371.2" r="12.8"/><circle cx="396.8" cy="371.2" r="12.8"/><circle cx="345.6" cy="371.2" r="12.8"/><circle cx="294.4" cy="371.2" r="12.8"/><circle cx="243.2" cy="371.2" r="12.8"/></svg>