<svg width="50" height="50" fill="none" xmlns="http://www.w3.org/2000/svg"><path d="M7.714.001c-.861.026-1.618.48-2.251 1.114L1.972 4.6a.863.863 0 101.22 1.222l1.2-1.201 7.047 7.222c.8.87 2.084-.38 1.234-1.203L5.611 3.401l1.066-1.066c.442-.442.799-.6 1.087-.61.289-.009.637.11 1.138.61l7.402 7.396a.837.837 0 010 1.214l-3.994 3.993c-1.01 1.01-1.349 2.182-1.233 3.168.116.985.6 1.753 1.004 2.276 1.564 2.02 3.99 5.566 7.98 9.556 3.99 3.99 7.538 6.417 9.557 7.98.523.405 1.292.89 2.277 1.005.985.116 2.155-.222 3.166-1.233l1.194-1.191 7.06 7.212c.797.953 2.164-.386 1.228-1.203l-7.073-7.224 1.585-1.581a.837.837 0 011.215 0l7.394 7.394c.5.5.62.85.61 1.139-.01.289-.168.645-.61 1.087l-3.485 3.484c-1.453 1.454-3.363 1.469-4.559 1.469-4.514 0-12.542-1.695-24.372-13.525S1.723 14.894 1.723 10.38c0-.43-.003-.96.07-1.528A.861.861 0 10.09 8.637C0 9.333 0 9.946 0 10.378c0 4.96 1.985 13.538 14.034 25.587C26.084 48.016 34.66 50 39.62 50c1.199 0 3.796.013 5.78-1.972l3.485-3.484c.633-.633 1.087-1.396 1.114-2.258.026-.86-.398-1.693-1.114-2.409l-7.394-7.396a2.601 2.601 0 00-3.657 0l-3.986 3.994c-.712.712-1.246.797-1.756.737-.511-.06-1.03-.355-1.417-.654-2.106-1.63-5.517-3.964-9.393-7.84-3.876-3.876-6.21-7.287-7.84-9.393-.299-.386-.594-.907-.654-1.418-.06-.511.032-1.043.743-1.755l3.988-3.986a2.601 2.601 0 000-3.657l-7.396-7.394C9.407.399 8.575-.025 7.713 0z" fill="#EB2227"/></svg>