<svg xmlns="http://www.w3.org/2000/svg" data-name="Layer 3" viewBox="0 0 64 64"><path d="M17 16a4 4 0 104 4 4 4 0 00-4-4zm0 6a2 2 0 112-2 2 2 0 01-2 2zm0 37a4 4 0 10-4-4 4 4 0 004 4zm0-6a2 2 0 11-2 2 2 2 0 012-2zm37.98-23.395L52.586 32H51v-1.586l2.4-2.394a1 1 0 00-.369-1.648A5.954 5.954 0 0045 32a5.637 5.637 0 00.181 1.405L44 34.586l-1-1V32a1 1 0 00-.293-.707l-5-5a1 1 0 00-1.414 0l-5 5a1 1 0 000 1.414l5 5A1 1 0 0037 38h1.586l1 1-1.186 1.181A5.725 5.725 0 0037 40a5.956 5.956 0 00-5.629 8.026 1 1 0 001.649.369L35.414 46H37v1.586l-2.4 2.394a1 1 0 00.369 1.649A5.956 5.956 0 0043 46a5.725 5.725 0 00-.181-1.4l.681-.682 7.793 7.793a1 1 0 001.414 0l4-4a1 1 0 000-1.414L48.914 38.5l.682-.681A5.725 5.725 0 0051 38a6.006 6.006 0 006-6 5.908 5.908 0 00-.371-2.026 1 1 0 00-1.649-.369zM37.414 36l-4-4L37 28.414l4 4V34a1 1 0 00.293.707l3.793 3.793-1.586 1.586-3.793-3.793A1 1 0 0039 36zm3.332 8.651A3.934 3.934 0 0141 46a4.007 4.007 0 01-3.562 3.977l1.269-1.27A1 1 0 0039 48v-3a1 1 0 00-1-1h-3a1 1 0 00-.707.293l-1.27 1.269A4.007 4.007 0 0137 42a3.934 3.934 0 011.349.254 1.007 1.007 0 001.051-.234l1.6-1.606 1.128 1.128a.977.977 0 000 .916l-1.148 1.147a1 1 0 00-.234 1.046zM52 49.586L44.414 42 47 39.414 54.586 47zM51 36a3.934 3.934 0 01-1.349-.254 1.007 1.007 0 00-1.046.234l-1.147 1.148a.977.977 0 00-.916 0L45.414 36l1.606-1.6a1 1 0 00.234-1.046A3.934 3.934 0 0147 32a4.006 4.006 0 013.562-3.976l-1.269 1.269A1 1 0 0049 30v3a1 1 0 001 1h3a1 1 0 00.707-.293l1.27-1.269A4.007 4.007 0 0151 36z"/><path d="M44 20a18.858 18.858 0 00-11 3.543V2a1 1 0 00-1-1H2a1 1 0 00-1 1v30a1 1 0 001 1h6a1 1 0 00.857-.485L11.566 28H12v19H9a1 1 0 00-1 1v14a1 1 0 001 1h16a1 1 0 001-1V48a1 1 0 00-1-1h-3V28h.434l2.708 4.514a1 1 0 00.845.484A18.717 18.717 0 0025 39a19 19 0 1019-19zm-13-9H3V9h28zm0-8v4H3V3zm-7 58H10V49h14zm-4-14h-6V28h6zm6.565-16l-2.708-4.514A1 1 0 0023 26H11a1 1 0 00-.857.485L7.434 31H3V13h28v12h-5a1 1 0 00-.937 1.351l1.737 4.621-.016.028zM44 56a17.019 17.019 0 01-17-17 16.839 16.839 0 011.778-7.535 1 1 0 00.041-.795L27.443 27h4.128a1 1 0 00.692-.277A16.994 16.994 0 1144 56z"/></svg>