<svg xmlns="http://www.w3.org/2000/svg" viewBox="0 0 512 512"><path d="M484.013 334.668c-25.493-25.492-63.013-34.355-97.01-23.333l-72.554-72.555 85.93-85.93 54.653-30.557a8.695 8.695 0 003.529-3.695l24.559-49.117a8.685 8.685 0 00-1.626-10.024l-30.7-30.7a8.685 8.685 0 00-10.024-1.626l-49.117 24.558a8.689 8.689 0 00-3.695 3.529l-30.557 54.654-85.93 85.93-69.003-69.001c11.02-33.996 2.159-71.518-23.334-97.011C152.277 2.935 112.073-5.467 76.701 8.396a8.687 8.687 0 00-2.972 14.225l55.236 55.234-36.839 36.839-55.235-55.237a8.684 8.684 0 00-14.225 2.972C8.805 97.797 17.203 138.005 44.06 164.864c25.492 25.492 63.012 34.354 97.01 23.333l69.001 69.002-9.954 9.954-24.559-24.559a8.702 8.702 0 00-8.135-2.311 8.684 8.684 0 00-6.243 5.706l-11.267 33.804-88.953 53.715a8.71 8.71 0 00-2.085 1.76l-45.757 53.024c-18.524 21.467-17.278 55.245 2.777 75.3l30.762 30.763c10.52 10.52 24.816 15.843 39.136 15.843 12.99 0 26.001-4.382 36.223-13.243l54.064-46.865a8.654 8.654 0 001.756-2.091l52.633-87.667 33.792-11.264a8.684 8.684 0 003.393-14.378l-24.558-24.558 9.954-9.954 72.554 72.553c-11.021 33.996-2.159 71.518 23.334 97.011 18.26 18.26 42.693 27.987 67.58 27.987a95.48 95.48 0 0034.854-6.593 8.687 8.687 0 002.972-14.225l-55.237-55.236 36.84-36.837 55.233 55.234a8.683 8.683 0 0014.225-2.973c13.863-35.365 5.465-75.573-21.392-102.431zM149.467 172.034a8.687 8.687 0 00-9.308-1.944c-28.94 11.341-61.843 4.47-83.818-17.505-18.665-18.666-26.434-45.212-21.402-70.521l51.047 51.048a8.686 8.686 0 0012.28 0l49.118-49.118a8.683 8.683 0 000-12.28L96.336 20.667c25.306-5.034 51.853 2.736 70.52 21.403 21.975 21.975 28.847 54.875 17.506 83.818a8.684 8.684 0 001.944 9.308l72.886 72.885-36.837 36.837-72.888-72.884zm95.975 165.001l-23.51 7.836a8.69 8.69 0 00-4.698 3.768l-53.574 89.235-53.019 45.959c-14.751 12.79-37.946 12.001-51.704-1.759l-30.763-30.763c-13.763-13.763-14.621-36.944-1.909-51.674l44.854-51.977 90.511-54.654a8.684 8.684 0 003.749-4.688l7.836-23.51 20.765 20.765 30.698 30.698 20.764 20.764zm-14.624-39.182l-18.419-18.419 158.134-158.133a8.669 8.669 0 001.438-1.903l29.84-53.371 41.128-20.563 21.849 21.848-20.565 41.129-53.37 29.84a8.669 8.669 0 00-1.903 1.438L230.818 297.853zm262.318 119.614L442.09 366.42a8.686 8.686 0 00-12.279 0l-49.119 49.117a8.682 8.682 0 00-.001 12.28l51.048 51.048c-25.306 5.025-51.856-2.739-70.52-21.403-21.975-21.975-28.847-54.876-17.506-83.818a8.684 8.684 0 00-1.944-9.308l-76.438-76.438 36.837-36.838 76.438 76.438a8.686 8.686 0 009.308 1.944c28.944-11.337 61.844-4.469 83.818 17.505 18.668 18.666 26.436 45.212 21.404 70.52z"/></svg>