<svg viewBox="0 0 64 64" xmlns="http://www.w3.org/2000/svg"><path d="M63 9.279l-2.456-.818 1.158-2.315-3.848-3.848-2.315 1.158L54.721 1H49.28l-.818 2.456-2.315-1.158-3.848 3.848 1.158 2.315L41 9.279v5.441l2.456.818-1.158 2.315 3.848 3.848 2.315-1.158.818 2.457h5.441l.818-2.456 2.315 1.158 3.848-3.848-1.158-2.315L63 14.721zm-2 4l-2.296.765-.168.443c-.049.129-.1.254-.154.378l-.194.433 1.081 2.162-1.809 1.809-2.162-1.081-.433.194a7.462 7.462 0 01-.378.154l-.443.168L53.279 21H50.72l-.765-2.296-.443-.168a8.522 8.522 0 01-.378-.154l-.433-.194-2.162 1.081-1.809-1.809 1.081-2.162-.194-.433a7.462 7.462 0 01-.154-.378l-.168-.443L43 13.279V10.72l2.296-.765.168-.443c.049-.129.1-.254.154-.378l.194-.433-1.081-2.161 1.809-1.809 2.162 1.081.433-.194c.124-.055.249-.105.378-.154l.443-.168L50.721 3h2.559l.765 2.296.443.168c.129.049.254.1.378.154l.433.194 2.162-1.081L59.27 6.54l-1.081 2.162.194.433c.055.124.105.249.154.378l.168.443 2.295.765z"/><path d="M52 7c-2.757 0-5 2.243-5 5s2.243 5 5 5 5-2.243 5-5-2.243-5-5-5zm0 8c-1.654 0-3-1.346-3-3s1.346-3 3-3 3 1.346 3 3-1.346 3-3 3zM21.702 46.146l-3.848-3.848-2.315 1.158L14.721 41H9.279l-.818 2.456-2.315-1.158-3.848 3.848 1.158 2.315L1 49.279v5.441l2.456.818-1.158 2.315 3.848 3.848 2.315-1.158L9.279 63h5.441l.818-2.456 2.315 1.158 3.848-3.848-1.158-2.315L23 54.721V49.28l-2.456-.818zM21 50.721v2.559l-2.296.765-.168.443c-.049.129-.1.254-.154.378l-.194.433 1.081 2.162-1.809 1.809-2.162-1.081-.433.194a7.462 7.462 0 01-.378.154l-.443.168L13.279 61H10.72l-.765-2.296-.443-.168a8.522 8.522 0 01-.378-.154l-.433-.194-2.161 1.081-1.809-1.809 1.081-2.162-.194-.433a7.462 7.462 0 01-.154-.378l-.168-.443L3 53.279V50.72l2.296-.765.168-.443c.049-.129.1-.254.154-.378l.194-.433-1.081-2.161 1.809-1.809 2.162 1.081.433-.194c.124-.055.249-.105.378-.154l.443-.168.765-2.296h2.559l.765 2.296.443.168c.129.049.254.1.378.154l.433.194 2.162-1.081 1.809 1.809-1.081 2.162.194.433c.055.124.105.249.154.378l.168.443z"/><path d="M12 47c-2.757 0-5 2.243-5 5s2.243 5 5 5 5-2.243 5-5-2.243-5-5-5zm0 8c-1.654 0-3-1.346-3-3s1.346-3 3-3 3 1.346 3 3-1.346 3-3 3zm16-16.75V41c0 1.654 1.346 3 3 3h2c1.654 0 3-1.346 3-3v-2.791c0-.68.322-1.293.862-1.64A8.966 8.966 0 0041 29a9.012 9.012 0 00-3.006-6.714 9.028 9.028 0 00-7.039-2.227c-4.052.458-7.365 3.723-7.88 7.762-.447 3.51 1.118 6.867 4.084 8.762.519.331.841.97.841 1.667zM34 41a1 1 0 01-1 1h-2a1 1 0 01-1-1v-1h4zm-3-12a1 1 0 112 0 1 1 0 01-2 0zm-5.94-.926c.399-3.136 2.974-5.672 6.12-6.027.278-.032.555-.048.829-.048 1.725 0 3.353.617 4.652 1.778A7.014 7.014 0 0139 29a6.975 6.975 0 01-3.219 5.887c-1.058.68-1.704 1.833-1.768 3.113H33v-6.184A2.996 2.996 0 0035 29c0-1.654-1.346-3-3-3s-3 1.346-3 3c0 1.302.839 2.402 2 2.816V38h-1.015c-.074-1.292-.711-2.439-1.749-3.103-2.308-1.474-3.525-4.088-3.176-6.823zm29.327.203C53.853 27.478 52.961 27 52 27s-1.853.478-2.387 1.277l-5.188 7.781A2.536 2.536 0 0046.535 40H48v8H31v2h17c1.103 0 2-.897 2-2V38h-3.465a.536.536 0 01-.445-.832l5.188-7.781c.322-.484 1.123-.484 1.445 0l5.188 7.781a.537.537 0 01-.446.832H54v12c0 2.206-1.794 4-4 4H31v2h19c3.309 0 6-2.691 6-6V40h1.465A2.539 2.539 0 0060 37.465c0-.502-.147-.988-.426-1.406zM27 54h2v2h-2z"/><path d="M9.613 35.723C10.147 36.522 11.039 37 12 37s1.853-.478 2.387-1.277l5.188-7.781A2.536 2.536 0 0017.465 24H16v-8h17v-2H16c-1.103 0-2 .897-2 2v10h3.465a.536.536 0 01.445.832l-5.188 7.781c-.322.484-1.123.484-1.445 0L6.09 26.832A.536.536 0 016.535 26H10V14c0-2.206 1.794-4 4-4h19V8H14c-3.309 0-6 2.691-6 6v10H6.535A2.539 2.539 0 004 26.535c0 .502.147.988.426 1.406zM35 8h2v2h-2z"/></svg>