<svg width="68" height="80" fill="none" xmlns="http://www.w3.org/2000/svg"><path d="M67.135 20.599c-.04-2.16-.08-4.2-.08-6.175a2.8 2.8 0 00-2.8-2.8c-11.976 0-21.093-3.442-28.693-10.831a2.8 2.8 0 00-3.905 0c-7.6 7.39-16.715 10.831-28.69 10.831a2.8 2.8 0 00-2.8 2.8c0 1.975-.04 4.016-.08 6.176-.385 20.1-.91 47.628 32.605 59.245a2.797 2.797 0 001.834 0C68.044 68.228 67.52 40.7 67.136 20.6zM33.61 74.228C4.866 63.785 5.3 40.912 5.686 20.706c.023-1.213.046-2.388.061-3.54 11.216-.474 20.185-3.873 27.862-10.56 7.679 6.687 16.65 10.087 27.866 10.56.015 1.151.038 2.326.061 3.538.385 20.206.82 43.081-27.927 53.523z" fill="#000"/><path d="M43.252 30.273L29.737 43.787 23.97 38.02a2.8 2.8 0 00-3.96 3.96l7.747 7.747c.547.547 1.264.82 1.98.82a2.79 2.79 0 001.98-.82l15.495-15.494a2.8 2.8 0 10-3.96-3.96z" fill="#000"/></svg>