<svg xmlns="http://www.w3.org/2000/svg" viewBox="0 0 394 394"><path d="M384.9 170.9l-21.3-2c-2.5-8.6-5.9-16.8-10.4-24.6l13.5-16.3c3.3-4 3-9.7-.6-13.4l-26.6-26.9c-3.6-3.7-9.5-4-13.5-.7l-16.3 13.5c-7.7-4.4-16-7.9-24.5-10.4l-2-21.2c-.5-5.1-4.8-9-10-9H240v-30c0-5.5-4.5-10-10-10s-10 4.5-10 10v50h-37.8c-16.1 0-31.4 7.6-41.2 20.4l-41.2 54.3-69.3 18.9C12.5 178.4.1 194.7 0 213.4v26.5c.1 22.8 18.7 41.2 41.5 41.2h5.4c7.5 27.9 36.2 44.3 64.1 36.8 17.9-4.9 32-18.9 36.8-36.8H220v83c0 5.5 4.5 10 10 10s10-4.5 10-10v-24h33.2c5.2 0 9.5-3.9 10-9.1l2-21.3c8.6-2.5 16.8-5.9 24.6-10.3l16.3 13.5c4 3.3 9.8 3 13.4-.6l26.9-26.9c3.6-3.6 3.9-9.5.6-13.5l-13.5-16.3c4.4-7.8 7.9-16 10.4-24.5l21-2c5.1-.5 9.1-4.8 9.1-10v-38.3c0-5.1-4-9.4-9.1-9.9zM97.3 299.8c-17.8 0-32.3-14.5-32.3-32.3s14.5-32.3 32.3-32.3 32.3 14.5 32.3 32.3c0 17.8-14.4 32.3-32.3 32.3zM220 261h-70.8c-3.5-28.7-29.6-49-58.2-45.6-23.8 2.9-42.6 21.7-45.6 45.6h-4c-11.8.1-21.4-9.4-21.5-21.2v-26.4c.1-9.6 6.5-18 15.8-20.6l72.6-19.8c2.1-.6 4-1.8 5.3-3.6l43.4-56.9c6-7.9 15.4-12.5 25.3-12.5H220v161zm20-103.5c23.4-7.8 48.7 4.9 56.5 28.4s-4.9 48.7-28.4 56.5c-9.1 3-19 3-28.1 0v-84.9zm134 52.4l-19 1.8c-4.3.4-7.9 3.6-8.8 7.8-2.5 11.2-7 21.8-13.3 31.4-2.4 3.7-2.1 8.4.7 11.8l12.2 14.8-14 14-14.8-12.1c-3.4-2.8-8.2-3.1-11.9-.6-9.5 6.3-20.1 10.8-31.3 13.2-4.3.9-7.4 4.5-7.8 8.8l-1.8 19.2H240v-56.9c34.9 7.8 69.5-14.2 77.2-49.1 7.8-34.9-14.2-69.5-49.1-77.3-9.3-2.1-18.9-2.1-28.1 0V80h24.1l1.9 19.1c.4 4.3 3.6 7.9 7.8 8.8 11.2 2.5 21.8 7 31.4 13.2 3.7 2.4 8.4 2.1 11.8-.7l14.7-12.2 13.8 13.9-12.3 14.9c-2.8 3.4-3.1 8.2-.6 11.9 6.3 9.5 10.8 20.1 13.2 31.3 1 4.3 4.5 7.4 8.9 7.8l19.3 1.9v20z"/></svg>