<svg width="23" height="24" fill="none" xmlns="http://www.w3.org/2000/svg"><path d="M21.6 12.6h-2.143V.857c0-.514-.343-.857-.857-.857H.857C.343 0 0 .343 0 .857v20.829C0 22.629.686 24 2.314 24H20.23c1.285 0 2.314-.943 2.314-2.143v-8.314c-.086-.514-.429-.943-.943-.943zM2.314 22.286c-.428 0-.6-.257-.6-.6V1.714H17.83v19.972c0 .171 0 .343.085.6h-15.6zm18.515-.429h-.086c0 .429-.514.429-.6.429-.343 0-.6-.172-.6-.6v-7.372h1.286v7.543z" fill="#000"/><path d="M16.457 3H3.086c-.514 0-.857.343-.857.857v3.686c0 .514.342.857.857.857h13.371c.514 0 .857-.343.857-.857V3.857A.859.859 0 0016.457 3zM15.6 6.686H3.943V4.714H15.6v1.972zM8.229 15.6H3.086c-.514 0-.857.343-.857.857v3c0 .514.342.857.857.857h5.228c.515 0 .857-.343.857-.857v-3c-.085-.514-.428-.857-.942-.857zm-.772 3H3.943v-1.286h3.514V18.6zm9-8.914H3.086c-.514 0-.857.343-.857.857s.342.857.857.857h13.371c.514 0 .857-.343.857-.857a.859.859 0 00-.857-.857zm0 2.914H3.086c-.514 0-.857.343-.857.857s.342.857.857.857h13.371c.514 0 .857-.343.857-.857 0-.428-.428-.857-.857-.857zm0 3H11.23c-.515 0-.857.343-.857.857s.342.857.857.857h5.228c.514 0 .857-.343.857-.857a.859.859 0 00-.857-.857zm0 3H11.23c-.515 0-.857.343-.857.857s.342.857.857.857h5.228c.514 0 .857-.343.857-.857a.859.859 0 00-.857-.857z" fill="#000"/></svg>