<svg xmlns="http://www.w3.org/2000/svg" viewBox="0 0 450.048 450.048"><path d="M122.112 91.648c0-8.192-6.144-14.848-14.848-14.848s-14.848 7.168-14.848 15.36 6.656 14.848 14.848 14.848 14.848-7.168 14.848-15.36zm-25.6.512c0-6.144 5.12-10.752 10.752-10.752s10.24 5.12 10.24 10.752-4.096 10.24-10.24 10.24-10.752-4.096-10.752-10.24zM342.784 76.8c-8.192 0-14.848 7.168-14.848 15.36s6.656 14.848 14.848 14.848c8.704 0 15.36-6.144 15.36-14.848s-7.168-15.36-15.36-15.36zm0 25.6c-5.632 0-10.752-4.096-10.752-10.24s5.12-10.752 10.752-10.752c6.144 0 10.752 4.096 10.752 10.24s-5.12 10.752-10.752 10.752z"/><path d="M434.944 92.16c0-50.688-41.472-92.16-92.16-92.16-1.351 0-2.694.035-4.032.093A6.26 6.26 0 00337.664 0h-225.28c-.383 0-.749.032-1.098.094A92.533 92.533 0 00107.264 0c-50.688 0-92.16 40.96-92.16 91.648 0 47.77 36.836 87.348 83.504 91.747a4.919 4.919 0 002 .413l74.525 4.247c-7.12 6.526-11.549 15.927-11.549 26.472 0 19.968 16.384 35.84 35.84 35.84 4.776 0 9.364-.961 13.573-2.699L170.59 353.687c-4.475 8.959-7.005 19.072-7.005 29.801 0 36.864 30.208 66.56 66.56 66.56s66.56-29.696 66.56-66.56c0-9.924-2.169-19.32-6.034-27.766l-14.822-60.05c1.753.492 3.591.776 5.496.776 11.264 0 20.48-9.216 20.48-20.48 0-8.541-5.304-15.894-12.776-18.955l107.496-90.101c.39-.292.723-.66.995-1.076 22.654-16.685 37.404-43.449 37.404-73.676zm-411.136 0c0-46.08 37.376-83.456 83.456-83.456.447 0 .887.027 1.333.035.899.949 2.203 1.501 3.787 1.501h10.535c38.166 7.484 67.289 41.701 67.289 81.92 0 42.176-31.588 77.31-72.826 82.31l-15.75-.902c-1.544-.257-2.959.133-3.984.975-41.55-4.711-73.84-39.557-73.84-82.383zm175.616 148.48c-14.336 0-26.112-11.776-26.112-26.112 0-12.309 8.684-22.723 20.214-25.424l5.898.336c1.008 0 2.013-.321 2.864-.862 13.007 1.443 23.248 12.581 23.248 25.95a25.87 25.87 0 01-.669 5.819 5.421 5.421 0 00-1.891 2.373l-3.273 8.182c-4.802 5.925-12.124 9.738-20.279 9.738zm30.72 200.704c-31.744 0-57.344-25.6-57.344-57.344 0-4.86.606-9.574 1.736-14.076.888-.572 1.58-1.482 1.848-2.82l5.895-14.737c10.248-15.506 27.829-25.711 47.865-25.711 21.555 0 40.666 12.196 50.443 30.187l1.269 5.141c.296 1.481 1.285 2.606 2.457 3.302A56.7 56.7 0 01287.488 384c0 31.744-25.6 57.344-57.344 57.344zm51.2-176.128c6.656 0 11.264 5.12 11.264 11.264 0 6.144-5.12 11.264-11.264 11.264-3.316 0-6.325-1.499-8.401-3.838l-1.327-5.378c-.194-.969-.756-1.791-1.517-2.411a11.08 11.08 0 011.356-4.972c.713-.197 1.39-.502 1.697-.809l5.781-4.845a10.926 10.926 0 012.411-.275zm-10.117-7.018c-6.172 3.538-10.363 10.182-10.363 17.77 0 2.994.667 5.834 1.835 8.404l12.312 49.879c-11.818-10.769-27.551-17.323-44.867-17.323-14.42 0-27.731 4.559-38.609 12.298l38.339-95.847a35.485 35.485 0 005.39-18.851c0-19.968-15.872-35.84-35.84-35.84-1.415 0-2.806.088-4.175.243l-50.829-2.912c32.318-14.212 55.004-46.373 55.004-83.859 0-35.55-20.401-66.564-50.073-81.92h151.136c-29.558 15.242-49.863 45.942-49.863 81.408 0 50.688 41.472 92.16 92.16 92.16a92.62 92.62 0 0020.341-2.255l-91.898 76.645zm121.432-100.244c-1.014.101-2.001.508-2.771 1.278l-3.856 3.216a82.814 82.814 0 01-43.248 12.144c-45.568 0-82.432-36.352-82.432-82.432 0-41.611 30.064-75.698 69.45-81.92h7.862c1.258 0 2.33-.358 3.175-.975.649-.015 1.293-.049 1.945-.049 46.08 0 82.944 37.376 82.944 82.944 0 26.896-13.027 50.753-33.069 65.794z"/><path d="M419.072 90.624l-9.728-10.24 5.632-13.312c.512-1.024 0-2.56-1.024-3.072l-12.8-6.144 1.024-13.824c.512-1.024-.512-2.56-2.048-2.56l-13.824-1.536-3.584-13.312c-.512-1.024-1.536-2.048-3.072-1.536l-13.312 3.584-8.192-11.264c-1.024-1.024-2.56-1.024-3.584-.512l-11.776 7.68-11.264-7.68c-1.024-1.024-2.56-.512-3.584.512l-8.192 11.264-13.312-3.584c-1.536-.512-2.56 0-3.072 1.536l-3.584 13.312-13.824 1.536c-1.024 0-2.048 1.024-2.048 2.56l1.024 13.824-12.8 6.144c-1.024.512-1.536 2.048-1.024 3.072l5.632 12.8-9.728 10.24c-1.024 1.024-1.024 2.56 0 3.584l9.728 10.24-5.632 12.8c-.512 1.024 0 2.56 1.024 3.072l12.8 6.144-1.024 13.824c-.512 1.024.512 2.56 2.048 2.56l13.824 1.536 3.584 13.312c.512 1.024 1.536 2.048 3.072 1.536l13.312-3.072 8.192 11.264c.512.512 1.024 1.024 2.048 1.024.512 0 1.024-.512 1.024-1.024l11.776-7.68 11.776 8.192c1.024 1.024 2.56.512 3.584-.512l8.192-11.264 13.312 3.584c1.536.512 2.56 0 3.072-1.536l3.584-13.312 13.824-1.536c1.024 0 2.048-1.024 2.048-2.56l-1.024-13.824 12.8-6.144c1.024-.512 1.536-2.048 1.024-3.072l-5.632-12.8 9.728-10.24c1.024-1.024 1.024-2.56 0-3.584zm-14.336 11.264c-.512.512-1.024 1.536-.512 2.56l5.632 11.264-11.776 5.632c-1.024.512-1.536 1.536-1.536 2.56l1.024 13.312-13.312 1.536c-1.024.512-1.536 1.024-2.048 2.048l-3.584 12.8-13.312-3.072c-1.024 0-2.048 0-2.56 1.024l-7.68 10.752-10.752-7.68c-.512-.512-1.024-.512-1.536-.512s-1.024 0-1.536 1.024l-10.752 7.68-7.68-10.752c-.512-1.024-1.536-1.536-2.56-1.024l-12.8 3.072-3.584-12.8c0-1.024-1.024-2.048-2.048-2.048l-13.312-1.536 1.024-13.312c0-1.024-.512-2.048-1.536-2.56l-11.776-5.632 5.632-12.288c.512-.512 0-2.048-.512-2.56l-9.216-9.216 9.216-9.728c.512-.512 1.024-1.536.512-2.56l-5.632-12.288L288 62.976c1.024-.512 1.536-1.536 1.536-2.56l-1.024-13.312 13.312-1.536c1.024-.512 1.536-1.024 2.048-2.048l3.584-12.8 13.824 3.072c1.024 0 2.048 0 2.56-1.024l7.68-10.752 10.752 7.68c.512.512 1.536.512 2.56 0l10.752-7.68 7.68 10.752c.512 1.024 1.536 1.536 2.56 1.024l12.8-3.072 3.584 11.776c0 1.024 1.024 2.048 2.048 2.048l13.312 1.536-1.024 13.312c0 1.024.512 2.048 1.536 2.56l11.776 5.632-5.632 12.288c-.512 1.024 0 2.048.512 3.584l9.216 9.216-9.216 9.216zm-297.472 57.344l10.752 7.68c1.024 1.024 2.56.512 3.584-.512l8.192-11.264 13.312 3.584c1.536.512 2.56 0 3.072-1.536l3.584-13.312 13.824-1.536c1.024 0 2.048-1.024 2.048-2.56l-1.024-13.824 12.8-6.144c1.024-.512 1.536-2.048 1.024-3.072l-5.632-12.8 9.728-10.24c1.024-1.024 1.024-2.56 0-3.584l-9.728-10.24 5.632-12.8c.512-1.024 0-2.56-1.024-3.072l-12.8-6.144 1.024-13.824c.512-1.024-.512-2.56-2.048-2.56l-13.824-1.536-3.584-13.312c-.512-1.024-1.536-2.048-3.072-1.536l-13.312 3.584-8.192-11.264c-1.024-1.024-2.56-1.024-3.584-.512l-11.264 7.68-11.264-7.68c-1.024-1.024-2.56-.512-3.584.512l-8.192 11.264L70.4 25.088c-1.536-.512-2.56 0-3.072 1.536l-3.584 13.312-13.824 1.536c-1.024 0-2.048 1.024-2.048 2.56l1.024 13.824L36.096 64c-1.024.512-1.536 2.048-1.024 3.072l5.632 12.8-9.728 10.24c-1.024 1.024-1.024 2.56 0 3.584l9.728 10.24-5.632 12.8c-.512 1.024 0 2.56 1.024 3.072l12.8 6.144-1.024 13.824c-.512 1.024.512 2.56 2.048 2.56l13.824 1.536 3.584 13.312c.512 1.024 1.536 2.048 3.072 1.536l13.312-3.072 8.192 11.264c.512.512 1.024 1.024 2.048 1.024.512 0 1.024-.512 1.536-1.024l11.776-7.68zm-20.48-7.68c-.512-1.024-1.536-1.536-2.56-1.024l-12.8 3.072-3.584-12.288c0-1.024-1.024-2.048-2.048-2.048l-13.312-1.536 1.024-13.312c0-1.024-.512-2.048-1.536-2.56l-11.776-5.632 5.632-12.288c.512-.512 0-2.048-.512-2.56l-9.216-9.216 9.216-8.704c.512-.512 1.024-1.536.512-2.56l-5.632-12.288 11.776-5.632c1.024-.512 1.536-1.536 1.536-2.56L52.48 47.104l13.312-1.536c1.024-.512 1.536-1.024 2.048-2.048l3.584-12.8 12.8 3.072c1.024 0 2.048 0 2.56-1.024l8.704-10.752 10.752 7.68c.512.512 1.536.512 2.56 0l10.752-7.68 7.68 10.752c.512 1.024 1.536 1.536 2.56 1.024l12.8-3.072 3.584 12.288c0 1.024 1.024 2.048 2.048 2.048l13.312 1.024-1.024 13.312c0 1.024.512 2.048 1.536 2.56l11.776 5.632-5.632 12.288c-.512.512 0 2.048.512 2.56l9.216 9.216-9.216 9.216c-.512.512-1.024 1.536-.512 2.56l5.632 12.288-11.776 5.632c-1.024.512-1.536 1.536-1.536 2.56l1.024 13.312-13.312 1.536c-1.024.512-1.536 1.024-2.048 2.048l-3.584 12.8-12.8-3.072c-1.024 0-2.048 0-2.56 1.024l-7.68 10.752-10.752-7.68c-.512-.512-1.024-.512-1.536-.512s-1.024 0-2.048.512l-10.752 7.68-7.68-10.752zm112.64 52.736c-5.632 0-10.24 4.608-10.24 10.24 0 5.632 4.608 10.24 10.24 10.24 5.12 0 10.24-4.608 10.24-10.24 0-5.632-4.608-10.24-10.24-10.24zm0 17.92c-4.096 0-7.168-3.072-7.168-7.168s3.072-7.168 7.168-7.168c3.584 0 7.168 3.072 7.168 7.168s-3.072 7.168-7.168 7.168zm30.72 148.48c-7.168 0-12.8 5.632-12.8 12.8s5.632 12.8 12.8 12.8c6.656 0 12.8-5.632 12.8-12.8s-5.632-12.8-12.8-12.8zm0 20.992c-4.096 0-7.68-3.584-7.68-7.68s3.584-7.68 7.68-7.68 7.68 3.584 7.68 7.68-3.584 7.68-7.68 7.68z"/><path d="M270.592 374.272l5.12-10.752c.512-.512.512-1.536 0-2.048 0-1.024-1.024-1.536-1.536-1.536l-11.776-2.56V345.6c0-1.024-.512-1.536-1.024-2.048s-1.536-.512-2.048-.512l-11.776 2.56-5.12-10.752c0-1.024-1.024-1.536-1.536-1.536s-1.536 0-2.048.512l-9.216 7.168-9.216-7.168c-.512-.512-1.536-.512-2.048-.512l-1.536 1.536-5.12 10.752-11.776-2.56h-2.048c-.512.512-1.024 1.536-1.024 2.048v11.776l-11.776 2.56-1.536 1.536c-.512.512-.512 1.536 0 2.048l5.12 10.752-9.216 7.68c-.512.512-1.024 1.024-1.024 2.048s.512 1.536 1.024 2.048l9.216 7.68-5.12 10.752c-.512.512-.512 1.536 0 2.048 0 1.024 1.024 1.536 1.536 1.536l11.776 2.56v11.776c0 1.024.512 1.536 1.024 2.048s1.536.512 2.048.512l11.776-2.56 5.12 10.752c0 1.024 1.024 1.536 1.536 1.536h.512c.512 0 1.024-.512 2.048-1.024l9.216-7.168 9.216 7.68c.512.512 1.536.512 2.048.512l1.536-1.536 5.12-10.752 11.776 2.56c.512 0 1.536 0 2.048-.512s1.024-1.536 1.024-2.048v-11.776l11.776-2.56 1.536-1.536c.512-.512.512-1.536 0-2.048l-5.12-10.752 8.704-7.168c.512-.512 1.024-1.024 1.024-2.048s-.512-1.536-1.024-2.048l-9.216-7.68zm-4.096 16.384c-.512 1.024-1.024 2.048-.512 3.072l4.608 9.728-10.752 2.56c-1.024.512-2.048 1.536-2.048 2.56v10.752l-10.752-2.56c-1.024 0-2.048.512-2.56 1.536l-4.608 9.728-8.704-6.656c-1.024-.512-2.048-.512-3.072 0l-8.704 6.656-4.608-9.728c-.512-1.024-1.024-1.536-2.048-1.536l-10.752 2.56v-10.752c0-1.536-1.024-2.048-2.048-2.56l-10.752-2.56 4.608-9.728c.512-1.024.512-2.56-.512-3.072L185.088 384l8.192-7.168c.512-1.024 1.024-2.048.512-3.072l-4.608-9.728 10.752-2.048c1.024-.512 2.048-1.536 2.048-2.56v-10.752l10.752 2.56c1.024 0 2.048-.512 2.56-1.536l4.608-9.728 8.192 6.656c1.024.512 2.048.512 3.072 0l8.704-6.656 4.608 9.728c.512 1.024 1.536 1.536 2.56 1.536l10.752-2.56v10.752c0 1.536 1.024 2.048 2.048 2.56l10.752 2.56-4.608 9.728c-.512 1.024-.512 2.56.512 3.072l8.192 6.656-8.192 6.656z"/><circle cx="132.864" cy="117.76" r="5.632"/><circle cx="81.664" cy="117.76" r="5.632"/><circle cx="132.864" cy="66.56" r="5.632"/><circle cx="81.664" cy="66.56" r="5.632"/><circle cx="368.384" cy="117.76" r="5.632"/><circle cx="317.184" cy="117.76" r="5.632"/><circle cx="368.384" cy="66.56" r="5.632"/><circle cx="317.184" cy="66.56" r="5.632"/></svg>