<svg width="40" height="36" fill="none" xmlns="http://www.w3.org/2000/svg"><path d="M21.172 26.352v-3.813a4.705 4.705 0 003.37-3.375l9.599.016v3.508a1.172 1.172 0 002.343 0V9.648A4.696 4.696 0 0040 5.11 4.693 4.693 0 0035.312.422a4.693 4.693 0 00-4.687 4.687 4.696 4.696 0 003.516 4.54v7.187l-9.604-.016a4.705 4.705 0 00-3.365-3.36V9.65a4.696 4.696 0 003.515-4.54A4.693 4.693 0 0020 .422a4.693 4.693 0 00-4.688 4.687 4.696 4.696 0 003.516 4.54v3.812a4.705 4.705 0 00-3.367 3.367H5.859v-7.18A4.696 4.696 0 009.375 5.11 4.693 4.693 0 004.687.422 4.693 4.693 0 000 5.109a4.696 4.696 0 003.516 4.54V26.35A4.696 4.696 0 000 30.891a4.693 4.693 0 004.688 4.687 4.693 4.693 0 004.687-4.687 4.696 4.696 0 00-3.516-4.54v-7.18h9.602a4.705 4.705 0 003.367 3.368v3.812a4.696 4.696 0 00-3.515 4.54A4.693 4.693 0 0020 35.578a4.693 4.693 0 004.688-4.688 4.696 4.696 0 00-3.516-4.538zM32.969 5.109a2.346 2.346 0 012.343-2.343 2.346 2.346 0 012.344 2.343 2.346 2.346 0 01-2.343 2.344 2.346 2.346 0 01-2.344-2.344zm-30.625 0a2.346 2.346 0 012.344-2.343A2.346 2.346 0 017.03 5.109a2.346 2.346 0 01-2.343 2.344A2.346 2.346 0 012.344 5.11zM7.03 30.891a2.346 2.346 0 01-2.343 2.343 2.346 2.346 0 01-2.344-2.343 2.346 2.346 0 012.344-2.344A2.346 2.346 0 017.03 30.89zM17.656 5.109A2.346 2.346 0 0120 2.766a2.346 2.346 0 012.344 2.343A2.346 2.346 0 0120 7.453a2.346 2.346 0 01-2.344-2.344zm0 12.891A2.347 2.347 0 0120 15.656 2.347 2.347 0 0122.344 18 2.347 2.347 0 0120 20.344 2.347 2.347 0 0117.656 18zM20 33.234a2.346 2.346 0 01-2.344-2.343A2.346 2.346 0 0120 28.547a2.346 2.346 0 012.344 2.344A2.346 2.346 0 0120 33.234z" fill="#000"/><path d="M35.31 25.324h-2.34c-.646 0-1.171.525-1.171 1.172v7.91a1.172 1.172 0 002.344 0v-2.05h1.085c.647 0 1.172.525 1.172 1.171v.88a1.172 1.172 0 002.344 0c-.061-.484.275-1.87-.858-3.177 2.082-2.242.48-5.906-2.576-5.906zm-1.167 4.688v-2.344h1.167a1.173 1.173 0 010 2.344h-1.167z" fill="#000"/></svg>