<svg xmlns="http://www.w3.org/2000/svg" viewBox="0 0 512 512"><path d="M203.233 125.103c-78.377 0-142.142 63.764-142.142 142.141 0 21.596 4.722 42.342 14.034 61.656a8.012 8.012 0 0010.698 3.738 8.013 8.013 0 003.738-10.698c-8.257-17.127-12.444-35.529-12.444-54.697 0-69.54 56.575-126.115 126.116-126.115s126.116 56.575 126.116 126.115c0 69.541-56.575 126.116-126.116 126.116-36.708 0-71.527-15.955-95.529-43.775a8.013 8.013 0 10-12.134 10.47c27.049 31.351 66.291 49.332 107.663 49.332 78.377 0 142.142-63.765 142.142-142.142S281.61 125.103 203.233 125.103z"/><path d="M304.26 238.466c-2.029-7.142-7.127-12.92-13.985-15.854-6.934-2.964-14.73-2.648-21.393.871l-40.742 21.511a33.642 33.642 0 00-2.657-2.657l21.541-40.695a24.765 24.765 0 00.892-21.39c-2.927-6.863-8.702-11.968-15.845-14.006-18.65-5.32-38.927-5.329-57.58-.028-7.142 2.029-12.92 7.127-15.853 13.986a24.77 24.77 0 00.87 21.391l21.498 40.719a33.741 33.741 0 00-2.707 2.708l-40.671-21.528a24.773 24.773 0 00-21.389-.893c-6.863 2.927-11.968 8.703-14.006 15.847a105.092 105.092 0 00-4.016 28.839c0 9.76 1.342 19.429 3.987 28.739 2.029 7.142 7.127 12.92 13.985 15.854a24.9 24.9 0 009.795 2.016 24.82 24.82 0 0011.598-2.886l40.743-21.511a33.753 33.753 0 002.712 2.704l-21.515 40.647a24.765 24.765 0 00-.892 21.39c2.927 6.863 8.702 11.968 15.845 14.006a105.09 105.09 0 0028.838 4.016c9.761 0 19.43-1.342 28.741-3.988 7.142-2.029 12.92-7.127 15.853-13.986a24.77 24.77 0 00-.87-21.391l-21.524-40.768a33.617 33.617 0 002.652-2.66l40.671 21.529a24.814 24.814 0 0011.62 2.898c3.308 0 6.627-.667 9.769-2.005 6.863-2.927 11.968-8.703 14.006-15.847a105.092 105.092 0 004.016-28.839c0-9.76-1.342-19.429-3.987-28.739zm-174.16 58.37a8.813 8.813 0 01-7.608.308c-1.406-.602-3.909-2.116-4.87-5.499a89.09 89.09 0 01-3.377-24.359 89.155 89.155 0 013.4-24.444c.966-3.387 3.473-4.9 4.882-5.5a8.8 8.8 0 017.605.315l40.669 21.528a33.36 33.36 0 00.009 16.157l-40.71 21.494zm43.583-102.725a8.803 8.803 0 01-.308-7.607c.602-1.406 2.116-3.911 5.499-4.872 15.799-4.487 33.01-4.478 48.803.024 3.387.966 4.9 3.473 5.5 4.881a8.803 8.803 0 01-.315 7.607l-21.532 40.678a33.357 33.357 0 00-16.156-.008l-21.491-40.703zm46.945 73.133c0 9.592-7.803 17.395-17.395 17.395-9.592 0-17.395-7.803-17.395-17.395 0-9.591 7.803-17.394 17.395-17.394 9.592 0 17.395 7.804 17.395 17.394zm12.237 73.134a8.803 8.803 0 01.308 7.607c-.602 1.406-2.116 3.91-5.499 4.871-15.797 4.491-33.008 4.481-48.803-.023-3.387-.966-4.9-3.473-5.5-4.881a8.803 8.803 0 01.315-7.607l21.523-40.661a33.374 33.374 0 0016.157-.026l21.499 40.72zm55.956-48.73c-.966 3.387-3.473 4.9-4.882 5.5a8.796 8.796 0 01-7.605-.315l-40.67-21.528a33.369 33.369 0 00-.008-16.158l40.71-21.493a8.81 8.81 0 017.608-.308c1.406.602 3.909 2.116 4.87 5.499a89.09 89.09 0 013.377 24.359 89.155 89.155 0 01-3.4 24.444zM496.135 57.361H479.98c-2.198-10.389-11.434-18.212-22.468-18.212-12.666 0-22.971 10.304-22.971 22.971v175.666h-27.997a8.008 8.008 0 00-5.93 2.625 8.01 8.01 0 00-2.046 6.154c.595 6.191.896 12.428.896 18.54a8.012 8.012 0 008.013 8.013 8.012 8.012 0 008.013-8.013c0-3.734-.103-7.509-.31-11.293h19.682c1.763 10.926 11.234 19.306 22.65 19.306 11.416 0 20.887-8.38 22.65-19.306h15.973c8.749 0 15.865-7.117 15.865-15.864V73.226c0-8.748-7.117-15.865-15.865-15.865zm-31.679 192.788a6.952 6.952 0 01-6.945 6.944c-3.829 0-6.945-3.114-6.945-6.944V62.12a6.953 6.953 0 016.945-6.945 6.953 6.953 0 016.945 6.945v188.029zm31.518-12.363h-15.492V73.387h15.492v164.399z"/><path d="M207.745 73.386c1.236 0 2.466.024 3.696.048.341-.003.687-.01 1.027-.048h195.899c4.426 0 8.013-3.587 8.013-8.013s-3.587-8.013-8.013-8.013H211.596c-.247 0-.492.011-.735.033a170.024 170.024 0 00-3.118-.033c-55.491 0-107.66 21.609-146.898 60.848C21.608 157.447-.001 209.616 0 265.107c0 55.648 21.566 107.86 60.726 147.019 39.159 39.159 91.372 60.725 147.02 60.725 49.26 0 97.027-17.548 134.501-49.413 37.046-31.5 61.979-75.094 70.207-122.75a8.016 8.016 0 00-6.533-9.261c-4.363-.744-8.507 2.172-9.26 6.532-7.59 43.968-30.602 84.194-64.796 113.268-34.58 29.404-78.66 45.597-124.12 45.597-51.367 0-99.555-19.899-135.688-56.03-36.132-36.132-56.031-84.32-56.031-135.687 0-51.21 19.942-99.355 56.153-135.567 36.211-36.211 84.356-56.154 135.566-56.154z"/></svg>