<svg width="130.000000" height="130.000000" viewBox="0 0 130 130" fill="none" xmlns="http://www.w3.org/2000/svg" xmlns:xlink="http://www.w3.org/1999/xlink">
	<desc>
			Created with Pixso.
	</desc>
	<defs/>
	<path id="Vector" d="M125.64 71.87L105.29 71.87L105.29 59.5L123.27 49.51C124.65 48.74 125.5 47.28 125.5 45.7L125.5 39.61C125.5 38.05 124.7 36.65 123.36 35.86C123.17 35.75 122.98 35.66 122.78 35.58L115.21 11.49C114.36 8.79 112.25 6.65 109.57 5.75L92.62 0.1C92.61 0.1 92.61 0.1 92.6 0.1C92.56 0.08 92.51 0.07 92.46 0.06C92.44 0.06 92.42 0.05 92.39 0.04C92.36 0.04 92.32 0.03 92.28 0.02C92.25 0.02 92.21 0.01 92.18 0.01C92.15 0.01 92.13 0 92.1 0C92.06 0 92.01 0 91.96 0C91.96 0 91.95 0 91.95 0L85.08 0C82.85 0 81 1.64 80.77 3.82C79.9 11.89 73.12 17.96 65 17.96C56.87 17.96 50.09 11.89 49.22 3.82C48.99 1.64 47.14 0 44.91 0L38.04 0C38.04 0 38.03 0 38.03 0C37.98 0 37.93 0 37.89 0C37.86 0 37.84 0.01 37.81 0.01C37.78 0.01 37.74 0.02 37.71 0.02C37.67 0.03 37.63 0.04 37.6 0.04C37.57 0.05 37.55 0.06 37.53 0.06C37.48 0.07 37.43 0.08 37.39 0.1C37.38 0.1 37.38 0.1 37.37 0.1L20.42 5.75C17.74 6.65 15.63 8.79 14.78 11.49L7.21 35.58C7.01 35.66 6.82 35.75 6.63 35.86C5.29 36.65 4.49 38.05 4.49 39.61L4.49 45.7C4.49 47.28 5.34 48.74 6.73 49.51L24.7 59.5L24.7 71.87L4.35 71.87C1.95 71.87 0 73.83 0 76.23L0 103.18C0 105.58 1.95 107.53 4.35 107.53L24.7 107.53L24.7 116.66C24.7 118.29 25.61 119.72 26.95 120.46L26.95 125.64C26.95 128.04 28.9 130 31.3 130L98.69 130C101.09 130 103.04 128.04 103.04 125.64L103.04 120.46C104.38 119.72 105.29 118.29 105.29 116.66L105.29 107.53L125.64 107.53C128.04 107.53 130 105.58 130 103.18L130 76.23C130 73.83 128.04 71.87 125.64 71.87ZM121.29 45.7C121.29 45.75 121.26 45.8 121.22 45.83L105.29 54.68L105.29 48.26L121.03 39.52C121.07 39.52 121.11 39.53 121.15 39.53C121.18 39.53 121.22 39.52 121.26 39.52C121.29 39.55 121.29 39.59 121.29 39.61L121.29 45.7L121.29 45.7ZM118.53 36.09L105.29 43.45L105.29 34.25C105.29 32.55 105.6 30.9 106.21 29.32L111.84 14.82L118.53 36.09ZM44.91 4.21C44.99 4.21 45.03 4.25 45.04 4.27C46.14 14.48 54.72 22.18 65 22.18C75.27 22.18 83.85 14.48 84.95 4.27C84.96 4.25 85 4.21 85.08 4.21L89.76 4.21C88.68 16.93 77.99 26.95 65 26.95C52 26.95 41.31 16.93 40.24 4.21L44.91 4.21ZM18.15 14.82L23.78 29.32C24.39 30.9 24.7 32.55 24.7 34.25L24.7 43.45L11.46 36.09L18.15 14.82ZM8.77 45.83C8.73 45.8 8.7 45.75 8.7 45.7L8.7 39.61C8.7 39.59 8.7 39.55 8.74 39.52C8.77 39.52 8.81 39.53 8.84 39.53C8.88 39.53 8.92 39.52 8.96 39.52L24.7 48.26L24.7 54.68L8.77 45.83ZM28.91 58.28C28.91 58.28 28.91 58.27 28.91 58.27L28.91 47.05C28.91 47.05 28.91 47.04 28.91 47.04L28.91 34.25C28.91 32.03 28.51 29.86 27.71 27.79L20.86 10.16C21.14 10 21.44 9.85 21.76 9.75L36.08 4.98C37.52 19.66 49.94 31.16 65 31.16C80.05 31.16 92.47 19.66 93.91 4.97L108.24 9.75C108.55 9.85 108.85 10 109.13 10.16L102.28 27.79C101.48 29.86 101.08 32.03 101.08 34.25L101.08 47.04C101.08 47.04 101.08 47.05 101.08 47.05L101.08 58.27C101.08 58.27 101.08 58.28 101.08 58.28L101.08 71.87L28.91 71.87L28.91 58.28ZM98.69 125.78L31.3 125.78C31.23 125.78 31.16 125.72 31.16 125.64L31.16 121.01L98.83 121.01L98.83 125.64C98.83 125.72 98.77 125.78 98.69 125.78ZM101.08 116.66C101.08 116.74 101.01 116.8 100.93 116.8L29.06 116.8C28.98 116.8 28.91 116.74 28.91 116.66L28.91 107.53L101.08 107.53L101.08 116.66ZM125.78 103.18C125.78 103.26 125.72 103.32 125.64 103.32L4.35 103.32C4.27 103.32 4.21 103.26 4.21 103.18L4.21 76.23C4.21 76.15 4.27 76.09 4.35 76.09L17.97 76.09L17.97 80.72C17.97 81.88 18.91 82.82 20.07 82.82C21.23 82.82 22.18 81.88 22.18 80.72L22.18 76.09L29.2 76.09L29.2 85.21C29.2 86.37 30.14 87.32 31.3 87.32C32.47 87.32 33.41 86.37 33.41 85.21L33.41 76.09L40.43 76.09L40.43 80.72C40.43 81.88 41.37 82.82 42.53 82.82C43.7 82.82 44.64 81.88 44.64 80.72L44.64 76.09L51.66 76.09L51.66 80.72C51.66 81.88 52.6 82.82 53.76 82.82C54.93 82.82 55.87 81.88 55.87 80.72L55.87 76.09L62.89 76.09L62.89 85.21C62.89 86.37 63.83 87.32 65 87.32C66.16 87.32 67.1 86.37 67.1 85.21L67.1 76.09L74.12 76.09L74.12 80.72C74.12 81.88 75.06 82.82 76.23 82.82C77.39 82.82 78.33 81.88 78.33 80.72L78.33 76.09L85.35 76.09L85.35 80.72C85.35 81.88 86.29 82.82 87.46 82.82C88.62 82.82 89.56 81.88 89.56 80.72L89.56 76.09L96.58 76.09L96.58 85.21C96.58 86.37 97.53 87.32 98.69 87.32C99.85 87.32 100.79 86.37 100.79 85.21L100.79 76.09L107.81 76.09L107.81 80.72C107.81 81.88 108.76 82.82 109.92 82.82C111.08 82.82 112.03 81.88 112.03 80.72L112.03 76.09L125.64 76.09C125.72 76.09 125.78 76.15 125.78 76.23L125.78 103.18Z" fill="#FFFFFF" fill-opacity="1.000000" fill-rule="nonzero"/>
</svg>
