<svg width="100.000000" height="100.000000" viewBox="0 0 100 100" fill="none" xmlns="http://www.w3.org/2000/svg" xmlns:xlink="http://www.w3.org/1999/xlink">
	<desc>
			Created with Pixso.
	</desc>
	<defs/>
	<path id="Vector" d="M98.77 31.89C98 31.3 97.01 31.11 96.06 31.35L75.71 36.78C77.32 32.83 78.12 29.57 78.12 26.92C78.12 12.07 65.5 0 50 0C34.49 0 21.87 12.07 21.87 26.92C21.87 29.57 22.67 32.83 24.28 36.78L3.93 31.35C2.99 31.1 1.99 31.3 1.22 31.89C0.45 32.48 0 33.4 0 34.37L0 90.62C0 92.04 0.95 93.28 2.31 93.64L25.75 99.89C26.01 99.96 26.27 99.99 26.53 99.99C26.54 99.99 26.55 100 26.55 100L26.56 100L26.56 100C26.57 100 26.58 99.99 26.58 99.99C26.84 99.99 27.1 99.96 27.36 99.89L50 93.85L72.63 99.89C72.89 99.96 73.15 99.99 73.41 99.99C73.41 99.99 73.42 100 73.43 100L73.43 100L73.44 100C73.44 100 73.45 99.99 73.46 99.99C73.72 99.99 73.98 99.96 74.24 99.89L97.68 93.64C99.04 93.28 100 92.04 100 90.62L100 34.37C100 33.4 99.54 32.48 98.77 31.89ZM25 93.22L6.25 88.22L6.25 38.44L25 43.44L25 93.22ZM48.43 87.8L28.12 93.22L28.12 44.77C35.53 58.45 47.01 73.13 47.54 73.8C47.6 73.89 47.71 73.92 47.78 74C47.88 74.1 47.94 74.24 48.06 74.33C48.18 74.42 48.31 74.46 48.43 74.53L48.43 87.8ZM71.87 93.22L51.56 87.8L51.56 74.53C51.68 74.45 51.81 74.42 51.93 74.33C52.05 74.23 52.11 74.1 52.21 73.99C52.28 73.92 52.39 73.88 52.45 73.8C52.98 73.13 64.46 58.45 71.87 44.77L71.87 93.22ZM68.06 38.54C68.06 38.55 68.06 38.55 68.06 38.55C62.97 48.89 54.23 61.04 50 66.71C45.76 61.04 37.03 48.89 31.93 38.55C31.93 38.55 31.93 38.54 31.93 38.54C28.78 32.16 28.12 28.7 28.12 26.92C28.12 15.52 37.94 6.25 50 6.25C62.05 6.25 71.87 15.52 71.87 26.92C71.87 28.7 71.21 32.16 68.06 38.54ZM93.75 88.22L75 93.22L75 43.44L93.75 38.44L93.75 88.22Z" fill="#FFFFFF" fill-opacity="1.000000" fill-rule="nonzero"/>
	<path id="Vector" d="M50 17.18C44.14 17.18 39.37 21.89 39.37 27.67C39.37 33.46 44.14 38.16 50 38.16C55.85 38.16 60.62 33.46 60.62 27.67C60.62 21.89 55.85 17.18 50 17.18ZM50 31.91C47.58 31.91 45.62 30.01 45.62 27.67C45.62 25.34 47.58 23.43 50 23.43C52.41 23.43 54.37 25.34 54.37 27.67C54.37 30.01 52.41 31.91 50 31.91Z" fill="#FFFFFF" fill-opacity="1.000000" fill-rule="nonzero"/>
</svg>
