<svg width="55" height="55" fill="none" xmlns="http://www.w3.org/2000/svg"><circle cx="27.5" cy="27.5" r="27.5" fill="#4D6424"/><path d="M34.832 29.78c-.06-.03-2.287-1.126-2.683-1.269a1.543 1.543 0 00-.519-.114c-.3 0-.553.15-.75.444-.223.33-.896 1.118-1.105 1.353-.027.031-.064.068-.086.068a7.7 7.7 0 01-.47-.187c-2.389-1.038-4.203-3.534-4.451-3.955-.036-.06-.037-.088-.038-.088a.762.762 0 01.131-.154c.121-.12.253-.279.38-.431.06-.073.12-.146.18-.214.184-.215.266-.381.362-.575l.05-.1c.232-.462.034-.852-.03-.978-.053-.105-.994-2.375-1.094-2.613-.24-.576-.558-.844-1-.844-.04 0 0 0-.172.007-.209.01-1.348.16-1.852.477-.534.337-1.438 1.41-1.438 3.298 0 1.7 1.078 3.304 1.541 3.914l.064.092c1.773 2.59 3.983 4.508 6.224 5.403 2.157.862 3.179.962 3.76.962.244 0 .439-.02.611-.037l.11-.01c.745-.066 2.383-.915 2.755-1.95.294-.815.371-1.706.176-2.03-.134-.22-.364-.33-.656-.47z" fill="#fff"/><path d="M27.771 12.222c-8.275 0-15.008 6.682-15.008 14.895 0 2.656.711 5.257 2.058 7.532l-2.578 7.604a.397.397 0 00.496.506l7.929-2.52a15.109 15.109 0 007.103 1.771c8.275 0 15.007-6.68 15.007-14.893 0-8.213-6.732-14.895-15.007-14.895zm0 26.686a11.89 11.89 0 01-6.541-1.95.396.396 0 00-.338-.047l-3.972 1.263 1.282-3.783a.397.397 0 00-.055-.362 11.63 11.63 0 01-2.263-6.912c0-6.503 5.332-11.793 11.887-11.793 6.554 0 11.886 5.29 11.886 11.793 0 6.501-5.332 11.79-11.886 11.79z" fill="#fff"/></svg>