<svg width="81" height="80" viewBox="0 0 81 80" fill="none" xmlns="http://www.w3.org/2000/svg">
<path d="M80.1481 42.6696L75.401 35.1816L78.2168 26.778C78.598 25.6311 78.123 24.3716 77.0761 23.7716L69.3943 19.3432L67.9818 10.5927C67.7849 9.39883 66.7786 8.50815 65.5722 8.45815L56.7123 8.11125L51.3964 1.01707C50.6713 0.0482581 49.3587 -0.273636 48.2743 0.24827L40.2707 4.05475L32.264 0.245145C31.1764 -0.270511 29.8701 0.0513834 29.1419 1.01707L23.8259 8.11125L14.966 8.45815C13.7628 8.50502 12.7534 9.3957 12.5596 10.5895L11.147 19.3401L3.46532 23.7685C2.41838 24.3685 1.94023 25.6279 2.3215 26.7749L5.1373 35.1785L0.393262 42.6696C-0.253653 43.6915 -0.0880179 45.026 0.78391 45.8635L7.18117 51.9983L6.46238 60.8301C6.3655 62.0395 7.12805 63.1427 8.28749 63.4802L16.8036 65.9335L20.2695 74.0934C20.7445 75.2028 21.9352 75.8466 23.1165 75.5904L31.8045 73.809L38.6612 79.425C39.1269 79.8031 39.6988 80 40.2707 80C40.8426 80 41.4114 79.8031 41.8802 79.425L48.7368 73.809L57.4249 75.5904C58.6031 75.8404 59.8 75.206 60.2719 74.0934L63.7377 65.9335L72.2539 63.4802C73.4133 63.1459 74.1759 62.0395 74.079 60.8301L73.3602 51.9983L79.7575 45.8635C80.6294 45.026 80.795 43.6915 80.1481 42.6696ZM58.6374 30.447L40.852 57.0924C40.1801 58.0862 39.1394 58.7518 38.1049 58.7518C37.0736 58.7518 35.9204 58.1737 35.186 57.4361L22.129 44.1697C21.2383 43.2634 21.2383 41.7945 22.129 40.8882L25.351 37.6068C26.2417 36.713 27.6887 36.713 28.5731 37.6068L37.0705 46.2386L51.0839 25.2435C51.787 24.1841 53.2152 23.9153 54.2528 24.631L58.0311 27.228C59.0718 27.9468 59.3406 29.3938 58.6374 30.447Z" fill="#030104"/>
</svg>
