<!-- icon666.com - MILLIONS vector ICONS FREE --><svg viewBox="0 0 64 64" xmlns="http://www.w3.org/2000/svg"><g id="Layer_10" data-name="Layer 10"><path d="m25 54a4.47 4.47 0 0 1 -3.18-1.32l-17.5-17.5a4.48 4.48 0 0 1 -1.32-3.18 4.43 4.43 0 0 1 1.35-3.18l17.47-17.5a4.5 4.5 0 1 1 6.36 6.36l-9.82 9.82h38.14a4.5 4.5 0 0 1 0 9h-38.14l9.82 9.82a4.5 4.5 0 0 1 -3.18 7.68zm0-42a2.49 2.49 0 0 0 -1.77.73l-17.48 17.48a2.51 2.51 0 0 0 -.75 1.79 2.45 2.45 0 0 0 .72 1.77l17.51 17.5a2.57 2.57 0 0 0 3.54 0 2.51 2.51 0 0 0 0-3.54l-11.53-11.52a1 1 0 0 1 .76-1.71h40.5a2.5 2.5 0 0 0 0-5h-40.5a1 1 0 0 1 -.71-1.71l11.48-11.52a2.5 2.5 0 0 0 -1.77-4.27z"></path></g></svg>