<svg width="50" height="50" viewBox="0 0 50 50" fill="none" xmlns="http://www.w3.org/2000/svg">
<path d="M42.6782 7.32187C37.9566 2.60029 31.6783 0 25 0C18.3217 0 12.0434 2.60029 7.32178 7.32187C2.60029 12.0434 0 18.3217 0 25C0 31.6783 2.60029 37.9566 7.32178 42.6781C12.0434 47.3997 18.3217 50 25 50C31.6783 50 37.9566 47.3997 42.6782 42.6781C47.3997 37.9566 50 31.6783 50 25C50 18.3217 47.3997 12.0434 42.6782 7.32187ZM41.5848 41.5848C37.1552 46.0142 31.2652 48.4536 25 48.4536C18.7348 48.4536 12.8448 46.0142 8.41523 41.5848C3.98574 37.1553 1.54639 31.2653 1.54639 25C1.54639 18.7347 3.98574 12.8447 8.41523 8.41523C12.8448 3.98584 18.7348 1.54639 25 1.54639C31.2652 1.54639 37.1552 3.98584 41.5848 8.41523C46.0143 12.8447 48.4536 18.7346 48.4536 25C48.4536 31.2654 46.0143 37.1553 41.5848 41.5848Z" fill="#EB2227"/>
<path d="M25 4.63916C22.1192 4.63916 19.3351 5.22978 16.7248 6.39443C14.2045 7.51894 11.9697 9.12051 10.0838 11.1533C6.57275 14.9206 4.63916 19.8383 4.63916 25C4.63916 30.1617 6.57275 35.0794 10.0827 38.8455C11.9699 40.8794 14.2046 42.4811 16.725 43.6056C19.3351 44.7702 22.1193 45.3608 25.0001 45.3608C27.8158 45.3608 30.5418 44.7964 33.1021 43.6833C35.5803 42.606 37.7871 41.0681 39.6589 39.115C43.3357 35.3153 45.3609 30.3025 45.3609 25C45.3608 13.7729 36.2271 4.63916 25 4.63916ZM38.5448 38.0424C34.9777 41.7645 30.1674 43.8145 25 43.8145C22.3378 43.8145 19.7656 43.2689 17.3551 42.1935C15.0262 41.1543 12.9608 39.6741 11.215 37.7926C7.97178 34.3123 6.18555 29.7691 6.18555 25C6.18555 20.2309 7.97178 15.6877 11.2163 12.2063C12.9608 10.326 15.0262 8.8457 17.3551 7.80654C19.7656 6.73106 22.3378 6.18555 25 6.18555C35.3743 6.18555 43.8145 14.6257 43.8145 25C43.8145 29.8991 41.9439 34.5299 38.5448 38.0424Z" fill="#EB2227"/>
<path d="M25.7731 7.47412H24.2268V12.1133H25.7731V7.47412Z" fill="#EB2227"/>
<path d="M25.7731 37.8867H24.2268V42.5259H25.7731V37.8867Z" fill="#EB2227"/>
<path d="M42.5258 24.2266H38.4021V25.7729H42.5258V24.2266Z" fill="#EB2227"/>
<path d="M11.5979 24.2266H7.47421V25.7729H11.5979V24.2266Z" fill="#EB2227"/>
<path d="M12.6596 12.5965L11.5661 13.6899L14.6591 16.783L15.7526 15.6895L12.6596 12.5965Z" fill="#EB2227"/>
<path d="M36.8261 12.5969L33.7331 15.6899L34.8265 16.7834L37.9195 13.6904L36.8261 12.5969Z" fill="#EB2227"/>
<path d="M34.8246 33.2156L33.7312 34.3091L36.8242 37.4021L37.9176 36.3086L34.8246 33.2156Z" fill="#EB2227"/>
<path d="M14.6611 33.2161L11.5681 36.3091L12.6615 37.4025L15.7545 34.3095L14.6611 33.2161Z" fill="#EB2227"/>
<path d="M25.7732 24.1645V14.6909H24.2268V24.805L31.6697 32.2479L32.7633 31.1545L25.7732 24.1645Z" fill="#EB2227"/>
</svg>
