<svg width="80" height="80" viewBox="0 0 80 80" fill="none" xmlns="http://www.w3.org/2000/svg">
<path d="M68.2852 11.715C60.7306 4.16047 50.6853 0 40 0C29.3147 0 19.2694 4.16047 11.7148 11.715C4.16047 19.2694 0 29.3147 0 40C0 50.6853 4.16047 60.7306 11.7148 68.285C19.2694 75.8395 29.3147 80 40 80C50.6853 80 60.7306 75.8395 68.2852 68.285C75.8395 60.7306 80 50.6853 80 40C80 29.3147 75.8395 19.2694 68.2852 11.715ZM66.5356 66.5356C59.4483 73.6227 50.0244 77.5258 40 77.5258C29.9756 77.5258 20.5517 73.6227 13.4644 66.5356C6.37719 59.4484 2.47422 50.0245 2.47422 40C2.47422 29.9755 6.37719 20.5516 13.4644 13.4644C20.5517 6.37734 29.9756 2.47422 40 2.47422C50.0244 2.47422 59.4483 6.37734 66.5356 13.4644C73.6228 20.5516 77.5258 29.9753 77.5258 40C77.5258 50.0247 73.6228 59.4484 66.5356 66.5356Z" fill="black"/>
<path d="M40 7.42285C35.3908 7.42285 30.9361 8.36785 26.7597 10.2313C22.7272 12.0305 19.1516 14.593 16.1341 17.8455C10.5164 23.8732 7.42267 31.7414 7.42267 40.0002C7.42267 48.2589 10.5164 56.1272 16.1324 62.153C19.1519 65.4072 22.7274 67.9699 26.76 69.7691C30.9361 71.6325 35.3909 72.5775 40.0002 72.5775C44.5053 72.5775 48.8669 71.6744 52.9634 69.8935C56.9284 68.1697 60.4594 65.7091 63.4542 62.5843C69.3372 56.5047 72.5775 48.4843 72.5775 40.0002C72.5774 22.0369 57.9633 7.42285 40 7.42285ZM61.6717 60.868C55.9644 66.8235 48.2678 70.1033 40 70.1033C35.7405 70.1033 31.625 69.2305 27.7681 67.5097C24.0419 65.8471 20.7374 63.4788 17.9441 60.4683C12.7549 54.8999 9.89689 47.6308 9.89689 40.0002C9.89689 32.3696 12.7549 25.1005 17.9461 19.5302C20.7374 16.5218 24.0419 14.1533 27.7681 12.4907C31.625 10.7699 35.7405 9.89707 40 9.89707C56.5989 9.89707 70.1031 23.4013 70.1031 40.0002C70.1031 47.8388 67.1103 55.248 61.6717 60.868Z" fill="black"/>
<path d="M41.237 11.9587H38.7628V19.3814H41.237V11.9587Z" fill="black"/>
<path d="M41.237 60.6189H38.7628V68.0415H41.237V60.6189Z" fill="black"/>
<path d="M68.0412 38.7627H61.4433V41.2369H68.0412V38.7627Z" fill="black"/>
<path d="M18.5567 38.7627H11.9587V41.2369H18.5567V38.7627Z" fill="black"/>
<path d="M20.2553 20.1548L18.5058 21.9043L23.4546 26.8531L25.2041 25.1036L20.2553 20.1548Z" fill="black"/>
<path d="M58.9217 20.1557L53.9729 25.1045L55.7225 26.854L60.6713 21.9052L58.9217 20.1557Z" fill="black"/>
<path d="M55.7194 53.1455L53.9699 54.895L58.9187 59.8438L60.6682 58.0943L55.7194 53.1455Z" fill="black"/>
<path d="M23.4577 53.1459L18.5089 58.0947L20.2584 59.8442L25.2073 54.8954L23.4577 53.1459Z" fill="black"/>
<path d="M41.2372 38.6627V23.5049H38.7628V39.6874L50.6716 51.5961L52.4213 49.8466L41.2372 38.6627Z" fill="black"/>
</svg>
