<svg width="55" height="55" viewBox="0 0 55 55" fill="none" xmlns="http://www.w3.org/2000/svg">
<circle cx="27.5" cy="27.5" r="27.5" fill="#4D6424"/>
<path d="M41.4652 17.5098L27.6434 27.7905L13.8216 17.5098L12.2695 19.5963L27.6434 31.0315L43.0173 19.5963L41.4652 17.5098Z" fill="white"/>
<path d="M40.3853 15.8887H14.9007C12.7499 15.8887 11 17.6385 11 19.7894V36.4324C11 38.5833 12.7499 40.3331 14.9007 40.3331H40.3853C42.5362 40.3331 44.2861 38.5833 44.2861 36.4324V19.7894C44.2861 17.6385 42.5362 15.8887 40.3853 15.8887ZM41.6856 36.4324C41.6856 37.1494 41.1023 37.7326 40.3853 37.7326H14.9007C14.1838 37.7326 13.6005 37.1494 13.6005 36.4324V19.7894C13.6005 19.0724 14.1838 18.4891 14.9007 18.4891H40.3853C41.1023 18.4891 41.6856 19.0724 41.6856 19.7894V36.4324Z" fill="white"/>
</svg>
