<svg width="48" height="48" viewBox="0 0 48 48" fill="none" xmlns="http://www.w3.org/2000/svg">
<path d="M47.2617 46.6562C47.2617 46.6562 47.2617 24.6055 47.2617 17.2617C47.2617 16.959 46.8809 16.5781 46.5098 16.2949L38.8242 10.7188V4.55664C38.8242 3.95117 38.3164 3.54102 37.8086 3.54102H29.0488L24.5859 0.289062C24.2832 0.0839844 23.7754 0.0839844 23.4629 0.289062L19 3.54102H10.2402C9.63477 3.54102 9.22461 4.04883 9.22461 4.55664V10.6504L1.44141 16.3047C0.982422 16.5879 0.689453 16.959 0.689453 17.2715C0.689453 24.6641 0.689453 46.8613 0.689453 46.8613C0.689453 47.4375 1.14844 47.8379 1.62695 47.877C1.65625 47.877 1.67578 47.877 1.70508 47.877H46.2363C46.8906 47.8672 47.2617 47.3594 47.2617 46.6562ZM45.3281 19.0879V44.8301L28.5215 31.373L45.3281 19.0879ZM44.5762 17.3008L38.8242 21.4902V13.0723L44.5762 17.3008ZM23.9805 2.21289L25.7676 3.53125H22.1836L23.9805 2.21289ZM36.793 5.57227V22.9746L23.9805 32.3105L11.168 22.9746V5.57227H36.793ZM2.63281 19.0879L19.4395 31.373L2.63281 44.9082V19.0879ZM9.23438 21.5684L3.33594 17.2715L9.23438 12.9844V21.5684ZM4.45898 45.9336L21.0703 32.5645L23.3652 34.2441C23.8047 34.5762 24.1367 34.5762 24.5859 34.2441L26.8809 32.5645L43.5898 45.9336H4.45898Z" fill="#EB2227"/>
<path d="M30.8945 10.5527H17.1738V12.4863H30.8945V10.5527Z" fill="#EB2227"/>
<path d="M30.8945 16.7539H17.1738V18.6875H30.8945V16.7539Z" fill="#EB2227"/>
<path d="M30.8945 22.9551H17.1738V24.8887H30.8945V22.9551Z" fill="#EB2227"/>
</svg>
