<!-- icon666.com - MILLIONS vector ICONS FREE --><svg version="1.1" id="Capa_1" xmlns="http://www.w3.org/2000/svg" xmlns:xlink="http://www.w3.org/1999/xlink" x="0px" y="0px" viewBox="0 0 512 512" style="enable-background:new 0 0 512 512;" xml:space="preserve"><g><g><path d="M504.767,117.652l-25.958-37.953c-2.341-3.421-5.873-5.726-9.946-6.49c-4.073-0.762-8.202,0.104-11.622,2.443 l-10.752,7.353c-3.421,2.34-5.727,5.872-6.491,9.946c-0.765,4.073,0.104,8.201,2.443,11.623l0.871,1.274l-15.38,10.37 l-11.576-16.925c-6.346-9.275-19.054-11.662-28.331-5.316l-28.421,19.439l-8.423-12.533c-1.392-2.07-3.722-3.313-6.217-3.316 L327.5,97.549V80.423c8.029-2.018,14-9.277,14-17.923c0-4.123-1.372-7.921-3.66-11c2.288-3.079,3.66-6.877,3.66-11 c0-1.197-0.124-2.365-0.342-3.5H347c10.201,0,18.5-8.299,18.5-18.5S357.201,0,347,0H165c-10.201,0-18.5,8.299-18.5,18.5 S154.799,37,165,37h5.842c-0.218,1.135-0.342,2.303-0.342,3.5c0,4.123,1.372,7.921,3.66,11c-2.288,3.079-3.66,6.877-3.66,11 c0,8.647,5.971,15.906,14,17.923v16.984l-16.642-0.017h-0.008c-2.488,0-4.815,1.234-6.21,3.295l-8.817,13.022l-28.849-19.731 c-9.274-6.344-21.985-3.96-28.33,5.316l-11.576,16.925l-15.38-10.37l0.871-1.274c2.34-3.422,3.208-7.55,2.443-11.623 c-0.765-4.074-3.07-7.606-6.492-9.946l-10.75-7.353c-3.422-2.34-7.549-3.206-11.623-2.443c-4.073,0.765-7.605,3.069-9.946,6.49 L7.233,117.654c-4.828,7.062-3.012,16.736,4.05,21.567l10.75,7.353c2.674,1.828,5.721,2.704,8.738,2.704 c4.954,0,9.828-2.362,12.831-6.751l0.561-0.82l15.256,10.553l-14.972,21.891c-6.345,9.276-3.959,21.985,5.316,28.33l29.358,20.079 l-13.299,19.642c-1.582,2.336-1.719,5.361-0.355,7.83l101.587,183.976c1.318,2.389,3.83,3.872,6.559,3.875l8.889,0.008v34.291 c0,10.377,8.441,18.818,18.818,18.818h26.965c2.929,12.036,13.793,21,26.717,21s23.788-8.964,26.717-21h26.965 c10.377,0,18.818-8.441,18.818-18.818v-34.161l8.586,0.008h0.007c2.728,0,5.241-1.481,6.563-3.868l20.685-37.375L452.066,396 c0.017,0,0.033-0.003,0.049-0.003c18.418-0.063,33.384-15.064,33.384-33.497c0-13.988-8.621-25.995-20.827-31.003l-35.793-53.135 l16.557-29.916c1.362-2.462,1.232-5.479-0.338-7.815l-12.168-18.105l29.307-20.044c9.275-6.345,11.661-19.054,5.316-28.331 l-14.971-21.89l15.256-10.553l0.561,0.82c3.003,4.39,7.876,6.751,12.831,6.751c3.018,0,6.064-0.876,8.737-2.704l10.752-7.353 C507.779,134.391,509.596,124.716,504.767,117.652z M165,22c-1.93,0-3.5-1.57-3.5-3.5s1.57-3.5,3.5-3.5h182 c1.93,0,3.5,1.57,3.5,3.5S348.93,22,347,22H165z M189,66c-1.93,0-3.5-1.57-3.5-3.5s1.57-3.5,3.5-3.5h134c1.93,0,3.5,1.57,3.5,3.5 S324.93,66,323,66H189z M312.5,81v16h-113V81H312.5z M323,44H189c-1.93,0-3.5-1.57-3.5-3.5s1.57-3.5,3.5-3.5h134 c1.93,0,3.5,1.57,3.5,3.5S324.93,44,323,44z M36.062,126.981c-0.001,0.001-0.001,0.001-0.002,0.002 c-0.001,0.001-0.001,0.002-0.002,0.003l-4.837,7.072c-0.163,0.235-0.486,0.293-0.721,0.135l-10.75-7.353 c-0.235-0.161-0.297-0.485-0.136-0.72l25.958-37.953c0.029-0.043,0.121-0.177,0.332-0.216c0.037-0.008,0.071-0.011,0.103-0.011 c0.151,0,0.249,0.066,0.286,0.092l10.75,7.353c0.236,0.161,0.297,0.484,0.136,0.72L36.062,126.981z M52.63,129.327l7.59-11.097 l15.381,10.37l-7.715,11.28L52.63,129.327z M58.232,190.101c-2.45-1.676-3.079-5.032-1.404-7.481l51.198-74.857 c1.041-1.522,2.732-2.342,4.451-2.342c1.046,0,2.104,0.304,3.03,0.938l27.748,18.979l-57.275,83.74L58.232,190.101z M255,497 c-4.51,0-8.458-2.409-10.657-6h21.313C263.458,494.591,259.51,497,255,497z M312.5,472.182c0,2.105-1.713,3.818-3.818,3.818 H201.318c-2.105,0-3.818-1.713-3.818-3.818v-12.607H262c4.143,0,7.5-3.357,7.5-7.5s-3.357-7.5-7.5-7.5h-64.5V438l115,0.007 V472.182z M354.454,381.863l-84.564,0.748c16.2-12.928,26.609-32.821,26.609-55.111c0-38.874-31.626-70.5-70.5-70.5 c-8.822,0-17.264,1.644-25.054,4.616l39.017-68.391C245.752,218.269,268.222,237,295,237c28.156,0,51.562-20.703,55.808-47.684 l60.503,89.815L354.454,381.863z M226.036,382.999h-0.053c-30.595-0.009-55.483-24.903-55.483-55.5 c0-30.603,24.897-55.5,55.5-55.5c30.603,0,55.5,24.897,55.5,55.5C281.5,358.091,256.622,382.98,226.036,382.999z M253.5,180.5 c0-22.883,18.617-41.5,41.5-41.5s41.5,18.617,41.5,41.5S317.883,222,295,222S253.5,203.383,253.5,180.5z M470.5,362.5 c0,10.201-8.299,18.5-18.5,18.5s-18.5-8.299-18.5-18.5S441.799,344,452,344S470.5,352.299,470.5,362.5z M445.352,329.665 c-15.298,3.093-26.852,16.639-26.852,32.835c0,6.939,2.121,13.392,5.749,18.745l-52.566,0.465l49.039-88.608L445.352,329.665z M455.173,182.618c1.675,2.45,1.046,5.807-1.404,7.482l-27.748,18.978l-16.388-23.961c-2.856-4.176-8.788-4.777-12.419-1.253 c-0.05,0.049-0.1,0.097-0.15,0.145c-2.835,2.75-3.296,7.134-1.092,10.413l34.121,50.771l-10.625,19.197l-75.704-112.382 c-0.005-0.007-0.011-0.014-0.016-0.021C333.927,135.261,315.759,124,295,124c-20.764,0-38.936,11.267-48.756,28.001 c-0.106,0.157-0.212,0.314-0.308,0.481L171.733,282.55c-10.132,12.21-16.233,27.88-16.233,44.95 c0,38.873,31.625,70.499,70.498,70.5h0.068l120.045-1.062l-14.438,26.087c-0.094-0.003,0.001-0.003-0.094-0.003l-153.533-0.134 L80.818,246.806l91.009-134.411l169.13,0.168l29.548,43.966c2.837,4.221,8.821,4.802,12.417,1.206 c2.749-2.749,3.15-7.065,0.956-10.273l-15.133-22.126l27.747-18.979c2.451-1.674,5.808-1.046,7.482,1.404l15.753,23.032 L455.173,182.618z M444.114,139.879l-7.715-11.28l15.38-10.37l7.59,11.097L444.114,139.879z M492.251,126.841l-10.752,7.353 c-0.234,0.158-0.558,0.101-0.72-0.135l-4.837-7.072c-0.001-0.001-0.001-0.002-0.002-0.003c0-0.001-0.001-0.001-0.002-0.002 l-21.117-30.875c-0.161-0.235-0.101-0.559,0.135-0.72l10.752-7.353c0.043-0.031,0.171-0.128,0.388-0.081 c0.211,0.039,0.303,0.173,0.332,0.216l25.957,37.951C492.547,126.355,492.485,126.68,492.251,126.841z"></path></g></g><g><g><path d="M295,153c-15.163,0-27.5,12.337-27.5,27.5c0,15.163,12.337,27.5,27.5,27.5c15.163,0,27.5-12.337,27.5-27.5 C322.5,165.337,310.163,153,295,153z M295,193c-6.893,0-12.5-5.607-12.5-12.5S288.108,168,295,168c6.892,0,12.5,5.607,12.5,12.5 S301.893,193,295,193z"></path></g></g><g><g><path d="M226,294c-18.472,0-33.5,15.028-33.5,33.5S207.528,361,226,361s33.5-15.028,33.5-33.5S244.472,294,226,294z M226,346 c-10.201,0-18.5-8.299-18.5-18.5S215.799,309,226,309s18.5,8.299,18.5,18.5S236.201,346,226,346z"></path></g></g><g><g><circle cx="452" cy="362.5" r="8.5"></circle></g></g></svg>