<!-- icon666.com - MILLIONS vector ICONS FREE --><svg version="1.1" id="Capa_1" xmlns="http://www.w3.org/2000/svg" xmlns:xlink="http://www.w3.org/1999/xlink" x="0px" y="0px" viewBox="0 0 511.999 511.999" style="enable-background:new 0 0 511.999 511.999;" xml:space="preserve"><g><g><path d="M504.5,213.923h-15.875l-4.35-12.869c-1.03-3.047-3.889-5.098-7.105-5.098h-31.379c-4.143,0-7.5,3.358-7.5,7.5v16.965 h-23.377c-0.387-9.578-7.845-17.359-17.295-18.224v-68.276c9.705-0.889,17.334-9.065,17.334-18.998v-7.097 c0-10.524-8.563-19.087-19.087-19.087h-54.425v-10.96c0-4.142-3.357-7.5-7.5-7.5h-52.636c-4.143,0-7.5,3.358-7.5,7.5v10.96 h-56.324c-10.524,0-19.087,8.563-19.087,19.087v7.097c0,10.524,8.562,19.087,19.087,19.087h0.146v10.568 c0,4.142,3.358,7.5,7.5,7.5c4.142,0,7.5-3.358,7.5-7.5V134.01h149.992v68.098H232.627v-23.352c0-4.142-3.358-7.5-7.5-7.5 c-4.142,0-7.5,3.358-7.5,7.5v23.352h-0.146c-10.263,0-18.637,8.149-19.048,18.313h-25.61 c-1.319-11.201-7.568-21.479-17.374-27.724c-3.493-2.225-8.131-1.196-10.355,2.297c-2.225,3.494-1.196,8.13,2.297,10.355 c7.689,4.897,11.798,13.87,10.467,22.86l-12.833,86.686c-0.728,4.913-5.021,8.618-9.988,8.618c-4.967,0-9.26-3.705-9.988-8.618 l-12.833-86.686c-1.27-8.577,2.333-17.06,9.401-22.138c3.364-2.417,4.132-7.103,1.716-10.467 c-2.416-3.363-7.104-4.132-10.467-1.715c-9.504,6.828-15.2,17.4-15.839,28.749h-28.38v-5.43c0-8.326-6.773-15.1-15.1-15.1H33.32 c-8.326,0-15.1,6.774-15.1,15.1v5.43H7.5c-4.142,0-7.5,3.358-7.5,7.5v65.214c0,4.142,3.358,7.5,7.5,7.5h10.72v5.43 c0,8.326,6.774,15.1,15.1,15.1h20.228c8.326,0,15.1-6.774,15.1-15.1v-5.43h39.458l2.108,14.24 c1.808,12.212,12.48,21.421,24.826,21.421c10.166,0,19.184-6.251,23.066-15.275h35.355v46.849c0,4.142,3.358,7.5,7.5,7.5h17.928 c-6.665,5.486-15.103,8.644-23.977,8.644h-24.444c-15.298,0-27.744,12.446-27.744,27.744c0,15.298,12.446,27.745,27.744,27.745 h24.444c4.403,0,8.748-0.331,13.02-0.937c0.192,0.063,0.385,0.124,0.584,0.172c2.116,0.508,4.299,0.765,6.489,0.765h24.444 c4.391,0,8.724-0.329,12.984-0.931c0.068,0.02,0.133,0.045,0.202,0.063c2.249,0.576,4.573,0.869,6.909,0.869h24.443 c4.392,0,8.727-0.329,12.988-0.932c0.081,0.024,0.159,0.053,0.241,0.075c2.235,0.569,4.544,0.857,6.864,0.857h24.444 c40.287,0,76.098-26.162,88.574-64.133h7.561c4.143,0,7.5-3.358,7.5-7.5v-46.849h6.131v16.969c0,4.142,3.357,7.5,7.5,7.5h7.395 v23.054h-7.225c-4.143,0-7.5,3.358-7.5,7.5c0,4.142,3.357,7.5,7.5,7.5h7.225v4.028h-7.225c-4.143,0-7.5,3.358-7.5,7.5 c0,4.142,3.357,7.5,7.5,7.5h7.225v5.947c0,4.142,3.358,7.5,7.5,7.5h6.96v5.03h-33.832c-4.143,0-7.5,3.358-7.5,7.5 c0,4.142,3.357,7.5,7.5,7.5h41.332c4.143,0,7.5-3.358,7.5-7.5v-12.53h8.527c4.142,0,7.5-3.358,7.5-7.5v-63.029h5.827 c4.143,0,7.5-3.358,7.5-7.5V221.423C512,217.281,508.643,213.923,504.5,213.923z M18.22,287.851H15v-50.214h3.22V287.851z M53.648,308.281h-0.001c0,0.055-0.045,0.1-0.1,0.1H33.32c-0.055,0-0.1-0.045-0.1-0.1v-91.074c0-0.055,0.045-0.1,0.1-0.1h20.228 c0.055,0,0.1,0.045,0.1,0.1V308.281z M68.647,287.851v-50.214h29.804l0.916,6.185H84.091c-4.142,0-7.5,3.358-7.5,7.5 c0,4.142,3.358,7.5,7.5,7.5h17.497l0.815,5.507H84.091c-4.142,0-7.5,3.358-7.5,7.5c0,4.142,3.358,7.5,7.5,7.5h20.533l1.262,8.522 H68.647z M288.806,85.279h37.636v3.46h-37.636V85.279z M217.482,119.01c-2.254,0-4.087-1.834-4.087-4.087v-7.097 c0-2.253,1.833-4.087,4.087-4.087h178.384c2.254,0,4.087,1.834,4.087,4.087v7.097c0,2.253-1.833,4.087-4.087,4.087H217.482z M213.395,221.195c0-2.253,1.833-4.087,4.087-4.087h178.384c2.254,0,4.087,1.834,4.087,4.087v7.097 c0,2.253-1.833,4.087-4.087,4.087H217.482c-2.253,0-4.087-1.834-4.087-4.087V221.195z M173.09,308.238h-11.914l10.78-72.817h1.134 V308.238z M194.912,426.719h-24.445c-7.027,0-12.744-5.717-12.744-12.745c0-7.027,5.717-12.744,12.744-12.744h24.444 c17.73,0,34.236-8.969,43.979-23.644h28.632C255.758,406.894,227.035,426.719,194.912,426.719z M245.9,426.451 c17.343-11.357,30.858-28.39,37.585-48.864h28.573C301.088,404.917,275.372,424.001,245.9,426.451z M290.439,426.451 c17.342-11.357,30.856-28.389,37.584-48.864h28.574C345.626,404.917,319.91,424.001,290.439,426.451z M334.976,426.451 c17.342-11.356,30.857-28.389,37.585-48.864h28.574C390.164,404.917,364.448,424.001,334.976,426.451z M438.291,308.238h-6.131 v-45.493c0-4.142-3.357-7.5-7.5-7.5h-25.321c-4.143,0-7.5,3.358-7.5,7.5c0,4.142,3.357,7.5,7.5,7.5h17.821v92.342h-208.7v-67.57 h6.468v2.365c0,4.142,3.358,7.5,7.5,7.5h25.643c4.142,0,7.5-3.358,7.5-7.5v-2.365h7.681v2.365c0,4.142,3.357,7.5,7.5,7.5h25.642 c4.143,0,7.5-3.358,7.5-7.5v-2.365h15.369c2.124,0,4.149-0.901,5.571-2.479l20.092-22.293h20.332c4.143,0,7.5-3.358,7.5-7.5 c0-4.142-3.357-7.5-7.5-7.5H341.59c-2.124,0-4.149,0.901-5.571,2.479l-20.092,22.293h-12.032v-2.737 c0-9.212-7.495-16.707-16.707-16.707h-7.227c-9.213,0-16.708,7.495-16.708,16.707v2.737h-7.681v-2.737 c0-9.212-7.495-16.707-16.707-16.707h-7.228c-9.212,0-16.708,7.495-16.708,16.707v2.737H200.96c-4.142,0-7.5,3.358-7.5,7.5v20.721 h-5.37v-72.817h11.7c2.831,7.001,9.689,11.958,17.692,11.958h178.384c8.003,0,14.861-4.957,17.692-11.958h24.733V308.238z M229.928,289.882v-12.603c0-0.941,0.766-1.707,1.708-1.707h7.228c0.941,0,1.707,0.766,1.707,1.707v12.603H229.928z M278.252,289.882v-12.603c0-0.941,0.767-1.707,1.708-1.707h7.227c0.941,0,1.707,0.766,1.707,1.707v12.603H278.252z M483.673,403.236h-15.487v-55.529h15.487V403.236z M497,332.706h-43.709v-27.824H497V332.706z M497,289.882h-43.709v-31.06H497 V289.882z M497,243.822h-43.709v-32.867h18.497l4.35,12.869c1.03,3.047,3.889,5.098,7.105,5.098H497V243.822z"></path></g></g><g><g><path d="M231.201,335.814h-0.15c-4.142,0-7.5,3.358-7.5,7.5c0,4.142,3.358,7.5,7.5,7.5h0.15c4.142,0,7.5-3.358,7.5-7.5 C238.701,339.172,235.343,335.814,231.201,335.814z"></path></g></g><g><g><path d="M272.776,335.814h-0.149c-4.143,0-7.5,3.358-7.5,7.5c0,4.142,3.357,7.5,7.5,7.5h0.149c4.143,0,7.5-3.358,7.5-7.5 C280.276,339.172,276.919,335.814,272.776,335.814z"></path></g></g><g><g><path d="M314.353,335.814h-0.149c-4.143,0-7.5,3.358-7.5,7.5c0,4.142,3.357,7.5,7.5,7.5h0.149c4.143,0,7.5-3.358,7.5-7.5 C321.853,339.172,318.495,335.814,314.353,335.814z"></path></g></g><g><g><path d="M355.929,335.814h-0.15c-4.143,0-7.5,3.358-7.5,7.5c0,4.142,3.357,7.5,7.5,7.5h0.15c4.143,0,7.5-3.358,7.5-7.5 C363.429,339.172,360.071,335.814,355.929,335.814z"></path></g></g><g><g><path d="M397.504,335.814h-0.149c-4.143,0-7.5,3.358-7.5,7.5c0,4.142,3.357,7.5,7.5,7.5h0.149c4.143,0,7.5-3.358,7.5-7.5 C405.004,339.172,401.647,335.814,397.504,335.814z"></path></g></g><g><g><path d="M288.097,143.935h-0.15c-4.143,0-7.5,3.358-7.5,7.5c0,4.142,3.358,7.5,7.5,7.5h0.15c4.142,0,7.5-3.358,7.5-7.5 C295.597,147.293,292.239,143.935,288.097,143.935z"></path></g></g><g><g><path d="M328.436,143.935h-0.149c-4.143,0-7.5,3.358-7.5,7.5c0,4.142,3.358,7.5,7.5,7.5h0.149c4.143,0,7.5-3.358,7.5-7.5 C335.936,147.293,332.579,143.935,328.436,143.935z"></path></g></g><g><g><path d="M288.097,175.831h-0.15c-4.143,0-7.5,3.358-7.5,7.5c0,4.142,3.358,7.5,7.5,7.5h0.15c4.142,0,7.5-3.358,7.5-7.5 C295.597,179.189,292.239,175.831,288.097,175.831z"></path></g></g><g><g><path d="M328.436,175.831h-0.149c-4.143,0-7.5,3.358-7.5,7.5c0,4.142,3.358,7.5,7.5,7.5h0.149c4.143,0,7.5-3.358,7.5-7.5 C335.936,179.189,332.579,175.831,328.436,175.831z"></path></g></g><g><g><path d="M403.953,286.89h-51.961c-4.142,0-7.5,3.358-7.5,7.5c0,4.142,3.357,7.5,7.5,7.5h51.961c4.143,0,7.5-3.358,7.5-7.5 C411.453,290.247,408.096,286.89,403.953,286.89z"></path></g></g></svg>