<svg width="71" height="80" viewBox="0 0 71 80" fill="none" xmlns="http://www.w3.org/2000/svg">
<path d="M48.5119 52.857C57.0248 39.4988 55.9547 41.1653 56.2 40.817C59.2994 36.4455 60.9375 31.3003 60.9375 25.9375C60.9375 11.7156 49.3967 0 35.1562 0C20.9622 0 9.375 11.6925 9.375 25.9375C9.375 31.2969 11.0475 36.5767 14.2484 41.0072L21.8003 52.8572C13.7261 54.098 0 57.7956 0 65.9375C0 68.9055 1.93719 73.1352 11.1659 76.4311C17.61 78.7325 26.1298 80 35.1562 80C52.0352 80 70.3125 75.2387 70.3125 65.9375C70.3125 57.7942 56.6025 54.1005 48.5119 52.857ZM18.1639 38.4289C18.1381 38.3886 18.1112 38.3492 18.0831 38.3105C15.4195 34.6461 14.0625 30.3033 14.0625 25.9375C14.0625 14.2159 23.5009 4.6875 35.1562 4.6875C46.7873 4.6875 56.25 14.2202 56.25 25.9375C56.25 30.3103 54.9186 34.5058 52.3991 38.0736C52.1733 38.3714 53.3512 36.5414 35.1562 65.092L18.1639 38.4289ZM35.1562 75.3125C16.7197 75.3125 4.6875 69.8933 4.6875 65.9375C4.6875 63.2788 10.87 58.907 24.57 57.203L33.1797 70.7128C33.61 71.3881 34.3553 71.7969 35.1561 71.7969C35.9569 71.7969 36.7023 71.388 37.1325 70.7128L45.742 57.203C59.4423 58.907 65.625 63.2788 65.625 65.9375C65.625 69.8597 53.7011 75.3125 35.1562 75.3125Z" fill="black"/>
<path d="M35.1562 14.2188C28.6945 14.2188 23.4375 19.4758 23.4375 25.9375C23.4375 32.3992 28.6945 37.6562 35.1562 37.6562C41.618 37.6562 46.875 32.3992 46.875 25.9375C46.875 19.4758 41.618 14.2188 35.1562 14.2188ZM35.1562 32.9688C31.2792 32.9688 28.125 29.8145 28.125 25.9375C28.125 22.0605 31.2792 18.9062 35.1562 18.9062C39.0333 18.9062 42.1875 22.0605 42.1875 25.9375C42.1875 29.8145 39.0333 32.9688 35.1562 32.9688Z" fill="black"/>
</svg>
