<!-- icon666.com - MILLIONS vector ICONS FREE --><svg enable-background="new 0 0 512 512" viewBox="0 0 512 512" xmlns="http://www.w3.org/2000/svg"><g id="_x32_140_x2C__Car_x2C__Maintenance_x2C__Repair_x2C__Service"><g><path d="m62.3 424.215c-5.633 0-10.195 4.567-10.195 10.195v4.417c0 14.429 11.739 26.168 26.167 26.168h29.225c14.429 0 26.168-11.739 26.168-26.168v-4.417c0-5.628-4.563-10.195-10.195-10.195s-10.195 4.567-10.195 10.195v4.417c0 3.188-2.59 5.777-5.777 5.777h-29.226c-3.188 0-5.777-2.59-5.777-5.777v-4.417c0-5.628-4.562-10.195-10.195-10.195z"></path><path d="m490.485 475.189h-468.965c-5.633 0-10.195 4.567-10.195 10.195 0 5.633 4.563 10.195 10.195 10.195h468.966c5.628 0 10.19-4.563 10.19-10.195 0-5.627-4.563-10.195-10.191-10.195z"></path><path d="m124.032 284.842c-16.355-2.72-31.147 9.906-31.147 26.386v4.677c0 14.752 12.003 26.75 26.755 26.75h28.05c14.752 0 26.755-11.998 26.755-26.75 0-13.133-9.403-24.229-22.357-26.392zm30.023 31.062c0 3.507-2.858 6.365-6.365 6.365h-28.05c-3.511 0-6.365-2.858-6.365-6.365v-4.677c0-3.646 3.003-6.364 6.315-6.364 1.026 0-.189-.09 29.146 4.766 3.082.514 5.319 3.153 5.319 6.275z"></path><path d="m306.975 240.709c5.629 0 10.2-4.562 10.2-10.195s-4.571-10.195-10.2-10.195h-16.166l-27.602-27.597c-3.975-3.979-10.43-3.984-14.414 0-3.984 3.979-3.984 10.434 0 14.418l13.179 13.178h-21.262l-27.527-36.701c-3.376-4.502-9.767-5.418-14.273-2.037-4.503 3.377-5.414 9.767-2.037 14.27l18.353 24.469h-71.366c-5.633 0-10.195 4.563-10.195 10.195s4.562 10.195 10.195 10.195z"></path><path d="m21.52 250.904h38.375l8.915 4.458c-.409.284-.812.577-1.245.841-9.682 5.927-15.459 15.888-15.459 26.646v120.976c0 5.633 4.563 10.194 10.195 10.194h193.705c5.628 0 10.19-4.562 10.19-10.194 0-5.628-4.563-10.195-10.19-10.195h-183.511v-110.78c0-3.606 2.137-7.063 5.717-9.259 9.976-6.106 16.974-15.47 19.708-26.362l32.338-128.86h207.308c5.628 0 10.189-4.562 10.189-10.195 0-5.628-4.562-10.195-10.189-10.195h-215.256c-4.672 0-8.751 3.182-9.892 7.714l-33.15 132.102-6.773-3.387v-44.675c0-7.257-7.396-12.207-14.115-9.408l-40.78 16.989c-3.8 1.584-6.275 5.294-6.275 9.413v33.982c-.001 5.633 4.562 10.195 10.195 10.195zm10.195-37.383 20.39-8.492v25.485h-20.39z"></path><path d="m123.47 16.419h20.39v20.39h-20.39z"></path><path d="m174.445 16.419h20.39v20.39h-20.39z"></path><path d="m225.415 16.419h20.39v20.39h-20.39z"></path><path d="m276.395 16.419h20.391v20.39h-20.391z"></path><path d="m327.365 16.419h20.39v20.39h-20.39z"></path><path d="m459.905 318.953v-144.305c24.663-11.704 40.771-36.766 40.771-64.482 0-25.38-13.667-49.053-35.67-61.788-3.148-1.828-7.043-1.833-10.2-.01-3.158 1.823-5.101 5.19-5.101 8.831v45.621l-20.39 6.793-20.39-6.793v-45.621c0-3.641-1.943-7.008-5.101-8.831-3.157-1.818-7.042-1.818-10.2.01-22.004 12.735-35.67 36.407-35.67 61.788 0 27.716 16.117 52.778 40.78 64.482v144.305c-24.663 11.709-40.78 36.771-40.78 64.481 0 25.381 13.666 49.058 35.67 61.793 3.148 1.823 7.043 1.828 10.2.005 3.157-1.818 5.101-5.185 5.101-8.83v-45.616l20.39-6.799 20.39 6.799v45.616c0 3.646 1.942 7.012 5.101 8.83 3.188 1.838 7.072 1.803 10.2-.005 22.003-12.735 35.67-36.412 35.67-61.793 0-27.71-16.108-52.772-40.771-64.481zm10.191 95.012v-30.53c0-4.388-2.81-8.282-6.973-9.672l-30.58-10.195c-2.092-.697-4.354-.697-6.455 0l-30.58 10.195c-4.164 1.39-6.973 5.284-6.973 9.672v30.53c-6.504-8.695-10.189-19.384-10.189-30.53 0-21.561 13.656-40.874 33.977-48.062 4.074-1.439 6.803-5.289 6.803-9.612v-157.921c0-4.318-2.729-8.168-6.803-9.612-20.32-7.187-33.977-26.501-33.977-48.062 0-11.146 3.686-21.834 10.189-30.525v30.525c0 4.388 2.809 8.283 6.973 9.672l30.58 10.195c2.102.697 4.363.697 6.455 0l30.58-10.195c4.163-1.389 6.973-5.284 6.973-9.672v-30.525c6.504 8.691 10.199 19.379 10.199 30.525 0 21.56-13.666 40.875-33.986 48.062-4.074 1.444-6.793 5.294-6.793 9.612v157.92c0 4.323 2.719 8.173 6.793 9.612 20.32 7.188 33.986 26.501 33.986 48.062 0 11.147-3.695 21.836-10.199 30.531z"></path></g></g></svg>