<!-- icon666.com - MILLIONS vector ICONS FREE --><svg version="1.1" id="Layer_1" xmlns="http://www.w3.org/2000/svg" xmlns:xlink="http://www.w3.org/1999/xlink" x="0px" y="0px" viewBox="0 0 512 512" style="enable-background:new 0 0 512 512;" xml:space="preserve"><g><g><path d="M486.4,256V153.6c0-14.14-11.46-25.6-25.6-25.6H243.2v-25.6H320c7.074,0,12.8-5.726,12.8-12.8 c0-7.074-5.726-12.8-12.8-12.8H140.8c-7.074,0-12.8,5.726-12.8,12.8c0,7.074,5.726,12.8,12.8,12.8h76.8V128H76.8 c-14.14,0-25.6,11.46-25.6,25.6v89.6H25.6v-76.8c0-7.074-5.726-12.8-12.8-12.8c-7.074,0-12.8,5.726-12.8,12.8v179.2 c0,7.074,5.726,12.8,12.8,12.8c7.074,0,12.8-5.726,12.8-12.8v-76.8h25.6v89.6c0,14.14,11.46,25.6,25.6,25.6h91.793l43.699,43.699 c4.804,4.804,11.315,7.501,18.108,7.501h256c14.14,0,25.6-11.46,25.6-25.6v-128C512,267.46,500.54,256,486.4,256z M486.4,409.6 h-256l-51.2-51.2H76.8V153.6h384v128h25.6V409.6z"></path></g></g><g><g><path d="M140.8,179.2c-21.171,0-38.4,17.229-38.4,38.4s17.229,38.4,38.4,38.4s38.4-17.229,38.4-38.4 C179.2,196.429,161.971,179.2,140.8,179.2z M140.8,230.4c-7.066,0-12.8-5.734-12.8-12.8c0-7.074,5.734-12.8,12.8-12.8 c7.066,0,12.8,5.726,12.8,12.8C153.6,224.666,147.866,230.4,140.8,230.4z"></path></g></g><g><g><path d="M226.133,179.2c-21.171,0-38.4,17.229-38.4,38.4c0,21.171,17.229,38.4,38.4,38.4s38.4-17.229,38.4-38.4 C264.533,196.429,247.305,179.2,226.133,179.2z M226.133,230.4c-7.066,0-12.8-5.734-12.8-12.8c0-7.074,5.734-12.8,12.8-12.8 c7.074,0,12.8,5.726,12.8,12.8C238.933,224.666,233.207,230.4,226.133,230.4z"></path></g></g><g><g><path d="M311.467,179.2c-21.171,0-38.4,17.229-38.4,38.4s17.229,38.4,38.4,38.4s38.4-17.229,38.4-38.4 C349.867,196.429,332.638,179.2,311.467,179.2z M311.467,230.4c-7.074,0-12.8-5.734-12.8-12.8c0-7.074,5.734-12.8,12.8-12.8 s12.8,5.726,12.8,12.8C324.267,224.666,318.532,230.4,311.467,230.4z"></path></g></g><g><g><path d="M396.8,179.2c-21.171,0-38.4,17.229-38.4,38.4s17.229,38.4,38.4,38.4c21.171,0,38.4-17.229,38.4-38.4 C435.2,196.429,417.971,179.2,396.8,179.2z M396.8,230.4c-7.066,0-12.8-5.734-12.8-12.8c0-7.074,5.734-12.8,12.8-12.8 c7.066,0,12.8,5.726,12.8,12.8C409.6,224.666,403.866,230.4,396.8,230.4z"></path></g></g><g><g><rect x="102.4" y="307.2" width="358.4" height="25.6"></rect></g></g><g><g><circle cx="448" cy="371.2" r="12.8"></circle></g></g><g><g><circle cx="396.8" cy="371.2" r="12.8"></circle></g></g><g><g><circle cx="345.6" cy="371.2" r="12.8"></circle></g></g><g><g><circle cx="294.4" cy="371.2" r="12.8"></circle></g></g><g><g><circle cx="243.2" cy="371.2" r="12.8"></circle></g></g></svg>