<svg width="50" height="50" viewBox="0 0 50 50" fill="none" xmlns="http://www.w3.org/2000/svg">
<path d="M7.71376 0.00136951C6.85255 0.0274144 6.09595 0.481905 5.46273 1.11512L1.97179 4.59935C1.88863 4.67877 1.82217 4.77397 1.77632 4.87943C1.73047 4.98488 1.70615 5.09847 1.70479 5.21345C1.70343 5.32843 1.72505 5.44246 1.76839 5.54897C1.81173 5.65548 1.87591 5.75225 1.95716 5.83362C2.03842 5.91498 2.13511 5.9793 2.24156 6.02278C2.34801 6.06627 2.46208 6.08807 2.57706 6.08687C2.69205 6.08566 2.80563 6.06154 2.91115 6.01583C3.01666 5.97012 3.11198 5.90375 3.19151 5.8207L4.39273 4.61952L11.4386 11.8419C12.2388 12.7125 13.5228 11.4617 12.6734 10.639L5.61078 3.40144L6.67742 2.33478C7.11946 1.89274 7.47563 1.7346 7.76423 1.72575C8.05301 1.71598 8.40133 1.83449 8.90153 2.33478L16.304 9.73056C16.652 10.0785 16.652 10.5973 16.304 10.9453L12.31 14.9376C11.2991 15.9485 10.961 17.1205 11.0769 18.1056C11.1928 19.0906 11.6768 19.8593 12.0812 20.3817C13.6447 22.4012 16.0711 25.9481 20.0608 29.9378C24.0504 33.9274 27.599 36.3554 29.6184 37.9189C30.1409 38.3234 30.9097 38.8076 31.8947 38.9234C32.8797 39.0393 34.05 38.7009 35.0609 37.6901L36.2554 36.499L43.3147 43.7114C44.1118 44.6641 45.4786 43.3253 44.5429 42.5084L37.4701 35.2844L39.0549 33.7029C39.4029 33.3549 39.9216 33.3549 40.2696 33.7029L47.6637 41.0969C48.1639 41.5972 48.2833 41.9473 48.2744 42.2359C48.2646 42.5247 48.1058 42.8807 47.6637 43.3228L44.1795 46.807C42.7256 48.2607 40.8156 48.2757 39.6202 48.2757C35.1065 48.2757 27.0775 46.5811 15.2475 34.751C3.41746 22.921 1.72279 14.8937 1.72279 10.38C1.72279 9.94925 1.7202 9.4196 1.79342 8.85237C1.81734 8.73609 1.81696 8.61619 1.79231 8.50006C1.76767 8.38393 1.71928 8.27411 1.6502 8.17756C1.58112 8.08102 1.49282 7.99982 1.39086 7.93901C1.2889 7.87821 1.17547 7.83906 1.0577 7.82416C0.939917 7.80927 0.820331 7.81897 0.706443 7.85248C0.592554 7.88599 0.486821 7.94259 0.395879 8.01889C0.304936 8.0952 0.230747 8.18955 0.177967 8.29589C0.125187 8.40223 0.0949561 8.5183 0.0891703 8.63687C-3.44923e-05 9.33257 0 9.94563 0 10.3781C0 15.3385 1.98472 23.9158 14.0345 35.9655C26.0842 48.0153 34.6598 50 39.6202 50C40.819 50 43.416 50.013 45.4008 48.0282L48.8851 44.544C49.5183 43.9108 49.9723 43.1475 49.9988 42.2863C50.0249 41.4251 49.6014 40.5934 48.8851 39.8771L41.491 32.4813C40.4892 31.4796 38.8352 31.4796 37.8335 32.4813L33.8479 36.4753C33.136 37.1872 32.6023 37.2723 32.0915 37.2122C31.5807 37.1523 31.0611 36.8567 30.6749 36.5578C28.5693 34.9276 25.1584 32.594 21.2822 28.7178C17.4059 24.8416 15.0725 21.4307 13.4423 19.325C13.1434 18.9389 12.8479 18.4177 12.7878 17.9068C12.7276 17.396 12.82 16.8639 13.5314 16.1521L17.5187 12.1665C18.5204 11.1648 18.5204 9.51076 17.5187 8.509L10.1229 1.11492C9.40658 0.398558 8.57494 -0.0250986 7.71376 0.00136951Z" fill="#EB2227"/>
</svg>
