<!-- icon666.com - MILLIONS vector ICONS FREE --><svg version="1.1" id="Layer_1" xmlns="http://www.w3.org/2000/svg" xmlns:xlink="http://www.w3.org/1999/xlink" x="0px" y="0px" viewBox="0 0 512.003 512.003" style="enable-background:new 0 0 512.003 512.003;" xml:space="preserve"><g><g><path d="M475.244,264.501c-3.36-5.164-3.36-11.834,0-16.998l18.698-28.74c17.032-26.178,5.556-61.348-23.554-72.491l-32.02-12.26 c-5.753-2.204-9.676-7.601-9.992-13.754l-1.765-34.24c-1.608-31.184-31.563-52.902-61.667-44.802l-33.109,8.902 c-5.948,1.598-12.295-0.463-16.167-5.254l-21.555-26.665c-19.631-24.284-56.625-24.245-76.223,0l-21.556,26.666 c-3.872,4.792-10.217,6.851-16.167,5.254l-33.111-8.902c-30.163-8.112-60.063,13.678-61.667,44.802l-1.765,34.24 c-0.318,6.152-4.239,11.55-9.992,13.753l-32.018,12.26c-29.171,11.166-40.555,46.365-23.556,72.492l18.699,28.739 c3.359,5.163,3.359,11.835,0,16.998L18.061,293.24c-17.034,26.181-5.554,61.352,23.554,72.492l32.02,12.26 c5.753,2.204,9.675,7.601,9.992,13.754l1.765,34.24c1.608,31.19,31.568,52.899,61.667,44.802l33.109-8.902 c5.951-1.596,12.295,0.463,16.168,5.254l21.555,26.664c19.635,24.291,56.628,24.241,76.223,0l21.555-26.664 c3.872-4.79,10.221-6.849,16.167-5.254l33.111,8.902c30.155,8.115,60.062-13.674,61.667-44.802l1.765-34.24 c0.318-6.152,4.239-11.55,9.992-13.753l32.018-12.26c29.169-11.166,40.554-46.364,23.557-72.493L475.244,264.501z M458.438,334.521l-32.02,12.26c-18.089,6.926-30.421,23.9-31.418,43.243l-1.765,34.24c-0.511,9.921-10.036,16.821-19.612,14.249 l-33.111-8.902c-18.705-5.032-38.661,1.455-50.836,16.518l-21.553,26.664c-6.245,7.725-18.009,7.709-24.242,0l-21.553-26.664 c-9.438-11.676-23.55-18.198-38.132-18.198c-4.229,0-8.499,0.548-12.706,1.68l-33.111,8.902 c-9.596,2.576-19.1-4.348-19.612-14.249l-1.765-34.24c-0.997-19.343-13.33-36.318-31.418-43.243L53.564,334.52 c-9.277-3.552-12.896-14.744-7.49-23.053l18.698-28.739c10.563-16.236,10.563-37.218,0-53.452l-18.698-28.739 c-5.418-8.326-1.768-19.509,7.491-23.054l32.02-12.26c18.089-6.926,30.421-23.9,31.418-43.243l1.765-34.24 c0.511-9.921,10.036-16.821,19.612-14.249l33.111,8.902c18.705,5.031,38.66-1.455,50.836-16.518l21.555-26.665 c6.245-7.724,18.01-7.708,24.241,0l21.555,26.666c12.178,15.063,32.129,21.549,50.836,16.517l33.111-8.902 c9.595-2.577,19.1,4.348,19.612,14.249L395,121.98c0.997,19.343,13.33,36.318,31.418,43.243l32.021,12.261 c9.276,3.55,12.895,14.744,7.49,23.053l-18.697,28.738c-10.565,16.235-10.565,37.217-0.001,53.453l18.698,28.738 C471.345,319.794,467.697,330.976,458.438,334.521z"></path></g></g><g><g><path d="M339.485,170.845c-6.525-6.525-17.106-6.525-23.632,0L159.887,326.811c-6.525,6.525-6.525,17.106,0.001,23.632 c3.263,3.263,7.54,4.895,11.816,4.895s8.554-1.632,11.816-4.895l155.966-155.967C346.012,187.952,346.012,177.371,339.485,170.845 z"></path></g></g><g><g><path d="M188.414,165.95c-18.429,0-33.421,14.993-33.421,33.421c0,18.429,14.994,33.421,33.421,33.421 c18.429,0,33.421-14.993,33.421-33.421C221.836,180.943,206.843,165.95,188.414,165.95z"></path></g></g><g><g><path d="M310.959,288.495c-18.429,0-33.421,14.993-33.421,33.421c0,18.429,14.993,33.421,33.421,33.421 s33.421-14.993,33.421-33.421C344.381,303.488,329.388,288.495,310.959,288.495z"></path></g></g></svg>