<!-- icon666.com - MILLIONS vector ICONS FREE --><svg version="1.1" id="Layer_1" xmlns="http://www.w3.org/2000/svg" xmlns:xlink="http://www.w3.org/1999/xlink" x="0px" y="0px" viewBox="0 0 450.048 450.048" style="enable-background:new 0 0 450.048 450.048;" xml:space="preserve"><g><g><g><path d="M122.112,91.648c0-8.192-6.144-14.848-14.848-14.848c-8.704,0-14.848,7.168-14.848,15.36s6.656,14.848,14.848,14.848 S122.112,99.84,122.112,91.648z M96.512,92.16c0-6.144,5.12-10.752,10.752-10.752s10.24,5.12,10.24,10.752 s-4.096,10.24-10.24,10.24C101.12,102.4,96.512,98.304,96.512,92.16z"></path><path d="M342.784,76.8c-8.192,0-14.848,7.168-14.848,15.36s6.656,14.848,14.848,14.848c8.704,0,15.36-6.144,15.36-14.848 S350.976,76.8,342.784,76.8z M342.784,102.4c-5.632,0-10.752-4.096-10.752-10.24s5.12-10.752,10.752-10.752 c6.144,0,10.752,4.096,10.752,10.24C353.536,97.792,348.416,102.4,342.784,102.4z"></path><path d="M434.944,92.16c0-50.688-41.472-92.16-92.16-92.16c-1.351,0-2.694,0.035-4.032,0.093C338.406,0.032,338.043,0,337.664,0 h-225.28c-0.383,0-0.749,0.032-1.098,0.094C109.952,0.036,108.612,0,107.264,0c-50.688,0-92.16,40.96-92.16,91.648 c0,47.77,36.836,87.348,83.504,91.747c0.595,0.263,1.267,0.413,2,0.413l74.525,4.247c-7.12,6.526-11.549,15.927-11.549,26.472 c0,19.968,16.384,35.84,35.84,35.84c4.776,0,9.364-0.961,13.573-2.699l-42.407,106.019c-4.475,8.959-7.005,19.072-7.005,29.801 c0,36.864,30.208,66.56,66.56,66.56s66.56-29.696,66.56-66.56c0-9.924-2.169-19.32-6.034-27.766l-14.822-60.05 c1.753,0.492,3.591,0.776,5.496,0.776c11.264,0,20.48-9.216,20.48-20.48c0-8.541-5.304-15.894-12.776-18.955l107.496-90.101 c0.39-0.292,0.723-0.66,0.995-1.076C420.194,149.151,434.944,122.387,434.944,92.16z M23.808,92.16 c0-46.08,37.376-83.456,83.456-83.456c0.447,0,0.887,0.027,1.333,0.035c0.899,0.949,2.203,1.501,3.787,1.501h10.535 c38.166,7.484,67.289,41.701,67.289,81.92c0,42.176-31.588,77.31-72.826,82.31l-15.75-0.902 c-1.544-0.257-2.959,0.133-3.984,0.975C56.098,169.832,23.808,134.986,23.808,92.16z M199.424,240.64 c-14.336,0-26.112-11.776-26.112-26.112c0-12.309,8.684-22.723,20.214-25.424l5.898,0.336c1.008,0,2.013-0.321,2.864-0.862 c13.007,1.443,23.248,12.581,23.248,25.95c0,1.999-0.237,3.945-0.669,5.819c-0.829,0.592-1.505,1.41-1.891,2.373l-3.273,8.182 C214.901,236.827,207.579,240.64,199.424,240.64z M230.144,441.344c-31.744,0-57.344-25.6-57.344-57.344 c0-4.86,0.606-9.574,1.736-14.076c0.888-0.572,1.58-1.482,1.848-2.82l5.895-14.737c10.248-15.506,27.829-25.711,47.865-25.711 c21.555,0,40.666,12.196,50.443,30.187l1.269,5.141c0.296,1.481,1.285,2.606,2.457,3.302c2.045,5.863,3.175,12.154,3.175,18.714 C287.488,415.744,261.888,441.344,230.144,441.344z M281.344,265.216c6.656,0,11.264,5.12,11.264,11.264 c0,6.144-5.12,11.264-11.264,11.264c-3.316,0-6.325-1.499-8.401-3.838l-1.327-5.378c-0.194-0.969-0.756-1.791-1.517-2.411 c0.059-1.785,0.537-3.479,1.356-4.972c0.713-0.197,1.39-0.502,1.697-0.809l5.781-4.845 C279.712,265.315,280.518,265.216,281.344,265.216z M271.227,258.198c-6.172,3.538-10.363,10.182-10.363,17.77 c0,2.994,0.667,5.834,1.835,8.404l12.312,49.879c-11.818-10.769-27.551-17.323-44.867-17.323 c-14.42,0-27.731,4.559-38.609,12.298l38.339-95.847c3.404-5.459,5.39-11.906,5.39-18.851c0-19.968-15.872-35.84-35.84-35.84 c-1.415,0-2.806,0.088-4.175,0.243l-50.829-2.912c32.318-14.212,55.004-46.373,55.004-83.859c0-35.55-20.401-66.564-50.073-81.92 h151.136c-29.558,15.242-49.863,45.942-49.863,81.408c0,50.688,41.472,92.16,92.16,92.16c6.984,0,13.791-0.782,20.341-2.255 L271.227,258.198z M392.659,157.954c-1.014,0.101-2.001,0.508-2.771,1.278l-3.856,3.216 c-12.619,7.699-27.438,12.144-43.248,12.144c-45.568,0-82.432-36.352-82.432-82.432c0-41.611,30.064-75.698,69.45-81.92h7.862 c1.258,0,2.33-0.358,3.175-0.975c0.649-0.015,1.293-0.049,1.945-0.049c46.08,0,82.944,37.376,82.944,82.944 C425.728,119.056,412.701,142.913,392.659,157.954z"></path><path d="M419.072,90.624l-9.728-10.24l5.632-13.312c0.512-1.024,0-2.56-1.024-3.072l-12.8-6.144l1.024-13.824 c0.512-1.024-0.512-2.56-2.048-2.56l-13.824-1.536l-3.584-13.312c-0.512-1.024-1.536-2.048-3.072-1.536l-13.312,3.584 l-8.192-11.264c-1.024-1.024-2.56-1.024-3.584-0.512l-11.776,7.68l-11.264-7.68c-1.024-1.024-2.56-0.512-3.584,0.512 l-8.192,11.264l-13.312-3.584c-1.536-0.512-2.56,0-3.072,1.536l-3.584,13.312l-13.824,1.536c-1.024,0-2.048,1.024-2.048,2.56 l1.024,13.824L272.128,64c-1.024,0.512-1.536,2.048-1.024,3.072l5.632,12.8l-9.728,10.24c-1.024,1.024-1.024,2.56,0,3.584 l9.728,10.24l-5.632,12.8c-0.512,1.024,0,2.56,1.024,3.072l12.8,6.144l-1.024,13.824c-0.512,1.024,0.512,2.56,2.048,2.56 l13.824,1.536l3.584,13.312c0.512,1.024,1.536,2.048,3.072,1.536l13.312-3.072l8.192,11.264c0.512,0.512,1.024,1.024,2.048,1.024 c0.512,0,1.024-0.512,1.024-1.024l11.776-7.68l11.776,8.192c1.024,1.024,2.56,0.512,3.584-0.512l8.192-11.264l13.312,3.584 c1.536,0.512,2.56,0,3.072-1.536l3.584-13.312l13.824-1.536c1.024,0,2.048-1.024,2.048-2.56l-1.024-13.824l12.8-6.144 c1.024-0.512,1.536-2.048,1.024-3.072l-5.632-12.8l9.728-10.24C420.096,93.184,420.096,91.648,419.072,90.624z M404.736,101.888 c-0.512,0.512-1.024,1.536-0.512,2.56l5.632,11.264l-11.776,5.632c-1.024,0.512-1.536,1.536-1.536,2.56l1.024,13.312 l-13.312,1.536c-1.024,0.512-1.536,1.024-2.048,2.048l-3.584,12.8l-13.312-3.072c-1.024,0-2.048,0-2.56,1.024l-7.68,10.752 l-10.752-7.68c-0.512-0.512-1.024-0.512-1.536-0.512c-0.512,0-1.024,0-1.536,1.024l-10.752,7.68l-7.68-10.752 c-0.512-1.024-1.536-1.536-2.56-1.024l-12.8,3.072l-3.584-12.8c0-1.024-1.024-2.048-2.048-2.048l-13.312-1.536l1.024-13.312 c0-1.024-0.512-2.048-1.536-2.56l-11.776-5.632l5.632-12.288c0.512-0.512,0-2.048-0.512-2.56l-9.216-9.216l9.216-9.728 c0.512-0.512,1.024-1.536,0.512-2.56l-5.632-12.288L288,62.976c1.024-0.512,1.536-1.536,1.536-2.56l-1.024-13.312l13.312-1.536 c1.024-0.512,1.536-1.024,2.048-2.048l3.584-12.8l13.824,3.072c1.024,0,2.048,0,2.56-1.024l7.68-10.752l10.752,7.68 c0.512,0.512,1.536,0.512,2.56,0l10.752-7.68l7.68,10.752c0.512,1.024,1.536,1.536,2.56,1.024l12.8-3.072l3.584,11.776 c0,1.024,1.024,2.048,2.048,2.048l13.312,1.536l-1.024,13.312c0,1.024,0.512,2.048,1.536,2.56l11.776,5.632l-5.632,12.288 c-0.512,1.024,0,2.048,0.512,3.584l9.216,9.216L404.736,101.888z"></path><path d="M107.264,159.232l10.752,7.68c1.024,1.024,2.56,0.512,3.584-0.512l8.192-11.264l13.312,3.584 c1.536,0.512,2.56,0,3.072-1.536l3.584-13.312l13.824-1.536c1.024,0,2.048-1.024,2.048-2.56l-1.024-13.824l12.8-6.144 c1.024-0.512,1.536-2.048,1.024-3.072l-5.632-12.8l9.728-10.24c1.024-1.024,1.024-2.56,0-3.584l-9.728-10.24l5.632-12.8 c0.512-1.024,0-2.56-1.024-3.072l-12.8-6.144l1.024-13.824c0.512-1.024-0.512-2.56-2.048-2.56l-13.824-1.536l-3.584-13.312 c-0.512-1.024-1.536-2.048-3.072-1.536l-13.312,3.584L121.6,17.408c-1.024-1.024-2.56-1.024-3.584-0.512l-11.264,7.68 l-11.264-7.68c-1.024-1.024-2.56-0.512-3.584,0.512l-8.192,11.264L70.4,25.088c-1.536-0.512-2.56,0-3.072,1.536l-3.584,13.312 L49.92,41.472c-1.024,0-2.048,1.024-2.048,2.56l1.024,13.824L36.096,64c-1.024,0.512-1.536,2.048-1.024,3.072l5.632,12.8 l-9.728,10.24c-1.024,1.024-1.024,2.56,0,3.584l9.728,10.24l-5.632,12.8c-0.512,1.024,0,2.56,1.024,3.072l12.8,6.144 l-1.024,13.824c-0.512,1.024,0.512,2.56,2.048,2.56l13.824,1.536l3.584,13.312c0.512,1.024,1.536,2.048,3.072,1.536l13.312-3.072 l8.192,11.264c0.512,0.512,1.024,1.024,2.048,1.024c0.512,0,1.024-0.512,1.536-1.024L107.264,159.232z M86.784,151.552 c-0.512-1.024-1.536-1.536-2.56-1.024l-12.8,3.072l-3.584-12.288c0-1.024-1.024-2.048-2.048-2.048l-13.312-1.536l1.024-13.312 c0-1.024-0.512-2.048-1.536-2.56l-11.776-5.632l5.632-12.288c0.512-0.512,0-2.048-0.512-2.56l-9.216-9.216l9.216-8.704 c0.512-0.512,1.024-1.536,0.512-2.56l-5.632-12.288l11.776-5.632c1.024-0.512,1.536-1.536,1.536-2.56L52.48,47.104l13.312-1.536 c1.024-0.512,1.536-1.024,2.048-2.048l3.584-12.8l12.8,3.072c1.024,0,2.048,0,2.56-1.024l8.704-10.752l10.752,7.68 c0.512,0.512,1.536,0.512,2.56,0l10.752-7.68l7.68,10.752c0.512,1.024,1.536,1.536,2.56,1.024l12.8-3.072l3.584,12.288 c0,1.024,1.024,2.048,2.048,2.048l13.312,1.024l-1.024,13.312c0,1.024,0.512,2.048,1.536,2.56l11.776,5.632l-5.632,12.288 c-0.512,0.512,0,2.048,0.512,2.56l9.216,9.216l-9.216,9.216c-0.512,0.512-1.024,1.536-0.512,2.56l5.632,12.288l-11.776,5.632 c-1.024,0.512-1.536,1.536-1.536,2.56l1.024,13.312l-13.312,1.536c-1.024,0.512-1.536,1.024-2.048,2.048l-3.584,12.8l-12.8-3.072 c-1.024,0-2.048,0-2.56,1.024l-7.68,10.752l-10.752-7.68c-0.512-0.512-1.024-0.512-1.536-0.512c-0.512,0-1.024,0-2.048,0.512 l-10.752,7.68L86.784,151.552z"></path><path d="M199.424,204.288c-5.632,0-10.24,4.608-10.24,10.24c0,5.632,4.608,10.24,10.24,10.24c5.12,0,10.24-4.608,10.24-10.24 C209.664,208.896,205.056,204.288,199.424,204.288z M199.424,222.208c-4.096,0-7.168-3.072-7.168-7.168s3.072-7.168,7.168-7.168 c3.584,0,7.168,3.072,7.168,7.168S203.52,222.208,199.424,222.208z"></path><path d="M230.144,370.688c-7.168,0-12.8,5.632-12.8,12.8s5.632,12.8,12.8,12.8c6.656,0,12.8-5.632,12.8-12.8 S237.312,370.688,230.144,370.688z M230.144,391.68c-4.096,0-7.68-3.584-7.68-7.68c0-4.096,3.584-7.68,7.68-7.68 s7.68,3.584,7.68,7.68C237.824,388.096,234.24,391.68,230.144,391.68z"></path><path d="M270.592,374.272l5.12-10.752c0.512-0.512,0.512-1.536,0-2.048c0-1.024-1.024-1.536-1.536-1.536l-11.776-2.56V345.6 c0-1.024-0.512-1.536-1.024-2.048c-0.512-0.512-1.536-0.512-2.048-0.512l-11.776,2.56l-5.12-10.752 c0-1.024-1.024-1.536-1.536-1.536c-0.512,0-1.536,0-2.048,0.512l-9.216,7.168l-9.216-7.168c-0.512-0.512-1.536-0.512-2.048-0.512 c-0.512,0.512-1.024,1.024-1.536,1.536l-5.12,10.752l-11.776-2.56c-0.512,0-1.536,0-2.048,0 c-0.512,0.512-1.024,1.536-1.024,2.048v11.776l-11.776,2.56c-0.512,0.512-1.024,1.024-1.536,1.536 c-0.512,0.512-0.512,1.536,0,2.048l5.12,10.752l-9.216,7.68c-0.512,0.512-1.024,1.024-1.024,2.048 c0,1.024,0.512,1.536,1.024,2.048l9.216,7.68l-5.12,10.752c-0.512,0.512-0.512,1.536,0,2.048c0,1.024,1.024,1.536,1.536,1.536 l11.776,2.56v11.776c0,1.024,0.512,1.536,1.024,2.048c0.512,0.512,1.536,0.512,2.048,0.512l11.776-2.56l5.12,10.752 c0,1.024,1.024,1.536,1.536,1.536h0.512c0.512,0,1.024-0.512,2.048-1.024l9.216-7.168l9.216,7.68 c0.512,0.512,1.536,0.512,2.048,0.512c0.512-0.512,1.024-1.024,1.536-1.536l5.12-10.752l11.776,2.56c0.512,0,1.536,0,2.048-0.512 c0.512-0.512,1.024-1.536,1.024-2.048v-11.776l11.776-2.56c0.512-0.512,1.024-1.024,1.536-1.536c0.512-0.512,0.512-1.536,0-2.048 l-5.12-10.752l8.704-7.168c0.512-0.512,1.024-1.024,1.024-2.048s-0.512-1.536-1.024-2.048L270.592,374.272z M266.496,390.656 c-0.512,1.024-1.024,2.048-0.512,3.072l4.608,9.728l-10.752,2.56c-1.024,0.512-2.048,1.536-2.048,2.56v10.752l-10.752-2.56 c-1.024,0-2.048,0.512-2.56,1.536l-4.608,9.728l-8.704-6.656c-1.024-0.512-2.048-0.512-3.072,0l-8.704,6.656l-4.608-9.728 c-0.512-1.024-1.024-1.536-2.048-1.536l-10.752,2.56v-10.752c0-1.536-1.024-2.048-2.048-2.56l-10.752-2.56l4.608-9.728 c0.512-1.024,0.512-2.56-0.512-3.072L185.088,384l8.192-7.168c0.512-1.024,1.024-2.048,0.512-3.072l-4.608-9.728l10.752-2.048 c1.024-0.512,2.048-1.536,2.048-2.56v-10.752l10.752,2.56c1.024,0,2.048-0.512,2.56-1.536l4.608-9.728l8.192,6.656 c1.024,0.512,2.048,0.512,3.072,0l8.704-6.656l4.608,9.728c0.512,1.024,1.536,1.536,2.56,1.536l10.752-2.56v10.752 c0,1.536,1.024,2.048,2.048,2.56l10.752,2.56l-4.608,9.728c-0.512,1.024-0.512,2.56,0.512,3.072l8.192,6.656L266.496,390.656z"></path><circle cx="132.864" cy="117.76" r="5.632"></circle><circle cx="81.664" cy="117.76" r="5.632"></circle><circle cx="132.864" cy="66.56" r="5.632"></circle><circle cx="81.664" cy="66.56" r="5.632"></circle><circle cx="368.384" cy="117.76" r="5.632"></circle><circle cx="317.184" cy="117.76" r="5.632"></circle><circle cx="368.384" cy="66.56" r="5.632"></circle><circle cx="317.184" cy="66.56" r="5.632"></circle></g></g></g></svg>