<svg width="55" height="55" viewBox="0 0 55 55" fill="none" xmlns="http://www.w3.org/2000/svg">
<circle cx="27.5" cy="27.5" r="27.5" fill="#4D6424"/>
<path d="M34.8318 29.7791C34.7723 29.7505 32.5447 28.6536 32.1489 28.5111C31.9872 28.4531 31.8141 28.3965 31.63 28.3965C31.3292 28.3965 31.0765 28.5464 30.8797 28.8408C30.6572 29.1716 29.9836 29.959 29.7754 30.1942C29.7483 30.2252 29.7112 30.2623 29.6889 30.2623C29.669 30.2623 29.3243 30.1204 29.2199 30.075C26.8303 29.037 25.0165 26.5409 24.7678 26.12C24.7323 26.0595 24.7308 26.032 24.7305 26.032C24.7392 25.9999 24.8196 25.9194 24.8611 25.8778C24.9824 25.7578 25.1138 25.5995 25.241 25.4465C25.3012 25.3739 25.3616 25.3013 25.4208 25.2329C25.6053 25.0182 25.6874 24.8515 25.7827 24.6585L25.8326 24.5582C26.0651 24.0962 25.8665 23.7063 25.8023 23.5804C25.7496 23.475 24.8091 21.205 24.7091 20.9665C24.4686 20.391 24.1508 20.123 23.7093 20.123C23.6683 20.123 23.7093 20.123 23.5374 20.1303C23.3282 20.1391 22.1888 20.2891 21.6851 20.6067C21.1508 20.9435 20.2471 22.0171 20.2471 23.9052C20.2471 25.6045 21.3254 27.209 21.7884 27.8192C21.7999 27.8346 21.8211 27.8658 21.8517 27.9106C23.6248 30.5001 25.8353 32.4192 28.076 33.3143C30.2333 34.176 31.2548 34.2756 31.8356 34.2756H31.8357C32.0797 34.2756 32.275 34.2565 32.4474 34.2395L32.5567 34.2291C33.3019 34.163 34.9396 33.3144 35.3121 32.2792C35.6056 31.4638 35.683 30.5729 35.4877 30.2496C35.354 30.0298 35.1236 29.9192 34.8318 29.7791Z" fill="white"/>
<path d="M27.7712 12.2217C19.4958 12.2217 12.7632 18.9036 12.7632 27.1168C12.7632 29.7733 13.4741 32.3736 14.8209 34.6494L12.2432 42.253C12.1952 42.3948 12.2309 42.5515 12.3357 42.6583C12.4114 42.7356 12.5141 42.7772 12.619 42.7772C12.6591 42.7772 12.6996 42.7712 12.7391 42.7586L20.6677 40.2391C22.8373 41.3984 25.2895 42.0103 27.7713 42.0103C36.0459 42.0104 42.7777 35.3291 42.7777 27.1168C42.7777 18.9036 36.0459 12.2217 27.7712 12.2217ZM27.7712 38.9076C25.4359 38.9076 23.1741 38.2333 21.2299 36.9575C21.1645 36.9145 21.0886 36.8925 21.0122 36.8925C20.9718 36.8925 20.9314 36.8987 20.892 36.9112L16.9203 38.1737L18.2024 34.391C18.2439 34.2686 18.2231 34.1336 18.1467 34.0292C16.6662 32.0062 15.8836 29.616 15.8836 27.1168C15.8836 20.6145 21.2163 15.3245 27.7711 15.3245C34.325 15.3245 39.6572 20.6145 39.6572 27.1168C39.6573 33.6183 34.3252 38.9076 27.7712 38.9076Z" fill="white"/>
</svg>
