<svg width="149.152344" height="160.000000" viewBox="0 0 149.152 160" fill="none" xmlns="http://www.w3.org/2000/svg" xmlns:xlink="http://www.w3.org/1999/xlink">
	<desc>
			Created with Pixso.
	</desc>
	<defs>
		<clipPath id="clip393_68">
			<rect id="delivery_bk33c3db2uej 1" width="149.152542" height="160.000000" fill="white" fill-opacity="0"/>
		</clipPath>
	</defs>
	<rect id="delivery_bk33c3db2uej 1" width="149.152542" height="160.000000" fill="#FFFFFF" fill-opacity="0"/>
	<g clip-path="url(#clip393_68)">
		<path id="Vector" d="M130.03 70.69C133.77 68.78 136.78 65.54 138.55 61.52C140.32 57.5 140.74 52.95 139.74 48.64C138.74 44.32 136.38 40.51 133.06 37.85C129.75 35.19 125.67 33.84 121.53 34.03C117.4 34.22 113.44 35.93 110.35 38.89C107.26 41.84 105.21 45.85 104.55 50.24C103.9 54.63 104.68 59.12 106.76 62.97C108.84 66.81 112.09 69.76 115.96 71.33C113.9 72.41 112.06 73.91 110.54 75.76C109.03 77.61 107.87 79.76 107.14 82.09L98.53 109.44L98.24 109.44L98.24 81.58C98.24 81.16 98.08 80.77 97.81 80.47C97.54 80.18 97.17 80.02 96.78 80.02L53.51 80.02C53.12 80.02 52.75 80.18 52.48 80.47C52.21 80.77 52.05 81.16 52.05 81.58L52.05 109.44L51.76 109.44L43.16 82.09C42.37 79.58 41.09 77.28 39.4 75.34C37.71 73.4 35.66 71.88 33.37 70.86C36.52 69.33 39.19 66.86 41.06 63.74C42.94 60.63 43.93 57 43.94 53.29L43.94 52.18L48.85 52.18C49.24 52.18 49.61 52.02 49.88 51.73C50.16 51.43 50.31 51.03 50.31 50.62C50.31 50.21 50.16 49.81 49.88 49.52C49.61 49.22 49.24 49.06 48.85 49.06L43.94 49.06L43.94 38.66C43.93 36.19 43.02 33.82 41.39 32.08C39.76 30.33 37.55 29.35 35.25 29.35L16.67 29.35C14.37 29.35 12.17 30.34 10.54 32.08C8.91 33.83 8 36.19 8 38.66L8 52.7C8 60.99 12.69 68.17 19.29 71.14C16.26 72.62 13.7 75 11.9 78C10.1 80.99 9.14 84.48 9.14 88.05L9.14 129.08C9.14 129.5 9.29 129.89 9.57 130.19C9.84 130.48 10.21 130.64 10.6 130.64C10.98 130.64 11.35 130.48 11.63 130.19C11.9 129.89 12.05 129.5 12.05 129.08L12.05 88.04C12.06 83.93 13.58 80 16.28 77.1C18.99 74.2 22.65 72.57 26.47 72.57L26.75 72.57C29.76 72.57 32.71 73.58 35.16 75.47C37.61 77.36 39.45 80.02 40.41 83.09L49.35 111.5C49.45 111.8 49.63 112.07 49.88 112.26C50.13 112.45 50.42 112.55 50.73 112.56L68.8 112.56C70.12 112.56 71.38 113.11 72.31 114.11C73.24 115.11 73.76 116.46 73.76 117.87C73.76 119.28 73.24 120.63 72.31 121.62C71.38 122.62 70.12 123.18 68.8 123.18L49.65 123.18C47.58 123.18 45.55 122.53 43.83 121.29C42.1 120.06 40.75 118.31 39.96 116.26L31.91 95.62C31.85 95.42 31.75 95.23 31.61 95.07C31.48 94.91 31.32 94.78 31.14 94.69C30.95 94.6 30.75 94.56 30.56 94.55C30.35 94.55 30.16 94.59 29.97 94.67C29.79 94.76 29.62 94.88 29.48 95.04C29.34 95.19 29.24 95.38 29.17 95.58C29.1 95.78 29.07 95.99 29.08 96.21C29.09 96.42 29.14 96.63 29.24 96.82L37.28 117.48C38.3 120.1 40.02 122.33 42.22 123.91C44.42 125.48 47.01 126.32 49.65 126.31L68.8 126.31C70.05 126.31 71.27 125.99 72.37 125.38C73.48 124.76 74.42 123.87 75.14 122.78C75.86 123.87 76.81 124.76 77.92 125.38C79.03 125.99 80.25 126.31 81.5 126.31L100.64 126.31C103.29 126.32 105.88 125.48 108.09 123.91C110.29 122.34 112.01 120.1 113.02 117.48L121.07 96.83C121.16 96.63 121.21 96.43 121.22 96.21C121.24 96 121.21 95.78 121.14 95.58C121.07 95.38 120.96 95.19 120.82 95.04C120.68 94.88 120.52 94.76 120.33 94.68C120.15 94.6 119.95 94.55 119.75 94.56C119.55 94.56 119.35 94.61 119.17 94.7C118.99 94.79 118.82 94.91 118.69 95.07C118.55 95.23 118.45 95.42 118.39 95.62L110.35 116.27C109.55 118.32 108.2 120.08 106.48 121.31C104.75 122.54 102.73 123.19 100.66 123.19L81.49 123.19C80.18 123.19 78.92 122.63 77.99 121.64C77.06 120.64 76.54 119.29 76.54 117.88C76.54 116.47 77.06 115.12 77.99 114.12C78.92 113.13 80.18 112.57 81.49 112.57L99.57 112.57C99.88 112.57 100.17 112.46 100.42 112.27C100.67 112.08 100.85 111.82 100.95 111.51L109.89 83.1C110.85 80.03 112.69 77.37 115.14 75.48C117.59 73.59 120.53 72.58 123.55 72.58L123.83 72.58C127.65 72.58 131.31 74.22 134.02 77.12C136.72 80.02 138.24 83.95 138.25 88.05L138.25 129.08C138.25 129.5 138.4 129.89 138.67 130.19C138.94 130.48 139.32 130.64 139.7 130.64C140.09 130.64 140.46 130.48 140.73 130.19C141 129.89 141.16 129.5 141.16 129.08L141.16 88.04C141.15 84.28 140.09 80.61 138.1 77.51C136.11 74.42 133.3 72.04 130.03 70.69ZM16.67 32.47L35.25 32.47C36.78 32.47 38.25 33.12 39.33 34.28C40.41 35.44 41.02 37.02 41.02 38.66L41.02 49.08L10.9 49.08L10.9 38.66C10.9 37.02 11.51 35.44 12.59 34.28C13.67 33.12 15.14 32.47 16.67 32.47ZM10.9 52.7L10.9 52.18L41.03 52.18L41.03 53.28C41.03 55.42 40.63 57.55 39.86 59.53C39.08 61.51 37.95 63.31 36.52 64.81C35.09 66.32 33.4 67.5 31.54 68.29C29.67 69.09 27.69 69.48 25.68 69.44C17.53 69.29 10.9 61.78 10.9 52.7ZM78.94 83.14L78.94 93.97L71.34 93.97L71.34 83.14L78.94 83.14ZM75.16 112.97C74.43 111.88 73.48 110.99 72.38 110.37C71.27 109.76 70.04 109.44 68.8 109.44L54.96 109.44L54.96 83.14L68.45 83.14L68.45 95.53C68.45 95.94 68.61 96.34 68.88 96.63C69.15 96.92 69.52 97.09 69.91 97.09L80.4 97.09C80.78 97.09 81.16 96.92 81.43 96.63C81.7 96.34 81.85 95.94 81.85 95.53L81.85 83.14L95.33 83.14L95.33 109.44L81.49 109.44C80.25 109.44 79.03 109.76 77.92 110.37C76.82 110.99 75.87 111.88 75.16 112.97ZM107.23 53.28C107.23 50.08 108.11 46.96 109.77 44.3C111.43 41.64 113.78 39.57 116.53 38.35C119.28 37.12 122.32 36.8 125.24 37.43C128.16 38.05 130.85 39.59 132.95 41.85C135.06 44.11 136.49 46.99 137.08 50.13C137.66 53.26 137.36 56.51 136.22 59.46C135.08 62.42 133.14 64.94 130.67 66.72C128.19 68.49 125.28 69.44 122.3 69.44C118.31 69.44 114.48 67.73 111.65 64.71C108.83 61.68 107.24 57.57 107.23 53.29L107.23 53.28Z" fill="#FFFFFF" fill-opacity="1.000000" fill-rule="nonzero"/>
	</g>
</svg>
