<svg width="24.000000" height="24.000000" viewBox="0 0 24 24" fill="none" xmlns="http://www.w3.org/2000/svg" xmlns:xlink="http://www.w3.org/1999/xlink">
	<desc>
			Created with Pixso.
	</desc>
	<defs/>
	<path id="Vector" d="M12 8.35C12.66 8.35 13.2 7.81 13.2 7.14C13.2 6.48 12.66 5.93 12 5.93C11.33 5.93 10.79 6.48 10.79 7.14C10.79 7.81 11.33 8.35 12 8.35Z" fill="#FFFFFF" fill-opacity="1.000000" fill-rule="nonzero"/>
	<path id="Vector" d="M14.14 16.33L12.86 16.33L12.86 11.51C12.86 11.03 12.47 10.65 11.99 10.65L9.85 10.65C9.37 10.65 8.99 11.03 8.99 11.51C8.99 11.98 9.37 12.37 9.85 12.37L11.13 12.37L11.13 17.19C11.13 17.66 11.52 18.05 12 18.05L14.14 18.05C14.62 18.05 15 17.66 15 17.19C15 16.71 14.62 16.33 14.14 16.33Z" fill="#FFFFFF" fill-opacity="1.000000" fill-rule="nonzero"/>
	<path id="Vector" d="M12 0C5.38 0 0 5.38 0 11.99C0 18.61 5.38 23.99 12 23.99C18.61 23.99 24 18.61 24 11.99C24 5.38 18.61 0 12 0ZM12 22.27C6.33 22.27 1.72 17.66 1.72 11.99C1.72 6.33 6.33 1.72 12 1.72C17.66 1.72 22.27 6.33 22.27 11.99C22.27 17.66 17.66 22.27 12 22.27Z" fill="#FFFFFF" fill-opacity="1.000000" fill-rule="nonzero"/>
</svg>
