<svg width="50" height="50" viewBox="0 0 50 50" fill="none" xmlns="http://www.w3.org/2000/svg">
<g clip-path="url(#clip0_49_142)">
<path d="M30.8594 25.3906C30.3204 25.3906 29.8828 25.8282 29.8828 26.3672C29.8828 26.9062 30.3204 27.3438 30.8594 27.3438C31.3984 27.3438 31.8359 26.9062 31.8359 26.3672C31.8359 25.8282 31.3984 25.3906 30.8594 25.3906Z" fill="#EB2227"/>
<path d="M9.97734 36.1118L0.211717 48.4165C-0.0213615 48.7099 -0.065612 49.1108 0.0972756 49.448C0.260163 49.7856 0.60196 50 0.976563 50H49.0234C49.398 50 49.7398 49.7856 49.9027 49.448C50.066 49.1108 50.0214 48.7099 49.7883 48.4165L40.0227 36.1118C39.8377 35.8784 39.5557 35.7422 39.2578 35.7422H30.7034L38.0066 24.2874C39.7198 21.719 40.625 18.7237 40.625 15.625C40.625 7.00951 33.6159 0 25 0C16.3841 0 9.375 7.00951 9.375 15.625C9.375 18.7237 10.2802 21.7186 11.9934 24.2874L19.2966 35.7422H10.7422C10.4443 35.7422 10.1627 35.8784 9.97734 36.1118ZM6.33125 43.8477H12.236L8.9035 48.0469H2.99835L6.33125 43.8477ZM20.5421 37.6953L23.2193 41.8945H16.2796L19.6125 37.6953H20.5421ZM29.4582 37.6953H30.3879L33.7204 41.8945H26.7811L29.4582 37.6953ZM35.2707 43.8477L38.6032 48.0469H11.3968L14.7297 43.8477H35.2707ZM41.0969 48.0469L37.764 43.8477H43.6691L47.0017 48.0469H41.0969ZM42.1188 41.8945H36.2141L32.8812 37.6953H38.7863L42.1188 41.8945ZM13.6238 23.2117C12.122 20.9633 11.3281 18.3399 11.3281 15.625C11.3281 8.0864 17.4614 1.95312 25 1.95312C32.5386 1.95312 38.6719 8.0864 38.6719 15.625C38.6719 18.3399 37.878 20.9633 36.3766 23.2117C36.3724 23.2174 36.3689 23.2231 36.3651 23.2288C35.7239 24.2348 25.494 40.2802 25 41.0545C23.7576 39.1056 14.9002 25.2132 13.6349 23.2288C13.6314 23.2231 13.6276 23.2174 13.6238 23.2117ZM17.1188 37.6953L13.7863 41.8945H7.88117L11.2141 37.6953H17.1188Z" fill="#EB2227"/>
<path d="M25 25.3906C30.3612 25.3906 34.7656 21.0491 34.7656 15.625C34.7656 10.2402 30.3848 5.85938 25 5.85938C19.6152 5.85938 15.2344 10.2402 15.2344 15.625C15.2344 21.0506 19.6404 25.3906 25 25.3906ZM25 7.8125C29.3079 7.8125 32.8125 11.3171 32.8125 15.625C32.8125 19.973 29.2797 23.4375 25 23.4375C20.7191 23.4375 17.1875 19.973 17.1875 15.625C17.1875 11.3171 20.6921 7.8125 25 7.8125Z" fill="#EB2227"/>
<path d="M29.1134 28.7234C28.6518 28.4449 28.0514 28.5937 27.7729 29.0556L24.1634 35.0439C23.885 35.5059 24.0337 36.1059 24.4957 36.3844C24.9596 36.664 25.5589 36.5122 25.8362 36.0522L29.4456 30.0639C29.7241 29.6019 29.5753 29.0018 29.1134 28.7234Z" fill="#EB2227"/>
</g>
<defs>
<clipPath id="clip0_49_142">
<rect width="50.0001" height="50" fill="white"/>
</clipPath>
</defs>
</svg>
