<!-- icon666.com - MILLIONS vector ICONS FREE --><svg id="Layer_2" enable-background="new 0 0 32 32" viewBox="0 0 32 32" xmlns="http://www.w3.org/2000/svg"><path d="m19 23h-5v-10c.5 0 .93-.38.99-.88l.77-6.15c.1-.8-.14-1.59-.65-2.17-.46-.51-1.08-.8-1.75-.8h-4.72c-.67 0-1.29.29-1.75.81-.51.58-.75 1.37-.65 2.17l.77 6.15c.06.49.49.87.99.87v10h-5c-.55 0-1 .45-1 1v4c0 .55.45 1 1 1h16c.55 0 1-.45 1-1v-4c0-.55-.45-1-1-1zm-10.61-17.87c.05-.06.14-.13.25-.13h4.73c.11 0 .2.07.25.13.13.15.19.37.16.6l-.66 5.27h-.12-4-.12l-.66-5.27c-.02-.23.04-.45.17-.6zm1.61 7.87h2v10h-2zm8 14h-14v-2h5 4 5zm5-23h2v13h-2zm7 0v3h-2v-3zm-2 5h2v3h-2zm0 5h2v3h-2z"></path></svg>