<!-- icon666.com - MILLIONS vector ICONS FREE --><svg version="1.1" id="Capa_1" xmlns="http://www.w3.org/2000/svg" xmlns:xlink="http://www.w3.org/1999/xlink" x="0px" y="0px" viewBox="0 0 73.264 73.264" style="enable-background:new 0 0 73.264 73.264;" xml:space="preserve"><path style="fill:#231F20;" d="M14.799,68.143c0,1.278-0.273,2.507-0.813,3.652c-0.17,0.362-0.529,0.574-0.905,0.574 c-0.143,0-0.287-0.03-0.425-0.095c-0.5-0.235-0.714-0.831-0.479-1.331c0.413-0.877,0.622-1.82,0.622-2.801 c0-3.631-2.954-6.585-6.586-6.585c-1.222,0-2.414,0.336-3.447,0.974c-0.47,0.29-1.086,0.143-1.376-0.327 c-0.289-0.47-0.144-1.086,0.327-1.376c1.349-0.831,2.903-1.271,4.496-1.271C10.947,59.557,14.799,63.409,14.799,68.143z M40.553,57.921c0.553,0,1-0.448,1-1s-0.447-1-1-1H17.977c-3.055-2.942-7.198-4.762-11.764-4.762c-1.428,0-2.847,0.178-4.218,0.528 c-0.535,0.137-0.857,0.682-0.721,1.216c0.137,0.535,0.682,0.858,1.217,0.721c1.208-0.309,2.461-0.466,3.722-0.466 c8.263,0,14.984,6.722,14.984,14.983c0,1.016-0.103,2.032-0.305,3.021c-0.111,0.542,0.238,1.07,0.779,1.18 c0.067,0.014,0.135,0.021,0.201,0.021c0.465,0,0.882-0.326,0.979-0.799c0.229-1.121,0.346-2.272,0.346-3.422 c0-3.84-1.296-7.374-3.453-10.222H40.553z M73.264,40.541c0,0.552-0.447,1-1,1h-1.292V72.25c0,0.552-0.447,1-1,1s-1-0.448-1-1 V41.541h-1.055V72.25c0,0.552-0.447,1-1,1s-1-0.448-1-1V41.541H26.463c-0.553,0-1-0.448-1-1s0.447-1,1-1h4.947v-5.9H14.996 l11.457,9.885h2.388c12.186,0,15.537,13.024,15.569,13.156c0.02,0.078,0.029,0.159,0.029,0.239v14.292c0,0.552-0.447,1-1,1H27.397 c-0.553,0-1-0.448-1-1s0.447-1,1-1h15.042v-0.572c-1.703-0.195-3.905-1.613-3.905-5.069c0-3.456,2.203-4.874,3.905-5.069v-2.453 c-0.102-0.379-0.453-1.563-1.162-3.034c-0.027,0.007-0.049,0.026-0.077,0.031c-0.084,0.015-0.905,0.159-2.079,0.159 c-1.831,0-4.52-0.35-6.598-2.083c-1.792-1.495-2.762-3.709-2.909-6.571c-0.254-0.013-0.51-0.024-0.773-0.024H2.189 c-0.553,0-1-0.448-1-1s0.447-1,1-1h1.679v-6.956c0-1.193,0.392-2.182,1.163-2.94c1.547-1.518,4.079-1.485,4.185-1.489h1.745 l-2.889-2.493l-6.76,2.211C1.208,31.894,1.103,31.91,1,31.91c-0.421,0-0.812-0.268-0.95-0.689c-0.172-0.525,0.114-1.09,0.64-1.262 l29.579-9.675c0.526-0.172,1.09,0.115,1.261,0.639c0.172,0.525-0.114,1.09-0.64,1.262L9.737,29.103l3.52,3.037H31.41v-4.923 c0-0.414,0.336-0.75,0.75-0.75h6.186c0.414,0,0.75,0.336,0.75,0.75v4.923h4.49l0.754-5.034c0.056-0.368,0.371-0.639,0.742-0.639 H64.55c0.371,0,0.687,0.271,0.742,0.639l1.401,9.352c0.061,0.41-0.222,0.792-0.631,0.853c-0.038,0.006-0.075,0.008-0.112,0.008 c-0.365,0-0.685-0.267-0.741-0.639l-1.305-8.713H45.729l-1.305,8.713c-0.063,0.41-0.441,0.69-0.854,0.631 c-0.409-0.062-0.691-0.443-0.631-0.853l0.422-2.818h-4.266v5.9h3.734c-0.176-0.18-0.286-0.425-0.286-0.697c0-0.552,0.447-1,1-1 h23.373c0.553,0,1,0.448,1,1c0,0.272-0.11,0.517-0.286,0.697h4.633C72.817,39.541,73.264,39.989,73.264,40.541z M42.439,67.612 v-6.081c-0.665,0.155-1.905,0.752-1.905,3.041C40.533,66.86,41.773,67.457,42.439,67.612z M31.626,45.806 c0.173,2.106,0.899,3.71,2.17,4.773c2.092,1.753,5.174,1.687,6.451,1.571C38.604,49.527,35.894,46.688,31.626,45.806z M12.699,33.641H9.201c-0.025,0.002-2.031-0.015-3.124,1.063c-0.478,0.471-0.71,1.081-0.71,1.865v6.956h18.788L12.699,33.641z M32.91,39.199h4.686V27.967H32.91V39.199z M46.992,29.212l-0.934,7.357h8.758h8.758l-0.934-7.357h-7.824H46.992z M35.258,31.588 c0.656,0,1.188-0.532,1.188-1.188s-0.532-1.188-1.188-1.188c-0.656,0-1.188,0.532-1.188,1.188S34.602,31.588,35.258,31.588z M35.644,32.437v5.687c0,0.276,0.224,0.5,0.5,0.5s0.5-0.224,0.5-0.5v-5.687c0-0.276-0.224-0.5-0.5-0.5S35.644,32.161,35.644,32.437z M34.361,38.624c0.276,0,0.5-0.224,0.5-0.5v-5.687c0-0.276-0.224-0.5-0.5-0.5s-0.5,0.224-0.5,0.5v5.687 C33.861,38.4,34.085,38.624,34.361,38.624z M1.243,24.794V1.014c0-0.552,0.447-1,1-1h67.729c0.553,0,1,0.448,1,1v35.556 c0,0.552-0.447,1-1,1s-1-0.448-1-1V7.532H37.108v14.042c0,0.552-0.447,1-1,1s-1-0.448-1-1V7.532H3.243v17.262c0,0.552-0.447,1-1,1 S1.243,25.346,1.243,24.794z M3.243,2.014v3.518h65.729V2.014H3.243z"></path></svg>