<!-- icon666.com - MILLIONS vector ICONS FREE --><svg xmlns="http://www.w3.org/2000/svg" viewBox="0 0 64 64"><g id="Air_Circulation" data-name="Air Circulation"><path d="M58,26H56.7617a4.5019,4.5019,0,0,1-3.5566-1.65L49.5811,19.69A7.2285,7.2285,0,0,0,43.876,17H29.9229a7.4217,7.4217,0,0,0-4.0284,1.165l-10.52,6.7627a10.5594,10.5594,0,0,1-3.8594,1.503l-4.4765.8056A4.7258,4.7258,0,0,0,3,31.751V37a5.0059,5.0059,0,0,0,5,5H9.083a6.0011,6.0011,0,0,0,11.834,0H41.085A6.0191,6.0191,0,0,0,44.01,46.2021a5.9289,5.9289,0,0,0,2.9824.8028,6.7774,6.7774,0,0,0,3.3994-.96,5.341,5.341,0,0,0,2.6113-4.125C56.5342,41.4238,61,38.6182,61,34.9336V29A3.0033,3.0033,0,0,0,58,26ZM47.319,35.0539l-6.8333,2.8638A1.09,1.09,0,0,1,39,36.8638V35H25a5,5,0,0,1,0-10H44a1,1,0,0,1,0,2H25a3,3,0,0,0,0,6H39V31.1362a1.09,1.09,0,0,1,1.4857-1.0539l6.8333,2.8638A1.156,1.156,0,0,1,47.319,35.0539Z"></path></g></svg>