<svg width="24.000000" height="24.000000" viewBox="0 0 24 24" fill="none" xmlns="http://www.w3.org/2000/svg" xmlns:xlink="http://www.w3.org/1999/xlink">
	<desc>
			Created with Pixso.
	</desc>
	<defs>
		<clipPath id="clip87_2361">
			<rect id="svg contact" width="24.000000" height="24.000000" fill="white" fill-opacity="0"/>
		</clipPath>
	</defs>
	<rect id="svg contact" width="24.000000" height="24.000000" fill="#FFFFFF" fill-opacity="0"/>
	<g clip-path="url(#clip87_2361)">
		<path id="Vector" d="M21.26 0L4.52 0C4.13 0 3.81 0.31 3.81 0.7L3.81 2.97L2.71 2.97C2.33 2.97 2.01 3.29 2.01 3.68C2.01 4.06 2.33 4.38 2.71 4.38L3.81 4.38L3.81 6.3L2.71 6.3C2.33 6.3 2.01 6.62 2.01 7C2.01 7.39 2.33 7.71 2.71 7.71L3.81 7.71L3.81 9.63L2.71 9.63C2.33 9.63 2.01 9.94 2.01 10.33C2.01 10.72 2.33 11.03 2.71 11.03L3.81 11.03L3.81 12.96L2.71 12.96C2.33 12.96 2.01 13.27 2.01 13.66C2.01 14.05 2.33 14.36 2.71 14.36L3.81 14.36L3.81 16.28L2.71 16.28C2.33 16.28 2.01 16.6 2.01 16.99C2.01 17.37 2.33 17.69 2.71 17.69L3.81 17.69L3.81 19.61L2.71 19.61C2.33 19.61 2.01 19.93 2.01 20.31C2.01 20.7 2.33 21.02 2.71 21.02L3.81 21.02L3.81 23.29C3.81 23.68 4.13 24 4.52 24L21.26 24C21.65 24 21.96 23.68 21.96 23.29L21.96 0.7C21.96 0.31 21.65 0 21.26 0ZM20.55 22.59L5.22 22.59L5.22 21.02L6.07 21.02C6.46 21.02 6.78 20.7 6.78 20.31C6.78 19.93 6.46 19.61 6.07 19.61L5.22 19.61L5.22 17.69L6.07 17.69C6.46 17.69 6.78 17.37 6.78 16.99C6.78 16.6 6.46 16.28 6.07 16.28L5.22 16.28L5.22 14.36L6.07 14.36C6.46 14.36 6.78 14.05 6.78 13.66C6.78 13.27 6.46 12.96 6.07 12.96L5.22 12.96L5.22 11.03L6.07 11.03C6.46 11.03 6.78 10.72 6.78 10.33C6.78 9.94 6.46 9.63 6.07 9.63L5.22 9.63L5.22 7.71L6.07 7.71C6.46 7.71 6.78 7.39 6.78 7C6.78 6.62 6.46 6.3 6.07 6.3L5.22 6.3L5.22 4.38L6.07 4.38C6.46 4.38 6.78 4.06 6.78 3.68C6.78 3.29 6.46 2.97 6.07 2.97L5.22 2.97L5.22 1.4L20.55 1.4L20.55 22.59Z" fill="#FFFFFF" fill-opacity="1.000000" fill-rule="nonzero"/>
		<path id="Vector" d="M12.19 19.19C13.27 20.49 14.39 21.17 15.41 21.17C15.63 21.17 15.85 21.14 16.07 21.07C16.08 21.07 16.09 21.06 16.11 21.06L17.38 20.66C17.8 20.53 18.14 20.24 18.35 19.85C18.55 19.45 18.59 19.01 18.46 18.58L17.6 15.85C17.33 14.98 16.4 14.5 15.52 14.77L14.22 15.18C14.16 15.18 13.88 15.07 13.49 14.55C13.08 14.02 12.71 13.27 12.45 12.45C12.19 11.62 12.06 10.79 12.09 10.13C12.12 9.48 12.29 9.23 12.34 9.19C12.34 9.19 12.34 9.19 12.34 9.19L13.64 8.78C14.06 8.65 14.41 8.36 14.61 7.97C14.82 7.58 14.86 7.13 14.72 6.71L13.86 3.98C13.59 3.11 12.66 2.62 11.79 2.9L10.48 3.31C10.47 3.31 10.47 3.31 10.46 3.31C9.29 3.69 8.55 5.02 8.38 7.07C8.23 8.9 8.54 11.17 9.26 13.45C9.98 15.73 11.02 17.76 12.19 19.19ZM9.78 7.18C9.9 5.78 10.31 4.83 10.9 4.65C10.9 4.65 10.9 4.65 10.91 4.64L12.21 4.24C12.34 4.2 12.48 4.27 12.52 4.4L13.38 7.13C13.41 7.22 13.38 7.29 13.36 7.32C13.35 7.35 13.3 7.42 13.22 7.44L11.91 7.85C11.9 7.86 11.9 7.86 11.89 7.86C11.49 7.99 10.82 8.43 10.7 9.87C10.63 10.74 10.77 11.8 11.11 12.87C11.44 13.93 11.93 14.89 12.49 15.56C13.43 16.69 14.24 16.65 14.63 16.52L15.95 16.11C16.08 16.07 16.22 16.14 16.26 16.28L17.12 19.01C17.15 19.09 17.12 19.16 17.1 19.19C17.08 19.23 17.04 19.29 16.95 19.32L15.64 19.73C15.64 19.73 15.63 19.73 15.62 19.74C14.49 20.04 12.06 17.66 10.6 13.03C9.94 10.92 9.65 8.84 9.78 7.18Z" fill="#FFFFFF" fill-opacity="1.000000" fill-rule="nonzero"/>
	</g>
</svg>
