<!-- icon666.com - MILLIONS vector ICONS FREE --><svg version="1.1" id="Capa_1" xmlns="http://www.w3.org/2000/svg" xmlns:xlink="http://www.w3.org/1999/xlink" x="0px" y="0px" viewBox="0 0 512 512" style="enable-background:new 0 0 512 512;" xml:space="preserve"><g><g><path d="M116.021,60.081c-17.683,0-32.068,14.387-32.068,32.069c0,17.682,14.386,32.069,32.068,32.069 s32.069-14.387,32.069-32.069C148.09,74.468,133.703,60.081,116.021,60.081z M116.021,104.22c-6.654,0-12.068-5.414-12.068-12.069 c0-6.655,5.414-12.069,12.068-12.069c6.655,0,12.069,5.414,12.069,12.069C128.09,98.806,122.676,104.22,116.021,104.22z"></path></g></g><g><g><path d="M99.09,243.93c-1.861-1.86-4.44-2.93-7.07-2.93s-5.21,1.069-7.069,2.93c-1.86,1.86-2.931,4.44-2.931,7.07 s1.07,5.21,2.931,7.069C86.81,259.93,89.39,261,92.02,261s5.209-1.07,7.07-2.931c1.86-1.859,2.93-4.439,2.93-7.069 S100.951,245.79,99.09,243.93z"></path></g></g><g><g><path d="M396.233,60.081c-17.683,0-32.069,14.387-32.069,32.069c0,17.682,14.387,32.069,32.069,32.069 s32.068-14.387,32.068-32.069C428.301,74.468,413.916,60.081,396.233,60.081z M396.233,104.22 c-6.655,0-12.069-5.414-12.069-12.069c0-6.655,5.414-12.069,12.069-12.069c6.654,0,12.068,5.414,12.068,12.069 C408.301,98.806,402.888,104.22,396.233,104.22z"></path></g></g><g><g><path d="M502,305.962h-59.767v-15.151c0-5.522-4.478-10-10-10h-2V152.969h7.887l4.976,19.503c1.13,4.43,5.119,7.528,9.689,7.528 h23.448c5.522,0,10-4.478,10-10V23.793C486.233,10.674,475.56,0,462.44,0H330.026c-13.119,0-23.793,10.674-23.793,23.793V170 c0,5.522,4.478,10,10,10h23.448c4.57,0,8.56-3.099,9.689-7.528l4.976-19.503h7.887v52.616c0,5.522,4.478,10,10,10 c5.522,0,10-4.478,10-10v-52.616h28v127.842h-50c-5.522,0-10,4.478-10,10v15.151h-59.096c-5.522,0-10,4.478-10,10V374h-50.021 v-58.038c0-5.522-4.478-10-10-10H162.02v-15.151c0-5.522-4.478-10-10-10h-2V152.969h7.887l4.976,19.503 c1.13,4.43,5.119,7.528,9.689,7.528h23.448c5.522,0,10-4.478,10-10V23.793C206.021,10.674,195.347,0,182.228,0H49.813 C36.694,0,26.021,10.674,26.021,23.793V170c0,5.522,4.478,10,10,10h23.448c4.57,0,8.56-3.099,9.689-7.528l4.976-19.503h7.887V211 c0,5.522,4.478,10,10,10c5.522,0,10-4.478,10-10v-58.031h28v127.842h-50c-5.522,0-10,4.478-10,10v15.151H10 c-5.522,0-10,4.478-10,10V448c0,5.522,4.478,10,10,10h70.021c5.522,0,10-4.478,10-10v-39.189h52V502c0,5.522,4.478,10,10,10 h69.096c5.522,0,10-4.478,10-10v-44h50.021v44c0,5.522,4.478,10,10,10h69.096c5.522,0,10-4.478,10-10v-93.189h52V448 c0,5.522,4.478,10,10,10H502c5.522,0,10-4.478,10-10V315.962C512,310.439,507.522,305.962,502,305.962z M70.021,438H20V325.962 h50.021V438z M46.02,23.793C46.021,21.701,47.722,20,49.813,20h132.414c2.092,0,3.793,1.701,3.793,3.793V32h-140V23.793z M142.021,315.962v72.849h-52v-72.849v-15.151h52V315.962z M140.02,132.969H92.021H66.365c-4.57,0-8.56,3.099-9.689,7.528 L51.7,160h-5.68V52h140v108h-5.68l-4.976-19.503c-1.13-4.43-5.119-7.528-9.689-7.528H140.02z M211.116,492H162.02V325.962h49.096 V492z M281.137,438h-50.021v-44h50.021V438z M350.233,492h-49.096V325.962h49.096V492z M326.233,23.793 c0-2.092,1.702-3.793,3.793-3.793H462.44c2.092,0,3.793,1.701,3.793,3.793V32h-140V23.793z M422.233,315.962v72.849h-52v-72.849 v-15.151h52V315.962z M420.233,132.969h-48h-25.655c-4.57,0-8.56,3.099-9.689,7.528L331.913,160h-5.68V52h140v108h-5.68 l-4.976-19.503c-1.13-4.43-5.119-7.528-9.689-7.528H420.233z M492,438h-49.767V325.962H492V438z"></path></g></g><g><g><path d="M379.3,243.93c-1.86-1.86-4.44-2.93-7.07-2.93s-5.21,1.069-7.069,2.93c-1.86,1.86-2.931,4.44-2.931,7.07 s1.07,5.21,2.931,7.069c1.859,1.86,4.439,2.931,7.069,2.931s5.209-1.07,7.07-2.931c1.87-1.859,2.93-4.439,2.93-7.069 S381.17,245.79,379.3,243.93z"></path></g></g></svg>