<svg width="36.000000" height="40.000000" viewBox="0 0 36 40" fill="none" xmlns="http://www.w3.org/2000/svg" xmlns:xlink="http://www.w3.org/1999/xlink">
	<desc>
			Created with Pixso.
	</desc>
	<defs/>
	<path id="Vector" d="M35.83 12.46C35.83 11.68 35.52 10.95 34.97 10.4L31.11 6.53C30.56 5.98 29.82 5.68 29.04 5.68C28.27 5.68 27.53 5.98 26.98 6.53L25 8.52L24.47 7.98L24.47 6.64C24.47 5.43 23.58 4.43 22.43 4.25L22.43 1.83C22.43 0.82 21.61 0 20.59 0L15.21 0C14.2 0 13.37 0.82 13.37 1.83L13.37 4.25C12.23 4.45 11.37 5.44 11.37 6.64L11.37 7.98L10.83 8.52L8.83 6.53C8.28 5.98 7.55 5.68 6.77 5.68C6 5.68 5.26 5.98 4.71 6.53L0.85 10.4C-0.29 11.53 -0.29 13.38 0.85 14.52L2.84 16.51L2.35 17C2.11 17.24 2.05 17.61 2.21 17.91L3.09 19.6L0.97 23.35C0.84 23.57 0.83 23.83 0.94 24.06L5.16 33.14C5.28 33.41 5.56 33.59 5.86 33.59L8.81 33.59L8.81 35C8.81 35.43 9.16 35.78 9.6 35.78L10.79 35.78L10.79 37.1C10.79 38.7 12.09 40 13.68 40L22.12 40C23.72 40 25.01 38.7 25.01 37.1L25.01 35.78L26.21 35.78C26.64 35.78 26.99 35.43 26.99 35L26.99 33.59L29.94 33.59C30.24 33.59 30.52 33.41 30.65 33.14L34.87 24.06C34.97 23.83 34.96 23.57 34.84 23.35L32.72 19.6L33.6 17.91C33.75 17.61 33.7 17.24 33.46 17L32.97 16.52L34.97 14.52C35.52 13.97 35.83 13.24 35.83 12.46ZM14.93 1.83C14.93 1.68 15.06 1.56 15.21 1.56L20.59 1.56C20.75 1.56 20.87 1.68 20.87 1.83L20.87 4.21L14.93 4.21L14.93 1.83ZM12.93 6.64C12.93 6.16 13.32 5.78 13.79 5.78L22.04 5.78C22.52 5.78 22.9 6.16 22.9 6.64L22.9 7.52L12.93 7.52L12.93 6.64ZM1.95 13.41C1.43 12.89 1.43 12.03 1.95 11.5L5.82 7.64C6.07 7.38 6.41 7.24 6.77 7.24C7.14 7.24 7.47 7.38 7.73 7.64L9.72 9.63L3.94 15.41L1.95 13.41ZM8.81 32.03L6.36 32.03L2.52 23.77L3.95 21.25L8.81 30.62L8.81 32.03ZM23.45 37.1C23.45 37.84 22.85 38.43 22.12 38.43L13.68 38.43C12.95 38.43 12.36 37.84 12.36 37.1L12.36 35.78L23.45 35.78L23.45 37.1ZM25.52 30.06C25.46 30.18 25.43 30.3 25.43 30.42L25.43 34.21L24.23 34.21L22 34.21C23.29 33.05 23.99 31.41 24.01 29.73C24.01 29.72 24.01 29.71 24.01 29.69L24.01 23.84C24.01 23.41 23.66 23.06 23.23 23.06C22.8 23.06 22.45 23.41 22.45 23.84L22.45 25.62C21.3 24.35 19.65 23.6 17.91 23.6C17.91 23.6 17.9 23.6 17.9 23.6C17.47 23.6 17.12 23.95 17.12 24.38C17.12 24.81 17.47 25.16 17.9 25.16C17.9 25.16 17.91 25.16 17.91 25.16C19.51 25.16 21 26.01 21.82 27.39C23.09 29.54 22.37 32.32 20.22 33.59C19.58 33.97 18.88 34.17 18.18 34.21L17.64 34.21C16.19 34.12 14.81 33.34 14.01 32C13.26 30.73 13.18 29.17 13.78 27.83C13.96 27.43 13.79 26.97 13.39 26.79C13 26.62 12.54 26.79 12.36 27.18C12.31 27.29 12.27 27.39 12.23 27.49L10.03 21.73C10.23 21.77 10.43 21.79 10.63 21.79C12.44 21.79 13.92 20.32 13.92 18.51C13.92 17.47 13.43 16.54 12.67 15.94L18.69 13.74C18.69 13.8 18.69 13.85 18.69 13.91C18.69 15.38 19.88 16.57 21.35 16.57C21.74 16.57 22.11 16.49 22.45 16.33L22.45 17.78C22.45 18.21 22.8 18.56 23.23 18.56C23.66 18.56 24.01 18.21 24.01 17.78L24.01 13.91C24.01 12.44 22.81 11.25 21.35 11.25C20.88 11.25 20.45 11.37 20.07 11.58L9.56 15.41C9.55 15.41 9.55 15.41 9.54 15.42C8.27 15.87 7.35 17.08 7.35 18.51C7.35 18.98 7.45 19.42 7.63 19.82L12.11 31.55C12.11 31.56 12.12 31.56 12.12 31.57C12.25 31.99 12.44 32.4 12.67 32.79C12.99 33.34 13.38 33.81 13.83 34.21L11.57 34.21L10.38 34.21L10.38 30.42C10.38 30.3 10.35 30.18 10.29 30.06L3.86 17.7L12.47 9.09L23.36 9.09L31.95 17.7L25.52 30.06ZM8.92 18.51C8.92 17.56 9.69 16.79 10.63 16.79C11.58 16.79 12.35 17.56 12.35 18.51C12.35 19.46 11.58 20.23 10.63 20.23C9.69 20.23 8.92 19.46 8.92 18.51ZM20.25 13.91C20.25 13.31 20.74 12.81 21.35 12.81C21.95 12.81 22.45 13.31 22.45 13.91C22.45 14.52 21.95 15.01 21.35 15.01C20.74 15.01 20.25 14.52 20.25 13.91ZM33.28 23.77L29.44 32.03L26.99 32.03L26.99 30.62L31.86 21.25L33.28 23.77ZM33.87 13.41L31.87 15.41L26.1 9.62L28.09 7.64C28.34 7.38 28.68 7.24 29.05 7.24C29.41 7.24 29.75 7.38 30 7.64L33.87 11.5C34.12 11.76 34.26 12.1 34.26 12.46C34.26 12.82 34.12 13.16 33.87 13.41Z" fill="#FFFFFF" fill-opacity="1.000000" fill-rule="nonzero"/>
	<path id="Vector" d="M15.9 24.72C15.68 24.35 15.2 24.22 14.83 24.44L14.82 24.44C14.44 24.66 14.32 25.14 14.54 25.51C14.68 25.76 14.94 25.9 15.21 25.9C15.35 25.9 15.48 25.87 15.61 25.79C15.61 25.79 15.61 25.79 15.62 25.79C15.99 25.57 16.11 25.09 15.9 24.72Z" fill="#FFFFFF" fill-opacity="1.000000" fill-rule="nonzero"/>
	<path id="Vector" d="M17.91 26.72C16.28 26.72 14.95 28.06 14.95 29.69C14.95 31.33 16.28 32.66 17.91 32.66C19.55 32.66 20.88 31.33 20.88 29.69C20.88 28.06 19.55 26.72 17.91 26.72ZM17.91 31.1C17.14 31.1 16.51 30.47 16.51 29.69C16.51 28.92 17.14 28.29 17.91 28.29C18.69 28.29 19.32 28.92 19.32 29.69C19.32 30.47 18.69 31.1 17.91 31.1Z" fill="#FFFFFF" fill-opacity="1.000000" fill-rule="nonzero"/>
	<path id="Vector" d="M10.64 17.78L10.63 17.78C10.63 17.78 10.63 17.78 10.63 17.78C10.2 17.78 9.85 18.13 9.85 18.56C9.85 18.99 10.2 19.34 10.63 19.35L10.64 19.35C10.64 19.35 10.64 19.35 10.64 19.35C11.07 19.35 11.42 19 11.42 18.57C11.42 18.14 11.07 17.79 10.64 17.78Z" fill="#FFFFFF" fill-opacity="1.000000" fill-rule="nonzero"/>
	<path id="Vector" d="M23.78 20.3C23.63 20.16 23.43 20.07 23.23 20.07C23.02 20.07 22.82 20.16 22.67 20.3C22.53 20.45 22.45 20.65 22.45 20.85C22.45 21.06 22.53 21.26 22.67 21.41C22.82 21.55 23.02 21.64 23.23 21.64C23.43 21.64 23.63 21.55 23.78 21.41C23.92 21.26 24.01 21.06 24.01 20.85C24.01 20.65 23.92 20.45 23.78 20.3Z" fill="#FFFFFF" fill-opacity="1.000000" fill-rule="nonzero"/>
	<path id="Vector" d="M32.15 11.66L32.09 11.61C31.79 11.3 31.3 11.3 30.99 11.61C30.68 11.91 30.68 12.41 30.99 12.71L31.04 12.77C31.2 12.92 31.4 13 31.6 13C31.8 13 32 12.92 32.15 12.77C32.45 12.46 32.45 11.97 32.15 11.66Z" fill="#FFFFFF" fill-opacity="1.000000" fill-rule="nonzero"/>
	<path id="Vector" d="M29.89 9.4L29.83 9.34C29.53 9.04 29.03 9.04 28.73 9.34C28.42 9.64 28.42 10.14 28.73 10.44L28.78 10.5C28.93 10.65 29.14 10.73 29.34 10.73C29.53 10.73 29.73 10.65 29.89 10.5C30.19 10.2 30.19 9.7 29.89 9.4Z" fill="#FFFFFF" fill-opacity="1.000000" fill-rule="nonzero"/>
	<path id="Vector" d="M7.09 9.34C6.79 9.04 6.29 9.04 5.99 9.34L5.93 9.4C5.63 9.7 5.63 10.2 5.93 10.5C6.08 10.65 6.28 10.73 6.48 10.73C6.68 10.73 6.88 10.65 7.04 10.5L7.09 10.44C7.4 10.14 7.4 9.64 7.09 9.34Z" fill="#FFFFFF" fill-opacity="1.000000" fill-rule="nonzero"/>
	<path id="Vector" d="M4.83 11.61C4.52 11.3 4.03 11.3 3.72 11.61L3.67 11.66C3.36 11.97 3.37 12.47 3.67 12.77C3.82 12.92 4.02 13 4.22 13C4.42 13 4.62 12.92 4.78 12.77L4.83 12.71C5.14 12.41 5.13 11.91 4.83 11.61Z" fill="#FFFFFF" fill-opacity="1.000000" fill-rule="nonzero"/>
</svg>
