<!-- icon666.com - MILLIONS vector ICONS FREE --><svg version="1.1" id="Capa_1" xmlns="http://www.w3.org/2000/svg" xmlns:xlink="http://www.w3.org/1999/xlink" x="0px" y="0px" viewBox="0 0 512.002 512.002" style="enable-background:new 0 0 512.002 512.002;" xml:space="preserve"><g><g><path d="M413.472,98.527c-8.815-8.814-20.536-13.671-33.003-13.671c-12.466,0-24.185,4.856-33.001,13.671 c-8.815,8.814-13.671,20.535-13.671,33.003c0,12.467,4.854,24.187,13.67,33.003c9.099,9.098,21.05,13.648,33.002,13.648 c11.953,0,23.904-4.55,33.003-13.648C431.668,146.334,431.668,116.724,413.472,98.527z M399.33,150.39 c-10.4,10.4-27.321,10.4-37.719,0c-5.038-5.037-7.812-11.736-7.812-18.859c0-7.124,2.774-13.822,7.812-18.859 c5.037-5.038,11.735-7.813,18.859-7.813s13.822,2.774,18.859,7.813C409.728,123.069,409.728,139.99,399.33,150.39z"></path></g></g><g><g><path d="M330.494,181.506c-18.198-18.196-47.806-18.196-66.005,0c-8.814,8.814-13.67,20.536-13.67,33.003 c0,12.467,4.854,24.188,13.67,33.003c9.098,9.098,21.05,13.648,33.002,13.648c11.952,0,23.903-4.55,33.002-13.648 c8.816-8.815,13.672-20.536,13.672-33.003C344.164,202.042,339.309,190.321,330.494,181.506z M316.351,233.368 c-10.398,10.398-27.319,10.398-37.719,0c-5.038-5.037-7.812-11.735-7.812-18.859c0-7.124,2.774-13.822,7.811-18.859 c10.399-10.4,27.32-10.4,37.72,0c5.037,5.037,7.812,11.735,7.812,18.859C324.163,221.633,321.388,228.331,316.351,233.368z"></path></g></g><g><g><path d="M247.515,264.484c-18.197-18.196-47.807-18.196-66.004,0c-8.815,8.814-13.671,20.536-13.671,33.003 c0,12.467,4.855,24.188,13.671,33.003c9.1,9.099,21.049,13.649,33.003,13.648c11.951-0.002,23.904-4.551,33.003-13.648 c8.813-8.814,13.669-20.536,13.669-33.003C261.185,285.02,256.331,273.299,247.515,264.484z M233.372,316.347 c-10.4,10.4-27.321,10.4-37.719,0c-5.037-5.037-7.812-11.735-7.812-18.859s2.774-13.822,7.812-18.859 c5.199-5.199,12.03-7.799,18.859-7.799c6.829,0,13.66,2.6,18.859,7.799c5.038,5.037,7.812,11.735,7.812,18.859 S238.41,311.31,233.372,316.347z"></path></g></g><g><g><path d="M164.536,347.464c-18.199-18.196-47.807-18.196-66.005,0c-18.197,18.198-18.197,47.808,0,66.005 c8.815,8.814,20.536,13.671,33.003,13.671s24.187-4.855,33.002-13.671c8.815-8.814,13.671-20.535,13.671-33.003 C178.206,368,173.351,356.279,164.536,347.464z M150.392,399.325c-5.037,5.038-11.735,7.813-18.859,7.813 c-7.124,0-13.822-2.774-18.859-7.813c-10.4-10.398-10.4-27.319-0.001-37.718c5.2-5.2,12.03-7.799,18.86-7.799 c6.829,0,13.661,2.6,18.859,7.799c5.038,5.037,7.812,11.736,7.812,18.859C158.205,387.591,155.43,394.288,150.392,399.325z"></path></g></g><g><g><path d="M503.715,131.722c-5.739-5.739-13.604-8.663-21.54-8.249l-19.447-19.447c-3.905-3.904-10.238-3.904-14.143,0 c-3.905,3.905-3.905,10.237,0,14.144l23.027,23.026c2.56,2.561,6.303,3.535,9.787,2.553c2.912-0.819,6.044-0.012,8.171,2.117 c3.25,3.25,3.25,8.537,0,11.788c-1.901,1.902-4.529,2.748-7.207,2.318c-3.17-0.511-6.384,0.535-8.651,2.803l-61.999,61.998 c-2.267,2.268-3.31,5.484-2.803,8.651c0.429,2.679-0.417,5.306-2.318,7.208c-1.902,1.9-4.529,2.746-7.209,2.317 c-3.165-0.506-6.382,0.536-8.649,2.804l-61.998,61.997c-2.268,2.268-3.31,5.484-2.804,8.651c0.429,2.679-0.416,5.306-2.318,7.207 c-1.902,1.902-4.529,2.751-7.207,2.319c-3.167-0.514-6.384,0.535-8.651,2.803l-61.998,61.998c-2.268,2.268-3.31,5.485-2.804,8.651 c0.429,2.679-0.416,5.306-2.318,7.207c-1.901,1.902-4.527,2.749-7.208,2.318c-3.169-0.512-6.384,0.535-8.651,2.803l-61.998,61.998 c-2.267,2.268-3.31,5.484-2.803,8.65c0.428,2.68-0.417,5.307-2.318,7.208c-3.25,3.25-8.538,3.249-11.788,0.001 c-2.128-2.129-2.939-5.26-2.117-8.173c0.983-3.484,0.007-7.228-2.553-9.787L40.392,370.802c-2.561-2.561-6.304-3.535-9.789-2.553 c-2.909,0.822-6.043,0.012-8.171-2.117c-3.25-3.25-3.25-8.537,0-11.788c2.109-2.107,5.217-2.924,8.113-2.129 c3.463,0.947,7.176-0.031,9.718-2.572l60.445-60.445c2.541-2.542,3.523-6.251,2.572-9.718c-0.795-2.897,0.021-6.007,2.13-8.115 c2.107-2.107,5.218-2.923,8.113-2.129c3.467,0.953,7.175-0.031,9.716-2.572l60.446-60.445c2.542-2.542,3.523-6.252,2.572-9.719 c-0.795-2.896,0.021-6.005,2.129-8.113c2.107-2.108,5.216-2.926,8.114-2.129c3.465,0.952,7.175-0.031,9.716-2.572l60.446-60.445 c2.541-2.542,3.523-6.251,2.572-9.719c-0.795-2.896,0.021-6.006,2.128-8.113c2.108-2.107,5.219-2.924,8.113-2.129 c3.463,0.948,7.176-0.031,9.719-2.572l60.445-60.445c2.542-2.542,3.524-6.251,2.573-9.717c-0.795-2.897,0.021-6.007,2.129-8.114 c3.25-3.25,8.538-3.249,11.788-0.001c2.128,2.129,2.939,5.26,2.117,8.173c-0.983,3.483-0.007,7.228,2.553,9.787l18.027,18.027 c3.906,3.904,10.239,3.904,14.143,0c3.905-3.905,3.906-10.237,0-14.144l-14.447-14.447c0.418-7.932-2.511-15.801-8.25-21.54 c-11.05-11.049-29.026-11.049-40.074,0c-5.69,5.689-8.622,13.502-8.252,21.383l-53.344,53.344 c-7.885-0.364-15.693,2.563-21.383,8.253c-5.689,5.69-8.62,13.501-8.251,21.382l-53.345,53.345 c-7.875-0.368-15.692,2.562-21.382,8.252c-5.69,5.689-8.622,13.501-8.252,21.382l-53.344,53.345 c-7.888-0.364-15.693,2.562-21.382,8.252c-5.69,5.689-8.622,13.501-8.252,21.383l-53.344,53.344 c-7.872-0.364-15.692,2.563-21.382,8.252c-11.049,11.049-11.049,29.025,0,40.074c5.74,5.739,13.609,8.667,21.54,8.249 l93.647,93.648c-0.418,7.932,2.511,15.801,8.25,21.54c5.524,5.523,12.781,8.286,20.037,8.286c7.256,0,14.513-2.763,20.037-8.286 c5.082-5.082,7.996-11.913,8.259-18.998l55.721-55.722c7.084-0.263,13.917-3.177,18.999-8.26 c5.082-5.082,7.996-11.913,8.259-18.997l55.722-55.722c7.083-0.264,13.915-3.178,18.997-8.259 c5.083-5.082,7.997-11.914,8.26-18.999l55.722-55.721c7.084-0.264,13.917-3.179,18.997-8.26c5.083-5.082,7.997-11.914,8.26-18.998 l55.721-55.722c7.084-0.263,13.916-3.177,18.998-8.259C514.764,160.747,514.764,142.769,503.715,131.722z"></path></g></g><g><g><path d="M432.181,73.48c-1.86-1.86-4.43-2.931-7.07-2.931c-2.63,0-5.21,1.07-7.07,2.931c-1.86,1.859-2.93,4.439-2.93,7.069 s1.07,5.21,2.93,7.07c1.86,1.87,4.44,2.93,7.07,2.93c2.64,0,5.21-1.06,7.07-2.93c1.87-1.86,2.93-4.44,2.93-7.07 S434.051,75.339,432.181,73.48z"></path></g></g><g><g><path d="M134.22,285.905c-3.889-3.918-10.221-3.943-14.143-0.055l-0.127,0.126c-3.92,3.891-3.944,10.222-0.054,14.144 c1.955,1.97,4.526,2.956,7.099,2.956c2.546,0,5.093-0.967,7.043-2.901l0.127-0.126 C138.087,296.158,138.111,289.827,134.22,285.905z"></path></g></g><g><g><path d="M217.173,202.898c-3.905-3.904-10.237-3.904-14.144,0l-0.127,0.127c-3.905,3.905-3.905,10.238,0,14.144 c1.953,1.952,4.512,2.929,7.071,2.929s5.119-0.977,7.072-2.929l0.127-0.127C221.078,213.137,221.078,206.805,217.173,202.898z"></path></g></g><g><g><path d="M300.152,119.919c-3.905-3.904-10.238-3.904-14.144,0l-0.127,0.127c-3.905,3.905-3.905,10.238,0,14.144 c1.953,1.952,4.512,2.929,7.071,2.929s5.12-0.977,7.072-2.929l0.127-0.127C304.057,130.158,304.057,123.825,300.152,119.919z"></path></g></g><g><g><path d="M392.106,211.876c-3.889-3.919-10.221-3.943-14.143-0.055l-0.127,0.126c-3.92,3.891-3.944,10.222-0.054,14.144 c1.955,1.97,4.526,2.956,7.099,2.956c2.546,0,5.093-0.967,7.043-2.901l0.127-0.126 C395.973,222.128,395.997,215.797,392.106,211.876z"></path></g></g><g><g><path d="M309.1,294.827c-3.904-3.904-10.237-3.904-14.143,0l-0.127,0.127c-3.905,3.905-3.905,10.237,0,14.144 c1.953,1.952,4.512,2.929,7.071,2.929s5.119-0.977,7.071-2.929l0.127-0.127C313.005,305.065,313.005,298.733,309.1,294.827z"></path></g></g><g><g><path d="M226.121,377.806c-3.905-3.904-10.238-3.904-14.143,0l-0.127,0.127c-3.905,3.905-3.905,10.238,0,14.144 c1.953,1.952,4.512,2.929,7.071,2.929s5.119-0.977,7.071-2.929l0.127-0.127C230.026,388.045,230.026,381.712,226.121,377.806z"></path></g></g></svg>