<!-- icon666.com - MILLIONS vector ICONS FREE --><svg version="1.1" id="Capa_1" xmlns="http://www.w3.org/2000/svg" xmlns:xlink="http://www.w3.org/1999/xlink" x="0px" y="0px" viewBox="0 0 511.999 511.999" style="enable-background:new 0 0 511.999 511.999;" xml:space="preserve"><g><g><path d="M485.314,159.528c0-9.964-3.88-19.332-10.926-26.376L424.9,83.664c-7.046-7.046-16.413-10.926-26.377-10.926 c-9.964,0-19.332,3.88-26.378,10.926l-25.414,25.414l-6.831-6.852V85c0-15.391-11.276-28.193-26-30.591V23.545 C313.9,10.563,303.338,0,290.355,0h-68.908C208.464,0,197.9,10.563,197.9,23.545v30.928C183.354,57.02,172.26,69.735,172.26,85 v17.218l-6.935,6.935l-25.49-25.49c-7.046-7.045-16.414-10.926-26.378-10.926s-19.331,3.88-26.377,10.926L37.593,133.15 c-14.544,14.544-14.544,38.209,0,52.754l25.489,25.489l-6.253,6.253c-3.085,3.085-3.813,7.813-1.802,11.684l11.228,21.597 L39.111,298.92c-1.589,2.809-1.725,6.212-0.364,9.139l54,116.156c1.641,3.528,5.178,5.784,9.068,5.784h37.753v18 c0,5.523,4.478,10,10,10H164.9v17c0,20.402,16.598,37,37,37h108c20.402,0,37-16.598,37-37v-17h15.333c5.522,0,10-4.477,10-10v-18 h37.753c3.891,0,7.428-2.256,9.068-5.784l54-116.156c1.36-2.927,1.225-6.33-0.364-9.139l-27.145-47.991l11.228-21.597 c2.009-3.866,1.285-8.587-1.791-11.673l-6.165-6.183l25.57-25.57C481.434,178.86,485.314,169.492,485.314,159.528z M217.9,23.545 c0-1.955,1.591-3.545,3.546-3.545h68.908c1.955,0,3.546,1.59,3.546,3.545V54h-76V23.545z M192.26,85c0-6.065,4.934-11,11-11 h105.641c6.065,0,11,4.935,11,11v11.36H192.26V85z M51.736,171.764c-6.746-6.747-6.746-17.724,0-24.47l49.487-49.488 c3.268-3.268,7.613-5.068,12.234-5.068c4.622,0,8.968,1.8,12.235,5.068l25.49,25.489l-73.957,73.957L51.736,171.764z M139.567,410 h-31.374L59.051,304.291l18.21-32.194l62.307,119.847V410z M326.9,475c0,9.374-7.626,17-17,17h-108c-9.374,0-17-7.626-17-17v-17 h142V475z M353.361,384.887c-0.74,1.425-1.127,3.007-1.127,4.613V438H336.9h-28.549c16.451-14.857,25.491-35.856,25.674-57.342 c0.009-0.178,0.027-0.354,0.027-0.535V305.25c0-5.523-4.478-10-10-10c-5.522,0-10,4.477-10,10v22.747 c-14.651-16.243-35.782-25.885-58.065-25.885c-0.031,0-0.068,0-0.1,0c-5.523,0.007-9.994,4.49-9.987,10.013 c0.007,5.518,4.482,9.987,10,9.987c0.028,0.001,0.059,0,0.088,0c20.454,0,39.608,10.918,50.001,28.507 c16.268,27.535,7.101,63.171-20.434,79.439c-8.228,4.861-17.178,7.434-26.118,7.941h-6.853 c-18.583-1.141-36.304-11.174-46.467-28.374c-9.585-16.224-10.678-36.183-2.923-53.39c2.269-5.035,0.026-10.957-5.009-13.226 c-5.031-2.269-10.957-0.027-13.226,5.008c-0.586,1.301-1.129,2.615-1.641,3.938l-28.165-73.696 c2.504,0.467,5.081,0.723,7.719,0.723c23.159,0,42-18.841,42-42c0-13.325-6.244-25.211-15.952-32.911l77.097-28.101 c-0.044,0.71-0.074,1.424-0.074,2.145c0,18.778,15.277,34.055,34.055,34.055c5.01,0,9.767-1.096,14.055-3.048v18.543 c0,5.523,4.478,10,10,10c5.522,0,10-4.477,10-10v-49.549c0-18.778-15.277-34.055-34.055-34.055c-5.93,0-11.508,1.527-16.369,4.203 L149.072,197.31c-0.06,0.022-0.114,0.05-0.173,0.073c-16.309,5.772-28.026,21.34-28.026,39.601c0,5.966,1.258,11.641,3.511,16.785 l57.401,150.195c0.019,0.049,0.042,0.095,0.062,0.144c1.749,5.424,4.096,10.69,7.052,15.692c4.113,6.961,9.147,13.048,14.856,18.2 h-28.854h-15.333v-48.5c0-1.606-0.387-3.188-1.127-4.613L76.153,226.608L186.403,116.36h139.347l109.904,110.238L353.361,384.887z M140.874,236.984c0-12.131,9.869-22,22-22c12.131,0,22,9.869,22,22c0,12.131-9.869,22-22,22 C150.742,258.984,140.874,249.115,140.874,236.984z M285.944,178.118c0-7.75,6.305-14.055,14.055-14.055 s14.055,6.305,14.055,14.055c0,7.75-6.305,14.055-14.055,14.055S285.944,185.868,285.944,178.118z M452.751,304.291L403.608,410 h-31.374v-18.056l62.307-119.847L452.751,304.291z M460.246,171.763l-25.548,25.548l-73.844-74.069l25.436-25.436 c3.268-3.268,7.613-5.068,12.235-5.068c4.621,0,8.967,1.8,12.234,5.068l49.488,49.488c3.268,3.268,5.067,7.613,5.067,12.234 C465.314,164.149,463.514,168.495,460.246,171.763z"></path></g></g><g><g><path d="M230.213,316.455c-2.789-4.766-8.914-6.367-13.682-3.579l-0.12,0.071c-4.767,2.79-6.368,8.916-3.578,13.682 c1.86,3.179,5.204,4.95,8.64,4.95c1.714,0,3.454-0.442,5.042-1.371c0.005-0.003,0.104-0.062,0.12-0.071 C231.403,327.347,233.004,321.221,230.213,316.455z"></path></g></g><g><g><path d="M256.053,342.123c-20.953,0-38,17.047-38,38s17.047,38,38,38s38-17.047,38-38S277.007,342.123,256.053,342.123z M256.053,398.123c-9.925,0-18-8.075-18-18s8.075-18,18-18c9.925,0,18,8.075,18,18S265.978,398.123,256.053,398.123z"></path></g></g><g><g><path d="M162.973,227.69h-0.11c-0.015,0-0.029,0-0.045,0c-5.502,0-9.975,4.448-9.999,9.956c-0.024,5.522,4.433,10.02,9.956,10.044 h0.11c0.015,0,0.029,0,0.045,0c5.502,0,9.975-4.448,9.999-9.956C172.952,232.211,168.495,227.714,162.973,227.69z"></path></g></g><g><g><path d="M331.121,259.93c-1.86-1.86-4.439-2.93-7.07-2.93c-2.63,0-5.21,1.07-7.069,2.93c-1.86,1.86-2.931,4.44-2.931,7.07 s1.07,5.21,2.931,7.07c1.859,1.86,4.439,2.93,7.069,2.93c2.631,0,5.21-1.07,7.07-2.93c1.86-1.86,2.93-4.44,2.93-7.07 S332.981,261.79,331.121,259.93z"></path></g></g><g><g><path d="M438.268,149.372l-0.706-0.707c-3.901-3.91-10.231-3.919-14.143-0.02c-3.91,3.9-3.919,10.232-0.02,14.143l0.706,0.708 c1.954,1.958,4.518,2.938,7.081,2.938c2.555,0,5.109-0.973,7.062-2.919C442.158,159.615,442.168,153.283,438.268,149.372z"></path></g></g><g><g><path d="M409.322,120.337l-0.706-0.707c-3.901-3.91-10.231-3.919-14.143-0.02c-3.91,3.9-3.919,10.232-0.02,14.143l0.706,0.708 c1.954,1.958,4.518,2.938,7.081,2.938c2.555,0,5.109-0.973,7.062-2.919C413.212,130.58,413.22,124.248,409.322,120.337z"></path></g></g><g><g><path d="M117.508,119.611c-3.911-3.9-10.243-3.891-14.143,0.019l-0.706,0.708c-3.899,3.911-3.891,10.243,0.02,14.143 c1.952,1.946,4.507,2.919,7.062,2.919c2.563,0,5.128-0.98,7.081-2.938l0.706-0.708 C121.427,129.843,121.419,123.511,117.508,119.611z"></path></g></g><g><g><path d="M88.562,148.646c-3.912-3.9-10.244-3.891-14.143,0.019l-0.706,0.708c-3.899,3.911-3.891,10.243,0.02,14.143 c1.952,1.946,4.507,2.919,7.062,2.919c2.563,0,5.128-0.98,7.081-2.938l0.706-0.708C92.481,158.878,92.473,152.546,88.562,148.646z "></path></g></g></svg>