<svg width="97" height="80" viewBox="0 0 97 80" fill="none" xmlns="http://www.w3.org/2000/svg">
<path d="M69.2304 0.00187018C61.1696 -0.0412077 53.5067 3.4989 48.3144 9.66466C43.1547 3.45676 35.4704 -0.0934162 27.3985 0.00187018C12.2667 0.00187018 0 12.2685 0 27.4003C0 53.3313 45.2566 78.6504 47.0914 79.629C47.8317 80.1237 48.7972 80.1237 49.5377 79.629C51.3725 78.6504 96.6291 53.6982 96.6291 27.4003C96.6291 12.2685 84.3622 0.00187018 69.2304 0.00187018ZM48.3144 74.7364C41.2201 70.5777 4.89262 48.4387 4.89262 27.4003C4.89262 14.9707 14.9689 4.89425 27.3987 4.89425C35.0104 4.79428 42.1337 8.6336 46.2352 15.0464C47.068 16.1947 48.6743 16.4506 49.8226 15.6176C50.042 15.4584 50.2349 15.2657 50.3939 15.0464C57.1962 4.64328 71.1441 1.72428 81.5471 8.52661C87.9156 12.6909 91.7489 19.791 91.7362 27.4001C91.7364 48.6831 55.4087 70.6999 48.3144 74.7364Z" fill="black"/>
</svg>
