<!-- icon666.com - MILLIONS vector ICONS FREE --><svg version="1.1" id="Capa_1" xmlns="http://www.w3.org/2000/svg" xmlns:xlink="http://www.w3.org/1999/xlink" x="0px" y="0px" viewBox="0 0 512 512" style="enable-background:new 0 0 512 512;" xml:space="preserve"><g><g><path d="M330.095,181.789c-17.544-17.544-46.091-17.543-63.635,0.001c-17.544,17.544-17.544,46.09,0,63.634s46.09,17.545,63.635,0 C347.681,227.84,347.684,199.376,330.095,181.789z M308.884,224.213c-5.848,5.848-15.363,5.849-21.212,0 c-5.848-5.849-5.848-15.364,0-21.211c5.85-5.849,15.363-5.848,21.212,0C314.746,208.865,314.745,218.351,308.884,224.213z"></path></g></g><g><g><path d="M244.249,267.636c-17.544-17.544-46.09-17.545-63.634,0c-17.587,17.586-17.588,46.048,0,63.635 c17.543,17.544,46.09,17.545,63.634,0C261.834,313.687,261.835,285.223,244.249,267.636z M223.037,310.059 c-5.849,5.849-15.364,5.848-21.211,0c-5.863-5.863-5.863-15.349,0-21.211c5.848-5.848,15.364-5.849,21.211,0 C228.899,294.709,228.899,304.197,223.037,310.059z"></path></g></g><g><g><path d="M159.402,352.483c-17.543-17.544-46.09-17.545-63.635,0c-17.543,17.544-17.543,46.09,0,63.635 c17.544,17.544,46.089,17.545,63.635,0C176.947,398.573,176.947,370.027,159.402,352.483z M138.191,394.905 c-5.849,5.848-15.364,5.849-21.211,0c-5.849-5.849-5.849-15.364,0-21.211c5.863-5.863,15.349-5.863,21.212,0 C144.039,379.542,144.039,389.058,138.191,394.905z"></path></g></g><g><g><path d="M414.941,96.944c-17.585-17.585-46.049-17.588-63.634,0c-17.59,17.588-17.585,46.051-0.001,63.634 c17.585,17.586,46.048,17.588,63.635,0.001C432.527,142.994,432.53,114.531,414.941,96.944z M393.729,139.367 c-5.862,5.862-15.349,5.863-21.211,0c-5.862-5.862-5.864-15.349,0.001-21.212c5.86-5.862,15.348-5.862,21.21,0 C399.592,124.018,399.592,133.505,393.729,139.367z"></path></g></g><g><g><path d="M498.726,98.004l-84.846-84.846c-17.545-17.545-46.092-17.544-63.635,0l-11.347,11.346 c-16.361-7.832-37.033-5.307-51.13,8.708c-0.034,0.033-0.068,0.067-0.102,0.101c-13.826,13.826-16.754,34.485-8.784,51.208 l-24.83,24.83c-16.469-7.884-37.148-5.233-51.178,8.754c-0.024,0.024-0.048,0.048-0.072,0.072 c-13.823,13.823-16.748,34.48-8.771,51.196l-25.84,25.84c-16.724-7.968-37.384-5.04-51.211,8.788 c-13.827,13.828-16.757,34.488-8.788,51.212L83.344,280.06c-16.724-7.968-37.384-5.039-51.212,8.788 c-13.827,13.827-16.756,34.488-8.788,51.211l-10.302,10.302c-17.277,17.278-17.277,46.357,0,63.635l84.846,84.846 c17.543,17.543,46.089,17.544,63.635,0l10.286-10.286c16.382,7.842,37.115,5.308,51.227-8.804 c13.827-13.827,16.757-34.488,8.788-51.211l24.846-24.846c16.725,7.969,37.385,5.039,51.212-8.788 c13.827-13.828,16.758-34.488,8.788-51.212l25.846-25.846c16.724,7.968,37.386,5.039,51.212-8.788 c0.017-0.017,0.038-0.039,0.061-0.061c8.469-8.488,13.132-19.765,13.131-31.76c0-6.831-1.514-13.43-4.382-19.413l24.824-24.824 c16.721,7.965,37.389,5.035,51.234-8.811c14.078-14.077,16.655-34.797,8.787-51.211l11.341-11.341 C516.311,144.055,516.314,115.591,498.726,98.004z M477.515,140.427l-20.15,20.15c-5.821,5.821-5.863,15.245-0.094,21.117 c0.031,0.032,0.083,0.084,0.114,0.115c5.824,5.823,5.888,15.282-0.021,21.19c-5.849,5.846-15.362,5.851-21.212,0 c-5.853-5.854-15.356-5.857-21.211,0l-42.423,42.423c-5.785,5.785-5.867,15.139-0.185,21.024c0.061,0.063,0.143,0.146,0.205,0.208 c2.827,2.828,4.385,6.586,4.385,10.585c0.001,3.998-1.556,7.756-4.383,10.582c-0.016,0.016-0.035,0.036-0.056,0.056 c-5.852,5.815-15.341,5.806-21.176-0.031c-0.502-0.502-1.042-0.969-1.609-1.396c-5.97-4.478-14.326-3.886-19.604,1.393 l-43.423,43.424c-5.858,5.858-5.858,15.354,0,21.211c5.849,5.848,5.849,15.364,0,21.211c-5.849,5.848-15.363,5.849-21.212,0 c-5.854-5.854-15.355-5.857-21.211,0l-42.423,42.424c-5.858,5.858-5.858,15.354,0,21.211c5.849,5.849,5.849,15.364,0,21.211 c-5.849,5.848-15.364,5.848-21.212,0c-5.853-5.854-15.354-5.857-21.211,0l-19.09,19.091c-5.849,5.848-15.364,5.849-21.211,0 l-84.846-84.846c-5.849-5.849-5.849-15.364,0-21.211l19.091-19.091c5.858-5.858,5.858-15.354,0-21.211 c-5.849-5.849-5.849-15.364,0-21.211c5.851-5.851,15.367-5.847,21.212,0c5.857,5.858,15.354,5.858,21.211,0l42.423-42.423 c5.858-5.858,5.858-15.354,0-21.211c-5.862-5.862-5.862-15.35,0-21.211c5.849-5.849,15.364-5.848,21.211,0 c5.858,5.858,15.355,5.858,21.211,0l43.424-43.423c5.878-5.878,5.848-15.416-0.046-21.257c-5.799-5.827-5.804-15.276-0.014-21.106 c0.02-0.02,0.04-0.04,0.06-0.059c5.861-5.861,15.347-5.864,21.208-0.002c0.236,0.236,0.48,0.464,0.731,0.685 c5.943,5.2,14.899,4.902,20.482-0.682l42.423-42.423c5.858-5.858,5.858-15.354,0-21.211c-5.83-5.831-5.85-15.305-0.057-21.154 c0.02-0.019,0.039-0.039,0.059-0.058c5.858-5.859,15.347-5.865,21.206-0.003c0.236,0.236,0.482,0.466,0.732,0.685 c5.944,5.201,14.899,4.901,20.482-0.682l20.15-20.15c5.85-5.849,15.365-5.849,21.212,0l84.846,84.846 C483.377,125.079,483.377,134.566,477.515,140.427z"></path></g></g></svg>