<svg width="40.000000" height="40.000000" viewBox="0 0 40 40" fill="none" xmlns="http://www.w3.org/2000/svg" xmlns:xlink="http://www.w3.org/1999/xlink">
	<desc>
			Created with Pixso.
	</desc>
	<defs/>
	<path id="Vector" d="M8.07 37.21C8.07 37.9 7.93 38.57 7.63 39.2C7.54 39.4 7.34 39.51 7.14 39.51C7.06 39.51 6.98 39.5 6.9 39.46C6.63 39.33 6.51 39.01 6.64 38.74C6.87 38.26 6.98 37.74 6.98 37.21C6.98 35.22 5.37 33.61 3.39 33.61C2.72 33.61 2.07 33.79 1.51 34.14C1.25 34.3 0.91 34.22 0.75 33.96C0.6 33.71 0.68 33.37 0.93 33.21C1.67 32.76 2.52 32.52 3.39 32.52C5.97 32.52 8.07 34.62 8.07 37.21ZM22.14 31.62C22.44 31.62 22.68 31.38 22.68 31.08C22.68 30.78 22.44 30.53 22.14 30.53L9.81 30.53C8.14 28.92 5.88 27.93 3.39 27.93C2.61 27.93 1.83 28.03 1.08 28.22C0.79 28.29 0.62 28.59 0.69 28.88C0.77 29.17 1.06 29.35 1.36 29.28C2.01 29.11 2.7 29.02 3.39 29.02C7.9 29.02 11.57 32.69 11.57 37.2C11.57 37.76 11.51 38.31 11.4 38.85C11.34 39.15 11.53 39.44 11.83 39.5C11.86 39.51 11.9 39.51 11.94 39.51C12.19 39.51 12.42 39.33 12.47 39.07C12.6 38.46 12.66 37.83 12.66 37.21C12.66 35.11 11.95 33.18 10.77 31.62L22.14 31.62L22.14 31.62ZM40 22.13C40 22.43 39.75 22.68 39.45 22.68L38.74 22.68L38.74 39.45C38.74 39.75 38.5 40 38.2 40C37.9 40 37.65 39.75 37.65 39.45L37.65 22.68L37.08 22.68L37.08 39.45C37.08 39.75 36.83 40 36.53 40C36.23 40 35.98 39.75 35.98 39.45L35.98 22.68L14.44 22.68C14.14 22.68 13.9 22.43 13.9 22.13C13.9 21.83 14.14 21.58 14.44 21.58L17.14 21.58L17.14 18.36L8.18 18.36L14.44 23.76L15.74 23.76C22.39 23.76 24.22 30.87 24.24 30.95C24.25 30.99 24.26 31.03 24.26 31.08L24.26 38.88C24.26 39.18 24.01 39.43 23.71 39.43L14.95 39.43C14.65 39.43 14.41 39.18 14.41 38.88C14.41 38.58 14.65 38.34 14.95 38.34L23.17 38.34L23.17 38.02C22.24 37.92 21.03 37.14 21.03 35.26C21.03 33.37 22.24 32.59 23.17 32.49L23.17 31.15C23.11 30.94 22.92 30.29 22.53 29.49C22.52 29.49 22.5 29.5 22.49 29.51C22.44 29.52 21.99 29.59 21.35 29.59C20.35 29.59 18.89 29.4 17.75 28.46C16.77 27.64 16.24 26.43 16.16 24.87C16.02 24.86 15.88 24.85 15.74 24.85L1.19 24.85C0.89 24.85 0.64 24.61 0.64 24.31C0.64 24.01 0.89 23.76 1.19 23.76L2.11 23.76L2.11 19.96C2.11 19.31 2.32 18.77 2.74 18.36C3.59 17.53 4.97 17.55 5.03 17.54L5.98 17.54L4.4 16.18L0.71 17.39C0.65 17.41 0.6 17.42 0.54 17.42C0.31 17.42 0.1 17.27 0.02 17.04C-0.07 16.75 0.08 16.44 0.37 16.35L16.52 11.07C16.81 10.97 17.12 11.13 17.21 11.42C17.3 11.7 17.15 12.01 16.86 12.1L5.31 15.88L7.23 17.54L17.14 17.54L17.14 14.85C17.14 14.63 17.33 14.44 17.55 14.44L20.93 14.44C21.16 14.44 21.34 14.63 21.34 14.85L21.34 17.54L23.79 17.54L24.2 14.79C24.23 14.59 24.41 14.44 24.61 14.44L35.24 14.44C35.44 14.44 35.61 14.59 35.64 14.79L36.41 19.9C36.44 20.12 36.29 20.33 36.06 20.37C36.04 20.37 36.02 20.37 36 20.37C35.8 20.37 35.63 20.22 35.6 20.02L34.88 15.26L24.96 15.26L24.25 20.02C24.21 20.25 24.01 20.4 23.78 20.37C23.56 20.33 23.41 20.12 23.44 19.9L23.67 18.36L21.34 18.36L21.34 21.58L23.38 21.58C23.28 21.49 23.22 21.35 23.22 21.2C23.22 20.9 23.47 20.66 23.77 20.66L36.53 20.66C36.83 20.66 37.08 20.9 37.08 21.2C37.08 21.35 37.02 21.49 36.92 21.58L39.45 21.58C39.75 21.58 40 21.83 40 22.13ZM23.17 36.92L23.17 33.59C22.8 33.68 22.13 34 22.13 35.26C22.12 36.5 22.8 36.83 23.17 36.92ZM17.26 25.01C17.36 26.16 17.75 27.03 18.45 27.61C19.59 28.57 21.27 28.53 21.97 28.47C21.07 27.04 19.59 25.49 17.26 25.01ZM6.93 18.36L5.02 18.36C5 18.36 3.91 18.35 3.31 18.94C3.05 19.2 2.93 19.53 2.93 19.96L2.93 23.76L13.18 23.76L6.93 18.36ZM17.96 21.4L20.52 21.4L20.52 15.26L17.96 15.26L17.96 21.4ZM25.65 15.94L25.14 19.96L29.92 19.96L34.7 19.96L34.19 15.94L29.92 15.94L25.65 15.94ZM19.24 17.24C19.6 17.24 19.89 16.95 19.89 16.59C19.89 16.23 19.6 15.94 19.24 15.94C18.89 15.94 18.6 16.23 18.6 16.59C18.6 16.95 18.89 17.24 19.24 17.24ZM19.46 17.7L19.46 20.81C19.46 20.96 19.58 21.08 19.73 21.08C19.88 21.08 20 20.96 20 20.81L20 17.7C20 17.55 19.88 17.43 19.73 17.43C19.58 17.43 19.46 17.55 19.46 17.7ZM18.76 21.08C18.91 21.08 19.03 20.96 19.03 20.81L19.03 17.7C19.03 17.55 18.91 17.43 18.76 17.43C18.6 17.43 18.48 17.55 18.48 17.7L18.48 20.81C18.48 20.96 18.6 21.08 18.76 21.08ZM0.67 13.53L0.67 0.54C0.67 0.24 0.92 0 1.22 0L38.2 0C38.5 0 38.74 0.24 38.74 0.54L38.74 19.96C38.74 20.26 38.5 20.51 38.2 20.51C37.9 20.51 37.65 20.26 37.65 19.96L37.65 4.1L20.25 4.1L20.25 11.77C20.25 12.07 20.01 12.32 19.71 12.32C19.41 12.32 19.16 12.07 19.16 11.77L19.16 4.1L1.77 4.1L1.77 13.53C1.77 13.83 1.52 14.08 1.22 14.08C0.92 14.08 0.67 13.83 0.67 13.53ZM1.77 1.09L1.77 3.01L37.65 3.01L37.65 1.09L1.77 1.09Z" fill="#FFFFFF" fill-opacity="1.000000" fill-rule="nonzero"/>
</svg>
