<!-- icon666.com - MILLIONS vector ICONS FREE --><svg xmlns="http://www.w3.org/2000/svg" id="Layer_3" data-name="Layer 3" viewBox="0 0 64 64"><path d="M17,16a4,4,0,1,0,4,4A4,4,0,0,0,17,16Zm0,6a2,2,0,1,1,2-2A2,2,0,0,1,17,22Z"></path><path d="M17,59a4,4,0,1,0-4-4A4,4,0,0,0,17,59Zm0-6a2,2,0,1,1-2,2A2,2,0,0,1,17,53Z"></path><path d="M54.98,29.605,52.586,32H51V30.414l2.4-2.394a1,1,0,0,0-.369-1.648A5.954,5.954,0,0,0,45,32a5.637,5.637,0,0,0,.181,1.405L44,34.586l-1-1V32a1,1,0,0,0-.293-.707l-5-5a1,1,0,0,0-1.414,0l-5,5a1,1,0,0,0,0,1.414l5,5A1,1,0,0,0,37,38h1.586l1,1L38.4,40.181A5.725,5.725,0,0,0,37,40a5.956,5.956,0,0,0-5.629,8.026,1,1,0,0,0,1.649.369L35.414,46H37v1.586L34.6,49.98a1,1,0,0,0,.369,1.649A5.956,5.956,0,0,0,43,46a5.725,5.725,0,0,0-.181-1.4l.681-.682,7.793,7.793a1,1,0,0,0,1.414,0l4-4a1,1,0,0,0,0-1.414L48.914,38.5l.682-.681A5.725,5.725,0,0,0,51,38a6.006,6.006,0,0,0,6-6,5.908,5.908,0,0,0-.371-2.026,1,1,0,0,0-1.649-.369ZM37.414,36l-4-4L37,28.414l4,4V34a1,1,0,0,0,.293.707L45.086,38.5,43.5,40.086l-3.793-3.793A1,1,0,0,0,39,36Zm3.332,8.651A3.934,3.934,0,0,1,41,46a4.007,4.007,0,0,1-3.562,3.977l1.269-1.27A1,1,0,0,0,39,48V45a1,1,0,0,0-1-1H35a1,1,0,0,0-.707.293l-1.27,1.269A4.007,4.007,0,0,1,37,42a3.934,3.934,0,0,1,1.349.254A1.007,1.007,0,0,0,39.4,42.02L41,40.414l1.128,1.128a.977.977,0,0,0,0,.916L40.98,43.605A1,1,0,0,0,40.746,44.651ZM52,49.586,44.414,42,47,39.414,54.586,47ZM51,36a3.934,3.934,0,0,1-1.349-.254,1.007,1.007,0,0,0-1.046.234l-1.147,1.148a.977.977,0,0,0-.916,0L45.414,36l1.606-1.6a1,1,0,0,0,.234-1.046A3.934,3.934,0,0,1,47,32a4.006,4.006,0,0,1,3.562-3.976l-1.269,1.269A1,1,0,0,0,49,30v3a1,1,0,0,0,1,1h3a1,1,0,0,0,.707-.293l1.27-1.269A4.007,4.007,0,0,1,51,36Z"></path><path d="M44,20a18.858,18.858,0,0,0-11,3.543V2a1,1,0,0,0-1-1H2A1,1,0,0,0,1,2V32a1,1,0,0,0,1,1H8a1,1,0,0,0,.857-.485L11.566,28H12V47H9a1,1,0,0,0-1,1V62a1,1,0,0,0,1,1H25a1,1,0,0,0,1-1V48a1,1,0,0,0-1-1H22V28h.434l2.708,4.514a1,1,0,0,0,.845.484A18.717,18.717,0,0,0,25,39,19,19,0,1,0,44,20ZM31,11H3V9H31Zm0-8V7H3V3ZM24,61H10V49H24ZM20,47H14V28h6Zm6.565-16-2.708-4.514A1,1,0,0,0,23,26H11a1,1,0,0,0-.857.485L7.434,31H3V13H31V25H26a1,1,0,0,0-.937,1.351L26.8,30.972,26.784,31ZM44,56A17.019,17.019,0,0,1,27,39a16.839,16.839,0,0,1,1.778-7.535,1,1,0,0,0,.041-.795L27.443,27h4.128a1,1,0,0,0,.692-.277A16.994,16.994,0,1,1,44,56Z"></path></svg>