<svg width="24.000000" height="24.000000" viewBox="0 0 24 24" fill="none" xmlns="http://www.w3.org/2000/svg" xmlns:xlink="http://www.w3.org/1999/xlink">
	<desc>
			Created with Pixso.
	</desc>
	<defs>
		<clipPath id="clip87_2399">
			<rect id="promo" width="24.000000" height="24.000000" fill="white" fill-opacity="0"/>
		</clipPath>
	</defs>
	<rect id="promo" width="24.000000" height="24.000000" fill="#FFFFFF" fill-opacity="0"/>
	<g clip-path="url(#clip87_2399)">
		<path id="Vector" d="M22.27 12.39C22.11 12.15 22.11 11.84 22.27 11.6L23.15 10.25C23.95 9.02 23.41 7.37 22.04 6.85L20.54 6.28C20.27 6.17 20.09 5.92 20.08 5.63L19.99 4.03C19.92 2.57 18.51 1.55 17.1 1.93L15.55 2.34C15.27 2.42 14.97 2.32 14.79 2.1L13.78 0.85C12.86 -0.29 11.13 -0.29 10.21 0.85L9.2 2.1C9.02 2.32 8.72 2.42 8.44 2.34L6.89 1.93C5.47 1.55 4.07 2.57 4 4.03L3.91 5.63C3.9 5.92 3.72 6.17 3.45 6.28L1.95 6.85C0.58 7.37 0.04 9.02 0.84 10.25L1.72 11.6C1.88 11.84 1.88 12.15 1.72 12.39L0.84 13.74C0.04 14.97 0.58 16.62 1.95 17.14L3.45 17.71C3.72 17.82 3.9 18.07 3.91 18.36L4 19.96C4.07 21.43 5.48 22.44 6.89 22.06L8.44 21.65C8.72 21.57 9.02 21.67 9.2 21.89L10.21 23.14C11.13 24.28 12.86 24.28 13.78 23.14L14.79 21.89C14.97 21.67 15.27 21.57 15.55 21.65L17.1 22.06C18.52 22.44 19.92 21.42 19.99 19.96L20.08 18.36C20.09 18.07 20.27 17.82 20.54 17.71L22.04 17.14C23.41 16.62 23.95 14.97 23.15 13.74L22.27 12.39ZM21.48 15.68L19.98 16.25C19.14 16.57 18.56 17.37 18.51 18.28L18.43 19.88C18.4 20.35 17.96 20.67 17.51 20.55L15.96 20.13C15.08 19.9 14.14 20.2 13.57 20.91L12.56 22.16C12.27 22.52 11.72 22.52 11.43 22.16L10.42 20.91C9.97 20.36 9.31 20.05 8.63 20.05C8.43 20.05 8.23 20.08 8.03 20.13L6.48 20.55C6.03 20.67 5.59 20.35 5.56 19.88L5.48 18.28C5.43 17.37 4.85 16.57 4.01 16.25L2.51 15.68C2.07 15.51 1.9 14.98 2.15 14.59L3.03 13.25C3.53 12.49 3.53 11.5 3.03 10.74L2.15 9.4C1.9 9 2.07 8.48 2.51 8.31L4.01 7.74C4.85 7.42 5.43 6.62 5.48 5.71L5.56 4.11C5.59 3.64 6.03 3.32 6.48 3.44L8.03 3.86C8.91 4.09 9.85 3.79 10.42 3.08L11.43 1.83C11.72 1.47 12.27 1.47 12.56 1.83L13.57 3.08C14.14 3.79 15.08 4.09 15.96 3.86L17.51 3.44C17.96 3.32 18.4 3.64 18.43 4.11L18.51 5.71C18.56 6.62 19.14 7.42 19.98 7.74L21.48 8.31C21.92 8.48 22.09 9.01 21.84 9.4L20.96 10.74C20.46 11.5 20.46 12.49 20.96 13.25L21.84 14.59C22.09 14.99 21.92 15.51 21.48 15.68Z" fill="#FFFFFF" fill-opacity="1.000000" fill-rule="nonzero"/>
		<path id="Vector" d="M15.91 8C15.6 7.7 15.11 7.7 14.8 8L7.49 15.31C7.18 15.62 7.18 16.12 7.49 16.42C7.64 16.57 7.84 16.65 8.04 16.65C8.24 16.65 8.44 16.57 8.6 16.42L15.91 9.11C16.21 8.81 16.21 8.31 15.91 8Z" fill="#FFFFFF" fill-opacity="1.000000" fill-rule="nonzero"/>
		<path id="Vector" d="M8.83 7.77C7.96 7.77 7.26 8.48 7.26 9.34C7.26 10.2 7.96 10.91 8.83 10.91C9.69 10.91 10.39 10.2 10.39 9.34C10.39 8.48 9.69 7.77 8.83 7.77Z" fill="#FFFFFF" fill-opacity="1.000000" fill-rule="nonzero"/>
		<path id="Vector" d="M14.57 13.52C13.71 13.52 13 14.22 13 15.08C13 15.95 13.71 16.65 14.57 16.65C15.43 16.65 16.14 15.95 16.14 15.08C16.14 14.22 15.44 13.52 14.57 13.52Z" fill="#FFFFFF" fill-opacity="1.000000" fill-rule="nonzero"/>
	</g>
</svg>
