<svg width="68" height="80" viewBox="0 0 68 80" fill="none" xmlns="http://www.w3.org/2000/svg">
<path d="M67.1354 20.5985C67.0943 18.4386 67.0551 16.3982 67.0551 14.4242C67.0551 12.8778 65.8017 11.624 64.2549 11.624C52.2794 11.624 43.1616 8.18241 35.5615 0.792876C34.4742 -0.264479 32.7441 -0.264105 31.6572 0.792876C24.0579 8.18241 14.9415 11.624 2.96678 11.624C1.42033 11.624 0.166584 12.8778 0.166584 14.4242C0.166584 16.3986 0.127754 18.4397 0.0863115 20.6C-0.297502 40.7002 -0.82319 68.2283 32.6922 79.8454C32.9894 79.9485 33.2993 80 33.6092 80C33.919 80 34.2293 79.9485 34.5261 79.8454C68.0441 68.228 67.5192 40.6991 67.1354 20.5985ZM33.6095 74.2282C4.86569 63.7865 5.30028 40.9126 5.68596 20.7068C5.70911 19.4941 5.73151 18.3188 5.74719 17.1666C16.9629 16.6931 25.9318 13.2944 33.6095 6.60609C41.288 13.2944 50.2584 16.6935 61.4748 17.1666C61.4905 18.3184 61.5129 19.493 61.5361 20.7049C61.9214 40.9115 62.3556 63.7861 33.6095 74.2282Z" fill="black"/>
<path d="M43.2523 30.2726L29.7371 43.7871L23.9698 38.0198C22.8762 36.9266 21.1031 36.9266 20.0099 38.0198C18.9164 39.1138 18.9164 40.8865 20.0099 41.9801L27.7571 49.7273C28.3037 50.2739 29.0206 50.5472 29.7371 50.5472C30.4536 50.5472 31.1704 50.2739 31.717 49.7273L47.2118 34.2329C48.3057 33.1393 48.3057 31.3662 47.2122 30.273C46.119 29.1794 44.3459 29.1791 43.2523 30.2726Z" fill="black"/>
</svg>
