<svg width="26.000000" height="22.000000" viewBox="0 0 26 22" fill="none" xmlns="http://www.w3.org/2000/svg" xmlns:xlink="http://www.w3.org/1999/xlink">
	<desc>
			Created with Pixso.
	</desc>
	<defs/>
	<path id="Vector" d="M25.25 9.19L23.84 9.07C23.67 8.55 23.45 8.05 23.15 7.57L24.04 6.58C24.26 6.34 24.24 5.99 24.01 5.76L22.24 4.12C22 3.9 21.61 3.88 21.34 4.08L20.26 4.9C19.75 4.64 19.2 4.42 18.63 4.27L18.5 2.98C18.47 2.67 18.18 2.43 17.84 2.43L15.63 2.43L15.63 0.6C15.63 0.27 15.33 0 14.97 0C14.6 0 14.3 0.27 14.3 0.6L14.3 3.65L11.79 3.65C10.73 3.65 9.71 4.11 9.06 4.89L6.32 8.2L1.72 9.35C0.53 9.65 -0.3 10.64 -0.3 11.78L-0.3 13.4C-0.3 14.78 0.94 15.91 2.45 15.91L2.81 15.91C3.31 17.61 5.21 18.6 7.07 18.15C8.26 17.85 9.19 17 9.51 15.91L14.3 15.91L14.3 20.96C14.3 21.3 14.6 21.57 14.97 21.57C15.33 21.57 15.63 21.3 15.63 20.96L15.63 19.5L17.84 19.5C18.18 19.5 18.47 19.26 18.5 18.95L18.63 17.65C19.2 17.5 19.75 17.29 20.27 17.02L21.35 17.84C21.61 18.04 22 18.03 22.24 17.81L24.02 16.17C24.26 15.95 24.28 15.59 24.06 15.35L23.17 14.35C23.46 13.88 23.69 13.38 23.86 12.86L25.25 12.74C25.59 12.71 25.86 12.45 25.86 12.13L25.86 9.8C25.86 9.49 25.59 9.22 25.25 9.19ZM6.16 17.04C4.98 17.04 4.01 16.16 4.01 15.08C4.01 13.99 4.98 13.11 6.16 13.11C7.34 13.11 8.3 13.99 8.3 15.08C8.3 16.16 7.35 17.04 6.16 17.04ZM14.3 14.68L9.6 14.68C9.37 12.93 7.64 11.7 5.74 11.9C4.16 12.08 2.91 13.23 2.71 14.68L2.45 14.68C1.66 14.69 1.02 14.11 1.02 13.39L1.02 11.78C1.02 11.2 1.45 10.69 2.07 10.53L6.89 9.32C7.03 9.28 7.15 9.21 7.24 9.1L10.12 5.64C10.52 5.15 11.14 4.87 11.8 4.87L14.3 4.87L14.3 14.68ZM15.63 8.38C17.19 7.9 18.87 8.68 19.38 10.11C19.9 11.54 19.06 13.07 17.5 13.55C16.89 13.73 16.24 13.73 15.63 13.55L15.63 8.38ZM24.53 11.57L23.27 11.68C22.98 11.7 22.74 11.9 22.68 12.15C22.52 12.84 22.22 13.48 21.8 14.07C21.64 14.29 21.66 14.58 21.85 14.78L22.66 15.69L21.73 16.54L20.74 15.8C20.52 15.63 20.2 15.61 19.95 15.77C19.32 16.15 18.62 16.42 17.88 16.57C17.59 16.62 17.39 16.84 17.36 17.11L17.24 18.28L15.63 18.28L15.63 14.81C17.95 15.28 20.25 13.94 20.76 11.82C21.28 9.69 19.82 7.58 17.5 7.11C16.88 6.98 16.24 6.98 15.63 7.11L15.63 3.66L17.23 3.66L17.36 4.82C17.39 5.08 17.6 5.3 17.88 5.36C18.62 5.51 19.32 5.78 19.96 6.16C20.21 6.31 20.52 6.29 20.74 6.12L21.72 5.37L22.64 6.22L21.82 7.13C21.63 7.34 21.61 7.63 21.78 7.85C22.2 8.43 22.5 9.08 22.66 9.76C22.72 10.02 22.96 10.21 23.25 10.23L24.53 10.35L24.53 11.57Z" fill="#FFFFFF" fill-opacity="1.000000" fill-rule="nonzero"/>
</svg>
