<svg width="23" height="24" viewBox="0 0 23 24" fill="none" xmlns="http://www.w3.org/2000/svg">
<path d="M21.6 12.6H19.4571V0.857121C19.4572 0.342858 19.1143 0 18.6 0H0.857168C0.342858 0 0 0.342858 0 0.857121V21.6857C0 22.6286 0.685716 24 2.31433 24H20.1429C20.1429 24 20.1429 24 20.2286 24C21.5144 24 22.5429 23.0571 22.5429 21.8571V13.5429C22.4571 13.0285 22.1143 12.6 21.6 12.6ZM2.31428 22.2857C1.88569 22.2857 1.71429 22.0286 1.71429 21.6857V1.71429H17.8286V13.4572V21.6857C17.8286 21.8571 17.8286 22.0286 17.9143 22.2858L2.31428 22.2857ZM20.8286 21.8571H20.7429C20.7429 22.2857 20.2286 22.2858 20.1428 22.2858C19.8 22.2858 19.5428 22.1144 19.5428 21.6857V14.3143H20.8286V21.8571Z" fill="black"/>
<path d="M16.4572 3.00006H3.08576C2.5715 3.00006 2.22864 3.34292 2.22864 3.85718V7.54289C2.22864 8.05715 2.5715 8.40001 3.08576 8.40001H16.4572C16.9714 8.40001 17.3143 8.05715 17.3143 7.54289V3.85718C17.3143 3.34292 16.8857 3.00006 16.4572 3.00006ZM15.6 6.68572H3.94288V4.71426H15.6V6.68572H15.6Z" fill="black"/>
<path d="M8.22863 15.6H3.08576C2.5715 15.6 2.22864 15.9428 2.22864 16.4571V19.4571C2.22864 19.9714 2.5715 20.3143 3.08576 20.3143H8.31435C8.82861 20.3143 9.17147 19.9714 9.17147 19.4571V16.4571C9.08575 15.9428 8.74289 15.6 8.22863 15.6ZM7.45718 18.6H7.37146H3.94288V17.3142H7.45718V18.6Z" fill="black"/>
<path d="M16.4572 9.68573H3.08576C2.5715 9.68573 2.22864 10.0286 2.22864 10.5429C2.22864 11.0571 2.5715 11.4 3.08576 11.4H16.4572C16.9714 11.4 17.3143 11.0571 17.3143 10.5429C17.3143 10.0286 16.8857 9.68573 16.4572 9.68573Z" fill="black"/>
<path d="M16.4572 12.6H3.08576C2.5715 12.6 2.22864 12.9429 2.22864 13.4572C2.22864 13.9714 2.5715 14.3143 3.08576 14.3143H16.4572C16.9714 14.3143 17.3143 13.9714 17.3143 13.4572C17.3143 13.0286 16.8857 12.6 16.4572 12.6Z" fill="black"/>
<path d="M16.4572 15.6H11.2286C10.7143 15.6 10.3715 15.9428 10.3715 16.4571C10.3715 16.9714 10.7143 17.3142 11.2286 17.3142H16.4572C16.9714 17.3142 17.3143 16.9714 17.3143 16.4571C17.3143 15.9428 16.8858 15.6 16.4572 15.6Z" fill="black"/>
<path d="M16.4572 18.6H11.2286C10.7143 18.6 10.3715 18.9428 10.3715 19.4571C10.3715 19.9714 10.7143 20.3142 11.2286 20.3142H16.4572C16.9714 20.3142 17.3143 19.9714 17.3143 19.4571C17.3143 18.9428 16.8858 18.6 16.4572 18.6Z" fill="black"/>
</svg>
