<svg width="23.000000" height="24.000000" viewBox="0 0 23 24" fill="none" xmlns="http://www.w3.org/2000/svg" xmlns:xlink="http://www.w3.org/1999/xlink">
	<desc>
			Created with Pixso.
	</desc>
	<defs/>
	<path d="M21.6 12.6L19.45 12.6L19.45 0.85C19.45 0.34 19.11 0 18.6 0L0.85 0C0.34 0 0 0.34 0 0.85L0 21.68C0 22.62 0.68 24 2.31 24L20.14 24C20.14 24 20.14 24 20.22 24C21.51 24 22.54 23.05 22.54 21.85L22.54 13.54C22.45 13.02 22.11 12.6 21.6 12.6ZM2.31 22.28C1.88 22.28 1.71 22.02 1.71 21.68L1.71 1.71L17.82 1.71L17.82 13.45L17.82 21.68C17.82 21.85 17.82 22.02 17.91 22.28L2.31 22.28ZM20.82 21.85L20.74 21.85C20.74 22.28 20.22 22.28 20.14 22.28C19.79 22.28 19.54 22.11 19.54 21.68L19.54 14.31L20.82 14.31L20.82 21.85Z" fill="#FFFFFF" fill-opacity="1.000000" fill-rule="nonzero"/>
	<path d="M16.45 3L3.08 3C2.57 3 2.22 3.34 2.22 3.85L2.22 7.54C2.22 8.05 2.57 8.4 3.08 8.4L16.45 8.4C16.97 8.4 17.31 8.05 17.31 7.54L17.31 3.85C17.31 3.34 16.88 3 16.45 3ZM15.6 6.68L3.94 6.68L3.94 4.71L15.6 4.71L15.6 6.68L15.6 6.68Z" fill="#FFFFFF" fill-opacity="1.000000" fill-rule="nonzero"/>
	<path d="M8.22 15.6L3.08 15.6C2.57 15.6 2.22 15.94 2.22 16.45L2.22 19.45C2.22 19.97 2.57 20.31 3.08 20.31L8.31 20.31C8.82 20.31 9.17 19.97 9.17 19.45L9.17 16.45C9.08 15.94 8.74 15.6 8.22 15.6ZM7.45 18.6L7.37 18.6L3.94 18.6L3.94 17.31L7.45 17.31L7.45 18.6Z" fill="#FFFFFF" fill-opacity="1.000000" fill-rule="nonzero"/>
	<path d="M16.45 9.68L3.08 9.68C2.57 9.68 2.22 10.02 2.22 10.54C2.22 11.05 2.57 11.4 3.08 11.4L16.45 11.4C16.97 11.4 17.31 11.05 17.31 10.54C17.31 10.02 16.88 9.68 16.45 9.68Z" fill="#FFFFFF" fill-opacity="1.000000" fill-rule="nonzero"/>
	<path d="M16.45 12.6L3.08 12.6C2.57 12.6 2.22 12.94 2.22 13.45C2.22 13.97 2.57 14.31 3.08 14.31L16.45 14.31C16.97 14.31 17.31 13.97 17.31 13.45C17.31 13.02 16.88 12.6 16.45 12.6Z" fill="#FFFFFF" fill-opacity="1.000000" fill-rule="nonzero"/>
	<path d="M16.45 15.6L11.22 15.6C10.71 15.6 10.37 15.94 10.37 16.45C10.37 16.97 10.71 17.31 11.22 17.31L16.45 17.31C16.97 17.31 17.31 16.97 17.31 16.45C17.31 15.94 16.88 15.6 16.45 15.6Z" fill="#FFFFFF" fill-opacity="1.000000" fill-rule="nonzero"/>
	<path d="M16.45 18.6L11.22 18.6C10.71 18.6 10.37 18.94 10.37 19.45C10.37 19.97 10.71 20.31 11.22 20.31L16.45 20.31C16.97 20.31 17.31 19.97 17.31 19.45C17.31 18.94 16.88 18.6 16.45 18.6Z" fill="#FFFFFF" fill-opacity="1.000000" fill-rule="nonzero"/>
</svg>
