<svg width="40.000000" height="35.000000" viewBox="0 0 40 35" fill="none" xmlns="http://www.w3.org/2000/svg" xmlns:xlink="http://www.w3.org/1999/xlink">
	<desc>
			Created with Pixso.
	</desc>
	<defs/>
	<path id="Vector" d="M21.17 25.35L21.17 21.53C22.81 21.11 24.11 19.81 24.54 18.16L34.14 18.17L34.14 21.68C34.14 22.33 34.66 22.85 35.31 22.85C35.95 22.85 36.48 22.33 36.48 21.68L36.48 8.64C38.5 8.12 40 6.28 40 4.1C40 1.52 37.89 -0.58 35.31 -0.58C32.72 -0.58 30.62 1.52 30.62 4.1C30.62 6.28 32.12 8.12 34.14 8.64L34.14 15.83L24.53 15.82C24.1 14.17 22.81 12.88 21.17 12.46L21.17 8.64C23.19 8.12 24.68 6.28 24.68 4.1C24.68 1.52 22.58 -0.58 20 -0.58C17.41 -0.58 15.31 1.52 15.31 4.1C15.31 6.28 16.8 8.12 18.82 8.64L18.82 12.46C17.18 12.88 15.88 14.18 15.46 15.82L5.85 15.82L5.85 8.64C7.87 8.12 9.37 6.28 9.37 4.1C9.37 1.52 7.27 -0.58 4.68 -0.58C2.1 -0.58 0 1.52 0 4.1C0 6.28 1.49 8.12 3.51 8.64L3.51 25.35C1.49 25.87 0 27.71 0 29.89C0 32.47 2.1 34.57 4.68 34.57C7.27 34.57 9.37 32.47 9.37 29.89C9.37 27.71 7.87 25.87 5.85 25.35L5.85 18.17L15.46 18.17C15.88 19.81 17.18 21.11 18.82 21.53L18.82 25.35C16.8 25.87 15.31 27.71 15.31 29.89C15.31 32.47 17.41 34.57 20 34.57C22.58 34.57 24.68 32.47 24.68 29.89C24.68 27.71 23.19 25.87 21.17 25.35ZM32.96 4.1C32.96 2.81 34.02 1.76 35.31 1.76C36.6 1.76 37.65 2.81 37.65 4.1C37.65 5.4 36.6 6.45 35.31 6.45C34.02 6.45 32.96 5.4 32.96 4.1ZM2.34 4.1C2.34 2.81 3.39 1.76 4.68 1.76C5.97 1.76 7.03 2.81 7.03 4.1C7.03 5.4 5.97 6.45 4.68 6.45C3.39 6.45 2.34 5.4 2.34 4.1ZM7.03 29.89C7.03 31.18 5.97 32.23 4.68 32.23C3.39 32.23 2.34 31.18 2.34 29.89C2.34 28.59 3.39 27.54 4.68 27.54C5.97 27.54 7.03 28.59 7.03 29.89ZM17.65 4.1C17.65 2.81 18.7 1.76 20 1.76C21.29 1.76 22.34 2.81 22.34 4.1C22.34 5.4 21.29 6.45 20 6.45C18.7 6.45 17.65 5.4 17.65 4.1ZM17.65 17C17.65 15.7 18.7 14.65 20 14.65C21.29 14.65 22.34 15.7 22.34 17C22.34 18.29 21.29 19.34 20 19.34C18.7 19.34 17.65 18.29 17.65 17ZM20 32.23C18.7 32.23 17.65 31.18 17.65 29.89C17.65 28.59 18.7 27.54 20 27.54C21.29 27.54 22.34 28.59 22.34 29.89C22.34 31.18 21.29 32.23 20 32.23Z" fill="#FFFFFF" fill-opacity="1.000000" fill-rule="nonzero"/>
	<path id="Vector" d="M35.31 24.32L32.97 24.32C32.32 24.32 31.79 24.84 31.79 25.49L31.79 33.4C31.79 34.05 32.32 34.57 32.97 34.57C33.61 34.57 34.14 34.05 34.14 33.4L34.14 31.35L35.22 31.35C35.87 31.35 36.4 31.88 36.4 32.52L36.4 33.4C36.4 34.05 36.92 34.57 37.57 34.57C38.21 34.57 38.74 34.05 38.74 33.4C38.68 32.92 39.01 31.53 37.88 30.22C39.96 27.98 38.36 24.32 35.31 24.32ZM34.14 29.01L34.14 26.66L35.31 26.66C35.95 26.66 36.48 27.19 36.48 27.83C36.48 28.48 35.95 29.01 35.31 29.01L35.22 29.01L34.14 29.01Z" fill="#FFFFFF" fill-opacity="1.000000" fill-rule="nonzero"/>
</svg>
