<svg width="40" height="36" viewBox="0 0 40 36" fill="none" xmlns="http://www.w3.org/2000/svg">
<path d="M21.1719 26.3515V22.5392C22.8194 22.1136 24.1184 20.8124 24.5411 19.1638L34.1406 19.1797V22.6875C34.1406 23.3347 34.6653 23.8594 35.3125 23.8594C35.9597 23.8594 36.4844 23.3347 36.4844 22.6875V9.64852C38.5038 9.12687 40 7.28953 40 5.10938C40 2.52469 37.8972 0.421875 35.3125 0.421875C32.7278 0.421875 30.625 2.52469 30.625 5.10938C30.625 7.28953 32.1212 9.12687 34.1406 9.64852V16.8359L24.5369 16.8201C24.1098 15.1791 22.814 13.8851 21.1719 13.4609V9.64859C23.1913 9.12695 24.6875 7.28961 24.6875 5.10945C24.6875 2.52477 22.5847 0.421953 20 0.421953C17.4153 0.421953 15.3125 2.52477 15.3125 5.10945C15.3125 7.28961 16.8087 9.12695 18.8281 9.64859V13.4609C17.1834 13.8858 15.8857 15.1834 15.4609 16.8281H5.85938V9.64852C7.87883 9.12687 9.375 7.28953 9.375 5.10938C9.375 2.52469 7.27219 0.421875 4.6875 0.421875C2.10281 0.421875 0 2.52469 0 5.10938C0 7.28953 1.49617 9.12687 3.51562 9.64852V26.3514C1.49617 26.8731 0 28.7105 0 30.8906C0 33.4753 2.10281 35.5781 4.6875 35.5781C7.27219 35.5781 9.375 33.4753 9.375 30.8906C9.375 28.7105 7.87883 26.8731 5.85938 26.3515V19.1719H15.4609C15.8858 20.8166 17.1834 22.1143 18.8281 22.5391V26.3514C16.8087 26.873 15.3125 28.7104 15.3125 30.8905C15.3125 33.4752 17.4153 35.578 20 35.578C22.5847 35.578 24.6875 33.4752 24.6875 30.8905C24.6875 28.7105 23.1913 26.8731 21.1719 26.3515ZM32.9688 5.10938C32.9688 3.81703 34.0202 2.76562 35.3125 2.76562C36.6048 2.76562 37.6562 3.81703 37.6562 5.10938C37.6562 6.40172 36.6048 7.45312 35.3125 7.45312C34.0202 7.45312 32.9688 6.40172 32.9688 5.10938ZM2.34375 5.10938C2.34375 3.81703 3.39516 2.76562 4.6875 2.76562C5.97984 2.76562 7.03125 3.81703 7.03125 5.10938C7.03125 6.40172 5.97984 7.45312 4.6875 7.45312C3.39516 7.45312 2.34375 6.40172 2.34375 5.10938ZM7.03125 30.8906C7.03125 32.183 5.97984 33.2344 4.6875 33.2344C3.39516 33.2344 2.34375 32.183 2.34375 30.8906C2.34375 29.5983 3.39516 28.5469 4.6875 28.5469C5.97984 28.5469 7.03125 29.5983 7.03125 30.8906ZM17.6562 5.10938C17.6562 3.81703 18.7077 2.76562 20 2.76562C21.2923 2.76562 22.3438 3.81703 22.3438 5.10938C22.3438 6.40172 21.2923 7.45312 20 7.45312C18.7077 7.45312 17.6562 6.40172 17.6562 5.10938ZM17.6562 18C17.6562 16.7077 18.7077 15.6562 20 15.6562C21.2923 15.6562 22.3438 16.7077 22.3438 18C22.3438 19.2923 21.2923 20.3438 20 20.3438C18.7077 20.3438 17.6562 19.2923 17.6562 18ZM20 33.2344C18.7077 33.2344 17.6562 32.183 17.6562 30.8906C17.6562 29.5983 18.7077 28.5469 20 28.5469C21.2923 28.5469 22.3438 29.5983 22.3438 30.8906C22.3438 32.183 21.2923 33.2344 20 33.2344Z" fill="black"/>
<path d="M35.3105 25.3242H32.9707C32.3235 25.3242 31.7988 25.8489 31.7988 26.4961V34.4062C31.7988 35.0534 32.3235 35.5781 32.9707 35.5781C33.6179 35.5781 34.1426 35.0534 34.1426 34.4062V32.3555H35.2285C35.8747 32.3555 36.4004 32.8812 36.4004 33.5273V34.4062C36.4004 35.0534 36.9251 35.5781 37.5723 35.5781C38.2195 35.5781 38.7441 35.0534 38.7441 34.4062C38.683 33.9234 39.0187 32.5379 37.8859 31.2296C39.9677 28.9877 38.3652 25.3242 35.3105 25.3242ZM34.1426 30.0117V27.668H35.3105C35.9567 27.668 36.4824 28.1937 36.4824 28.8398C36.4824 29.486 35.9567 30.0117 35.3105 30.0117H35.2285H34.1426Z" fill="black"/>
</svg>
