<!-- icon666.com - MILLIONS vector ICONS FREE --><svg version="1.1" id="Capa_1" xmlns="http://www.w3.org/2000/svg" xmlns:xlink="http://www.w3.org/1999/xlink" x="0px" y="0px" viewBox="0 0 512 512" style="enable-background:new 0 0 512 512;" xml:space="preserve"><g><g><path d="M203.233,125.103c-78.377,0-142.142,63.764-142.142,142.141c0,21.596,4.722,42.342,14.034,61.656 c1.924,3.989,6.715,5.66,10.698,3.738c3.987-1.922,5.66-6.712,3.738-10.698c-8.257-17.127-12.444-35.529-12.444-54.697 c0-69.54,56.575-126.115,126.116-126.115s126.116,56.575,126.116,126.115c0,69.541-56.575,126.116-126.116,126.116 c-36.708,0-71.527-15.955-95.529-43.775c-2.892-3.35-7.951-3.725-11.302-0.833c-3.35,2.893-3.724,7.952-0.832,11.303 c27.049,31.351,66.291,49.332,107.663,49.332c78.377,0,142.142-63.765,142.142-142.142S281.61,125.103,203.233,125.103z"></path></g></g><g><g><path d="M304.26,238.466c-2.029-7.142-7.127-12.92-13.985-15.854c-6.934-2.964-14.73-2.648-21.393,0.871l-40.742,21.511 c-0.835-0.934-1.722-1.821-2.657-2.657l21.541-40.695c3.524-6.659,3.85-14.456,0.892-21.39 c-2.927-6.863-8.702-11.968-15.845-14.006c-18.65-5.32-38.927-5.329-57.58-0.028c-7.142,2.029-12.92,7.127-15.853,13.986 c-2.964,6.932-2.647,14.728,0.87,21.391l21.498,40.719c-0.952,0.85-1.856,1.754-2.707,2.708l-40.671-21.528 c-6.659-3.522-14.454-3.85-21.389-0.893c-6.863,2.927-11.968,8.703-14.006,15.847c-2.665,9.341-4.016,19.044-4.016,28.839 c0,9.76,1.342,19.429,3.987,28.739c2.029,7.142,7.127,12.92,13.985,15.854c3.15,1.346,6.476,2.016,9.795,2.016 c3.987,0,7.962-0.967,11.598-2.886l40.743-21.511c0.852,0.952,1.758,1.855,2.712,2.704l-21.515,40.647 c-3.524,6.659-3.85,14.456-0.892,21.39c2.927,6.863,8.702,11.968,15.845,14.006c9.341,2.665,19.044,4.016,28.838,4.016 c9.761,0,19.43-1.342,28.741-3.988c7.142-2.029,12.92-7.127,15.853-13.986c2.964-6.932,2.647-14.728-0.87-21.391l-21.524-40.768 c0.933-0.836,1.818-1.725,2.652-2.66l40.671,21.529c3.642,1.927,7.624,2.898,11.62,2.898c3.308,0,6.627-0.667,9.769-2.005 c6.863-2.927,11.968-8.703,14.006-15.847c2.665-9.341,4.016-19.044,4.016-28.839C308.247,257.445,306.905,247.776,304.26,238.466z M130.1,296.836c-2.371,1.251-5.143,1.361-7.608,0.308c-1.406-0.602-3.909-2.116-4.87-5.499 c-2.241-7.886-3.377-16.081-3.377-24.359c0-8.308,1.145-16.533,3.4-24.444c0.966-3.387,3.473-4.9,4.882-5.5 c2.468-1.054,5.238-0.937,7.605,0.315l40.669,21.528c-0.642,2.583-0.988,5.28-0.988,8.059c0,2.792,0.349,5.504,0.997,8.098 L130.1,296.836z M173.683,194.111c-1.251-2.367-1.363-5.141-0.308-7.607c0.602-1.406,2.116-3.911,5.499-4.872 c15.799-4.487,33.01-4.478,48.803,0.024c3.387,0.966,4.9,3.473,5.5,4.881c1.053,2.469,0.938,5.241-0.315,7.607l-21.532,40.678 c-2.594-0.648-5.304-0.997-8.096-0.997c-2.779,0-5.478,0.347-8.06,0.989L173.683,194.111z M220.628,267.244 c0,9.592-7.803,17.395-17.395,17.395c-9.592,0-17.395-7.803-17.395-17.395c0-9.591,7.803-17.394,17.395-17.394 C212.825,249.85,220.628,257.654,220.628,267.244z M232.865,340.378c1.251,2.367,1.363,5.141,0.308,7.607 c-0.602,1.406-2.116,3.91-5.499,4.871c-15.797,4.491-33.008,4.481-48.803-0.023c-3.387-0.966-4.9-3.473-5.5-4.881 c-1.053-2.469-0.938-5.241,0.315-7.607l21.523-40.661c2.572,0.636,5.257,0.98,8.023,0.98c2.805,0,5.529-0.352,8.134-1.006 L232.865,340.378z M288.821,291.648c-0.966,3.387-3.473,4.9-4.882,5.5c-2.468,1.055-5.238,0.937-7.605-0.315l-40.67-21.528 c0.642-2.583,0.989-5.281,0.989-8.06c0-2.792-0.349-5.503-0.997-8.098l40.71-21.493c2.369-1.252,5.142-1.361,7.608-0.308 c1.406,0.602,3.909,2.116,4.87,5.499c2.241,7.886,3.377,16.081,3.377,24.359C292.221,275.512,291.076,283.737,288.821,291.648z"></path></g></g><g><g><path d="M496.135,57.361H479.98c-2.198-10.389-11.434-18.212-22.468-18.212c-12.666,0-22.971,10.304-22.971,22.971v175.666 h-27.997c-2.259,0-4.412,0.953-5.93,2.625c-1.519,1.671-2.262,3.906-2.046,6.154c0.595,6.191,0.896,12.428,0.896,18.54 c0,4.426,3.587,8.013,8.013,8.013c4.426,0,8.013-3.587,8.013-8.013c0-3.734-0.103-7.509-0.31-11.293h19.682 c1.763,10.926,11.234,19.306,22.65,19.306c11.416,0,20.887-8.38,22.65-19.306h15.973c8.749,0,15.865-7.117,15.865-15.864V73.226 C512,64.478,504.883,57.361,496.135,57.361z M464.456,250.149c0,3.829-3.115,6.944-6.945,6.944c-3.829,0-6.945-3.114-6.945-6.944 V62.12c0-3.829,3.115-6.945,6.945-6.945c3.829,0,6.945,3.115,6.945,6.945V250.149z M495.974,237.786h-15.492V73.387h15.492 V237.786z"></path></g></g><g><g><path d="M207.745,73.386c1.236,0,2.466,0.024,3.696,0.048c0.341-0.003,0.687-0.01,1.027-0.048h195.899 c4.426,0,8.013-3.587,8.013-8.013s-3.587-8.013-8.013-8.013H211.596c-0.247,0-0.492,0.011-0.735,0.033 c-1.037-0.019-2.075-0.033-3.118-0.033c-55.491,0-107.66,21.609-146.898,60.848C21.608,157.447-0.001,209.616,0,265.107 c0,55.648,21.566,107.86,60.726,147.019c39.159,39.159,91.372,60.725,147.02,60.725c49.26,0,97.027-17.548,134.501-49.413 c37.046-31.5,61.979-75.094,70.207-122.75c0.752-4.362-2.173-8.507-6.533-9.261c-4.363-0.744-8.507,2.172-9.26,6.532 c-7.59,43.968-30.602,84.194-64.796,113.268c-34.58,29.404-78.66,45.597-124.12,45.597c-51.367,0-99.555-19.899-135.688-56.03 c-36.132-36.132-56.031-84.32-56.031-135.687c0-51.21,19.942-99.355,56.153-135.567C108.39,93.329,156.535,73.386,207.745,73.386z "></path></g></g></svg>